<?xml version="1.0" encoding="UTF-8" standalone="no"?>
<!DOCTYPE svg PUBLIC "-//W3C//DTD SVG 1.1//EN"
 "http://www.w3.org/Graphics/SVG/1.1/DTD/svg11.dtd">
<!-- Generated by graphviz version 2.28.0 (20130927.1109)
 -->
<!-- Title: G Pages: 1 -->
<svg width="904pt" height="665pt"
 viewBox="0.00 0.00 904.00 665.00" xmlns="http://www.w3.org/2000/svg" xmlns:xlink="http://www.w3.org/1999/xlink">
<g id="graph1" class="graph" transform="scale(1 1) rotate(0) translate(4 661)">
<title>G</title>
<polygon fill="white" stroke="white" points="-4,5 -4,-661 901,-661 901,5 -4,5"/>
<text text-anchor="middle" x="448" y="-6.6" font-family="Bitstream Vera Sans" font-size="8.00">generated by sadisplay v0.3.8dev</text>
<!-- Game -->
<g id="node1" class="node"><title>Game</title>
<polygon fill="lightyellow" stroke="lightyellow" points="404,-21.5 404,-314.5 518,-314.5 518,-21.5 404,-21.5"/>
<polygon fill="palegoldenrod" stroke="palegoldenrod" points="404,-297 404,-314 518,-314 518,-297 404,-297"/>
<text text-anchor="start" x="448.5" y="-304.1" font-family="Helvetica Bold" font-size="8.00">Game</text>
<text text-anchor="start" x="406" y="-289.6" font-family="Bitstream Vera Sans" font-size="8.00">id</text>
<text text-anchor="start" x="473" y="-289.6" font-family="Bitstream Vera Sans" font-size="8.00">Integer</text>
<text text-anchor="start" x="406" y="-277.6" font-family="Bitstream Vera Sans" font-size="8.00">survey_id</text>
<text text-anchor="start" x="473" y="-277.6" font-family="Bitstream Vera Sans" font-size="8.00">Integer</text>
<text text-anchor="start" x="406" y="-265.6" font-family="Bitstream Vera Sans" font-size="8.00">userA_id</text>
<text text-anchor="start" x="473" y="-265.6" font-family="Bitstream Vera Sans" font-size="8.00">Integer</text>
<text text-anchor="start" x="406" y="-253.6" font-family="Bitstream Vera Sans" font-size="8.00">userB_id</text>
<text text-anchor="start" x="473" y="-253.6" font-family="Bitstream Vera Sans" font-size="8.00">Integer</text>
<text text-anchor="start" x="406" y="-241.6" font-family="Bitstream Vera Sans" font-size="8.00">answerA_id</text>
<text text-anchor="start" x="473" y="-241.6" font-family="Bitstream Vera Sans" font-size="8.00">Integer</text>
<text text-anchor="start" x="406" y="-229.6" font-family="Bitstream Vera Sans" font-size="8.00">answerB_id</text>
<text text-anchor="start" x="473" y="-229.6" font-family="Bitstream Vera Sans" font-size="8.00">Integer</text>
<text text-anchor="start" x="406" y="-217.6" font-family="Bitstream Vera Sans" font-size="8.00">prizeA</text>
<text text-anchor="start" x="473" y="-217.6" font-family="Bitstream Vera Sans" font-size="8.00">Boolean</text>
<text text-anchor="start" x="406" y="-205.6" font-family="Bitstream Vera Sans" font-size="8.00">prizeB</text>
<text text-anchor="start" x="473" y="-205.6" font-family="Bitstream Vera Sans" font-size="8.00">Boolean</text>
<text text-anchor="start" x="406" y="-193.6" font-family="Bitstream Vera Sans" font-size="8.00">repeatA</text>
<text text-anchor="start" x="473" y="-193.6" font-family="Bitstream Vera Sans" font-size="8.00">Boolean</text>
<text text-anchor="start" x="406" y="-181.6" font-family="Bitstream Vera Sans" font-size="8.00">repeatB</text>
<text text-anchor="start" x="473" y="-181.6" font-family="Bitstream Vera Sans" font-size="8.00">Boolean</text>
<text text-anchor="start" x="406" y="-169.6" font-family="Bitstream Vera Sans" font-size="8.00">moneyA</text>
<text text-anchor="start" x="473" y="-169.6" font-family="Bitstream Vera Sans" font-size="8.00">Float</text>
<text text-anchor="start" x="406" y="-157.6" font-family="Bitstream Vera Sans" font-size="8.00">moneyB</text>
<text text-anchor="start" x="473" y="-157.6" font-family="Bitstream Vera Sans" font-size="8.00">Float</text>
<text text-anchor="start" x="406" y="-145.6" font-family="Bitstream Vera Sans" font-size="8.00">is_real_money</text>
<text text-anchor="start" x="473" y="-145.6" font-family="Bitstream Vera Sans" font-size="8.00">Boolean</text>
<text text-anchor="start" x="406" y="-133.6" font-family="Bitstream Vera Sans" font-size="8.00">type</text>
<text text-anchor="start" x="473" y="-133.6" font-family="Bitstream Vera Sans" font-size="8.00">String</text>
<polygon fill="palegoldenrod" stroke="palegoldenrod" points="404,-117 404,-129 471,-129 471,-117 404,-117"/>
<text text-anchor="start" x="406" y="-121.6" font-family="Bitstream Vera Sans" font-size="8.00">answerA</text>
<polygon fill="palegoldenrod" stroke="palegoldenrod" points="471,-117 471,-129 518,-129 518,-117 471,-117"/>
<text text-anchor="start" x="473" y="-121.6" font-family="Bitstream Vera Sans" font-size="8.00">PROPERTY</text>
<polygon fill="palegoldenrod" stroke="palegoldenrod" points="404,-105 404,-117 471,-117 471,-105 404,-105"/>
<text text-anchor="start" x="406" y="-109.6" font-family="Bitstream Vera Sans" font-size="8.00">answerB</text>
<polygon fill="palegoldenrod" stroke="palegoldenrod" points="471,-105 471,-117 518,-117 518,-105 471,-105"/>
<text text-anchor="start" x="473" y="-109.6" font-family="Bitstream Vera Sans" font-size="8.00">PROPERTY</text>
<polygon fill="palegoldenrod" stroke="palegoldenrod" points="404,-93 404,-105 471,-105 471,-93 404,-93"/>
<text text-anchor="start" x="406" y="-97.6" font-family="Bitstream Vera Sans" font-size="8.00">survey</text>
<polygon fill="palegoldenrod" stroke="palegoldenrod" points="471,-93 471,-105 518,-105 518,-93 471,-93"/>
<text text-anchor="start" x="473" y="-97.6" font-family="Bitstream Vera Sans" font-size="8.00">PROPERTY</text>
<polygon fill="palegoldenrod" stroke="palegoldenrod" points="404,-81 404,-93 471,-93 471,-81 404,-81"/>
<text text-anchor="start" x="406" y="-85.6" font-family="Bitstream Vera Sans" font-size="8.00">userA</text>
<polygon fill="palegoldenrod" stroke="palegoldenrod" points="471,-81 471,-93 518,-93 518,-81 471,-81"/>
<text text-anchor="start" x="473" y="-85.6" font-family="Bitstream Vera Sans" font-size="8.00">PROPERTY</text>
<polygon fill="palegoldenrod" stroke="palegoldenrod" points="404,-69 404,-81 471,-81 471,-69 404,-69"/>
<text text-anchor="start" x="406" y="-73.6" font-family="Bitstream Vera Sans" font-size="8.00">userB</text>
<polygon fill="palegoldenrod" stroke="palegoldenrod" points="471,-69 471,-81 518,-81 518,-69 471,-69"/>
<text text-anchor="start" x="473" y="-73.6" font-family="Bitstream Vera Sans" font-size="8.00">PROPERTY</text>
<polygon fill="palegoldenrod" stroke="palegoldenrod" points="404,-57 404,-69 471,-69 471,-57 404,-57"/>
<text text-anchor="start" x="406" y="-61.6" font-family="Bitstream Vera Sans" font-size="8.00">cashInitA()</text>
<polygon fill="palegoldenrod" stroke="palegoldenrod" points="471,-57 471,-69 518,-69 518,-57 471,-57"/>
<text text-anchor="start" x="473" y="-61.6" font-family="Bitstream Vera Sans" font-size="8.00">METHOD</text>
<polygon fill="palegoldenrod" stroke="palegoldenrod" points="404,-45 404,-57 471,-57 471,-45 404,-45"/>
<text text-anchor="start" x="406" y="-49.6" font-family="Bitstream Vera Sans" font-size="8.00">cashInitB()</text>
<polygon fill="palegoldenrod" stroke="palegoldenrod" points="471,-45 471,-57 518,-57 518,-45 471,-45"/>
<text text-anchor="start" x="473" y="-49.6" font-family="Bitstream Vera Sans" font-size="8.00">METHOD</text>
<polygon fill="palegoldenrod" stroke="palegoldenrod" points="404,-33 404,-45 471,-45 471,-33 404,-33"/>
<text text-anchor="start" x="406" y="-37.6" font-family="Bitstream Vera Sans" font-size="8.00">statusA()</text>
<polygon fill="palegoldenrod" stroke="palegoldenrod" points="471,-33 471,-45 518,-45 518,-33 471,-33"/>
<text text-anchor="start" x="473" y="-37.6" font-family="Bitstream Vera Sans" font-size="8.00">METHOD</text>
<polygon fill="palegoldenrod" stroke="palegoldenrod" points="404,-21 404,-33 471,-33 471,-21 404,-21"/>
<text text-anchor="start" x="406" y="-25.6" font-family="Bitstream Vera Sans" font-size="8.00">statusB()</text>
<polygon fill="palegoldenrod" stroke="palegoldenrod" points="471,-21 471,-33 518,-33 518,-21 471,-21"/>
<text text-anchor="start" x="473" y="-25.6" font-family="Bitstream Vera Sans" font-size="8.00">METHOD</text>
</g>
<!-- GameLottery1 -->
<g id="node2" class="node"><title>GameLottery1</title>
<polygon fill="lightyellow" stroke="lightyellow" points="7.5,-359.5 7.5,-652.5 134.5,-652.5 134.5,-359.5 7.5,-359.5"/>
<polygon fill="palegoldenrod" stroke="palegoldenrod" points="8,-635 8,-652 135,-652 135,-635 8,-635"/>
<text text-anchor="start" x="41.5" y="-642.1" font-family="Helvetica Bold" font-size="8.00">GameLottery1</text>
<text text-anchor="start" x="10" y="-627.6" font-family="Bitstream Vera Sans" font-size="8.00">id</text>
<text text-anchor="start" x="90" y="-627.6" font-family="Bitstream Vera Sans" font-size="8.00">Integer</text>
<text text-anchor="start" x="10" y="-615.6" font-family="Bitstream Vera Sans" font-size="8.00">survey_id</text>
<text text-anchor="start" x="90" y="-615.6" font-family="Bitstream Vera Sans" font-size="8.00">Integer</text>
<text text-anchor="start" x="10" y="-603.6" font-family="Bitstream Vera Sans" font-size="8.00">userA_id</text>
<text text-anchor="start" x="90" y="-603.6" font-family="Bitstream Vera Sans" font-size="8.00">Integer</text>
<text text-anchor="start" x="10" y="-591.6" font-family="Bitstream Vera Sans" font-size="8.00">userB_id</text>
<text text-anchor="start" x="90" y="-591.6" font-family="Bitstream Vera Sans" font-size="8.00">Integer</text>
<text text-anchor="start" x="10" y="-579.6" font-family="Bitstream Vera Sans" font-size="8.00">answerA_id</text>
<text text-anchor="start" x="90" y="-579.6" font-family="Bitstream Vera Sans" font-size="8.00">Integer</text>
<text text-anchor="start" x="10" y="-567.6" font-family="Bitstream Vera Sans" font-size="8.00">answerB_id</text>
<text text-anchor="start" x="90" y="-567.6" font-family="Bitstream Vera Sans" font-size="8.00">Integer</text>
<text text-anchor="start" x="10" y="-555.6" font-family="Bitstream Vera Sans" font-size="8.00">prizeA</text>
<text text-anchor="start" x="90" y="-555.6" font-family="Bitstream Vera Sans" font-size="8.00">Boolean</text>
<text text-anchor="start" x="10" y="-543.6" font-family="Bitstream Vera Sans" font-size="8.00">prizeB</text>
<text text-anchor="start" x="90" y="-543.6" font-family="Bitstream Vera Sans" font-size="8.00">Boolean</text>
<text text-anchor="start" x="10" y="-531.6" font-family="Bitstream Vera Sans" font-size="8.00">repeatA</text>
<text text-anchor="start" x="90" y="-531.6" font-family="Bitstream Vera Sans" font-size="8.00">Boolean</text>
<text text-anchor="start" x="10" y="-519.6" font-family="Bitstream Vera Sans" font-size="8.00">repeatB</text>
<text text-anchor="start" x="90" y="-519.6" font-family="Bitstream Vera Sans" font-size="8.00">Boolean</text>
<text text-anchor="start" x="10" y="-507.6" font-family="Bitstream Vera Sans" font-size="8.00">moneyA</text>
<text text-anchor="start" x="90" y="-507.6" font-family="Bitstream Vera Sans" font-size="8.00">Float</text>
<text text-anchor="start" x="10" y="-495.6" font-family="Bitstream Vera Sans" font-size="8.00">moneyB</text>
<text text-anchor="start" x="90" y="-495.6" font-family="Bitstream Vera Sans" font-size="8.00">Float</text>
<text text-anchor="start" x="10" y="-483.6" font-family="Bitstream Vera Sans" font-size="8.00">is_real_money</text>
<text text-anchor="start" x="90" y="-483.6" font-family="Bitstream Vera Sans" font-size="8.00">Boolean</text>
<text text-anchor="start" x="10" y="-471.6" font-family="Bitstream Vera Sans" font-size="8.00">type</text>
<text text-anchor="start" x="90" y="-471.6" font-family="Bitstream Vera Sans" font-size="8.00">String</text>
<text text-anchor="start" x="10" y="-459.6" font-family="Bitstream Vera Sans" font-size="8.00">win_id</text>
<text text-anchor="start" x="90" y="-459.6" font-family="Bitstream Vera Sans" font-size="8.00">Integer</text>
<polygon fill="palegoldenrod" stroke="palegoldenrod" points="8,-443 8,-455 88,-455 88,-443 8,-443"/>
<text text-anchor="start" x="10" y="-447.6" font-family="Bitstream Vera Sans" font-size="8.00">answerA</text>
<polygon fill="palegoldenrod" stroke="palegoldenrod" points="88,-443 88,-455 135,-455 135,-443 88,-443"/>
<text text-anchor="start" x="90" y="-447.6" font-family="Bitstream Vera Sans" font-size="8.00">PROPERTY</text>
<polygon fill="palegoldenrod" stroke="palegoldenrod" points="8,-431 8,-443 88,-443 88,-431 8,-431"/>
<text text-anchor="start" x="10" y="-435.6" font-family="Bitstream Vera Sans" font-size="8.00">answerB</text>
<polygon fill="palegoldenrod" stroke="palegoldenrod" points="88,-431 88,-443 135,-443 135,-431 88,-431"/>
<text text-anchor="start" x="90" y="-435.6" font-family="Bitstream Vera Sans" font-size="8.00">PROPERTY</text>
<polygon fill="palegoldenrod" stroke="palegoldenrod" points="8,-419 8,-431 88,-431 88,-419 8,-419"/>
<text text-anchor="start" x="10" y="-423.6" font-family="Bitstream Vera Sans" font-size="8.00">survey</text>
<polygon fill="palegoldenrod" stroke="palegoldenrod" points="88,-419 88,-431 135,-431 135,-419 88,-419"/>
<text text-anchor="start" x="90" y="-423.6" font-family="Bitstream Vera Sans" font-size="8.00">PROPERTY</text>
<polygon fill="palegoldenrod" stroke="palegoldenrod" points="8,-407 8,-419 88,-419 88,-407 8,-407"/>
<text text-anchor="start" x="10" y="-411.6" font-family="Bitstream Vera Sans" font-size="8.00">userA</text>
<polygon fill="palegoldenrod" stroke="palegoldenrod" points="88,-407 88,-419 135,-419 135,-407 88,-407"/>
<text text-anchor="start" x="90" y="-411.6" font-family="Bitstream Vera Sans" font-size="8.00">PROPERTY</text>
<polygon fill="palegoldenrod" stroke="palegoldenrod" points="8,-395 8,-407 88,-407 88,-395 8,-395"/>
<text text-anchor="start" x="10" y="-399.6" font-family="Bitstream Vera Sans" font-size="8.00">userB</text>
<polygon fill="palegoldenrod" stroke="palegoldenrod" points="88,-395 88,-407 135,-407 135,-395 88,-395"/>
<text text-anchor="start" x="90" y="-399.6" font-family="Bitstream Vera Sans" font-size="8.00">PROPERTY</text>
<polygon fill="palegoldenrod" stroke="palegoldenrod" points="8,-383 8,-395 88,-395 88,-383 8,-383"/>
<text text-anchor="start" x="10" y="-387.6" font-family="Bitstream Vera Sans" font-size="8.00">win</text>
<polygon fill="palegoldenrod" stroke="palegoldenrod" points="88,-383 88,-395 135,-395 135,-383 88,-383"/>
<text text-anchor="start" x="90" y="-387.6" font-family="Bitstream Vera Sans" font-size="8.00">PROPERTY</text>
<polygon fill="palegoldenrod" stroke="palegoldenrod" points="8,-371 8,-383 88,-383 88,-371 8,-371"/>
<text text-anchor="start" x="10" y="-375.6" font-family="Bitstream Vera Sans" font-size="8.00">percent_playerA()</text>
<polygon fill="palegoldenrod" stroke="palegoldenrod" points="88,-371 88,-383 135,-383 135,-371 88,-371"/>
<text text-anchor="start" x="90" y="-375.6" font-family="Bitstream Vera Sans" font-size="8.00">METHOD</text>
<polygon fill="palegoldenrod" stroke="palegoldenrod" points="8,-359 8,-371 88,-371 88,-359 8,-359"/>
<text text-anchor="start" x="10" y="-363.6" font-family="Bitstream Vera Sans" font-size="8.00">percent_playerB()</text>
<polygon fill="palegoldenrod" stroke="palegoldenrod" points="88,-359 88,-371 135,-371 135,-359 88,-359"/>
<text text-anchor="start" x="90" y="-363.6" font-family="Bitstream Vera Sans" font-size="8.00">METHOD</text>
</g>
<!-- GameLottery1&#45;&gt;Game -->
<g id="edge2" class="edge"><title>GameLottery1&#45;&gt;Game</title>
<path fill="none" stroke="black" d="M142.387,-364.669C145.18,-361.333 148.051,-358.101 151,-355 218.326,-284.188 318.407,-230.716 386.509,-199.681"/>
<polygon fill="none" stroke="black" points="388.219,-202.75 395.899,-195.452 385.344,-196.367 388.219,-202.75"/>
</g>
<!-- GameLottery2 -->
<g id="node3" class="node"><title>GameLottery2</title>
<polygon fill="lightyellow" stroke="lightyellow" points="168.5,-371.5 168.5,-640.5 295.5,-640.5 295.5,-371.5 168.5,-371.5"/>
<polygon fill="palegoldenrod" stroke="palegoldenrod" points="169,-623 169,-640 296,-640 296,-623 169,-623"/>
<text text-anchor="start" x="202.5" y="-630.1" font-family="Helvetica Bold" font-size="8.00">GameLottery2</text>
<text text-anchor="start" x="171" y="-615.6" font-family="Bitstream Vera Sans" font-size="8.00">id</text>
<text text-anchor="start" x="251" y="-615.6" font-family="Bitstream Vera Sans" font-size="8.00">Integer</text>
<text text-anchor="start" x="171" y="-603.6" font-family="Bitstream Vera Sans" font-size="8.00">survey_id</text>
<text text-anchor="start" x="251" y="-603.6" font-family="Bitstream Vera Sans" font-size="8.00">Integer</text>
<text text-anchor="start" x="171" y="-591.6" font-family="Bitstream Vera Sans" font-size="8.00">userA_id</text>
<text text-anchor="start" x="251" y="-591.6" font-family="Bitstream Vera Sans" font-size="8.00">Integer</text>
<text text-anchor="start" x="171" y="-579.6" font-family="Bitstream Vera Sans" font-size="8.00">userB_id</text>
<text text-anchor="start" x="251" y="-579.6" font-family="Bitstream Vera Sans" font-size="8.00">Integer</text>
<text text-anchor="start" x="171" y="-567.6" font-family="Bitstream Vera Sans" font-size="8.00">answerA_id</text>
<text text-anchor="start" x="251" y="-567.6" font-family="Bitstream Vera Sans" font-size="8.00">Integer</text>
<text text-anchor="start" x="171" y="-555.6" font-family="Bitstream Vera Sans" font-size="8.00">answerB_id</text>
<text text-anchor="start" x="251" y="-555.6" font-family="Bitstream Vera Sans" font-size="8.00">Integer</text>
<text text-anchor="start" x="171" y="-543.6" font-family="Bitstream Vera Sans" font-size="8.00">prizeA</text>
<text text-anchor="start" x="251" y="-543.6" font-family="Bitstream Vera Sans" font-size="8.00">Boolean</text>
<text text-anchor="start" x="171" y="-531.6" font-family="Bitstream Vera Sans" font-size="8.00">prizeB</text>
<text text-anchor="start" x="251" y="-531.6" font-family="Bitstream Vera Sans" font-size="8.00">Boolean</text>
<text text-anchor="start" x="171" y="-519.6" font-family="Bitstream Vera Sans" font-size="8.00">repeatA</text>
<text text-anchor="start" x="251" y="-519.6" font-family="Bitstream Vera Sans" font-size="8.00">Boolean</text>
<text text-anchor="start" x="171" y="-507.6" font-family="Bitstream Vera Sans" font-size="8.00">repeatB</text>
<text text-anchor="start" x="251" y="-507.6" font-family="Bitstream Vera Sans" font-size="8.00">Boolean</text>
<text text-anchor="start" x="171" y="-495.6" font-family="Bitstream Vera Sans" font-size="8.00">moneyA</text>
<text text-anchor="start" x="251" y="-495.6" font-family="Bitstream Vera Sans" font-size="8.00">Float</text>
<text text-anchor="start" x="171" y="-483.6" font-family="Bitstream Vera Sans" font-size="8.00">moneyB</text>
<text text-anchor="start" x="251" y="-483.6" font-family="Bitstream Vera Sans" font-size="8.00">Float</text>
<text text-anchor="start" x="171" y="-471.6" font-family="Bitstream Vera Sans" font-size="8.00">is_real_money</text>
<text text-anchor="start" x="251" y="-471.6" font-family="Bitstream Vera Sans" font-size="8.00">Boolean</text>
<text text-anchor="start" x="171" y="-459.6" font-family="Bitstream Vera Sans" font-size="8.00">type</text>
<text text-anchor="start" x="251" y="-459.6" font-family="Bitstream Vera Sans" font-size="8.00">String</text>
<polygon fill="palegoldenrod" stroke="palegoldenrod" points="169,-443 169,-455 249,-455 249,-443 169,-443"/>
<text text-anchor="start" x="171" y="-447.6" font-family="Bitstream Vera Sans" font-size="8.00">answerA</text>
<polygon fill="palegoldenrod" stroke="palegoldenrod" points="249,-443 249,-455 296,-455 296,-443 249,-443"/>
<text text-anchor="start" x="251" y="-447.6" font-family="Bitstream Vera Sans" font-size="8.00">PROPERTY</text>
<polygon fill="palegoldenrod" stroke="palegoldenrod" points="169,-431 169,-443 249,-443 249,-431 169,-431"/>
<text text-anchor="start" x="171" y="-435.6" font-family="Bitstream Vera Sans" font-size="8.00">answerB</text>
<polygon fill="palegoldenrod" stroke="palegoldenrod" points="249,-431 249,-443 296,-443 296,-431 249,-431"/>
<text text-anchor="start" x="251" y="-435.6" font-family="Bitstream Vera Sans" font-size="8.00">PROPERTY</text>
<polygon fill="palegoldenrod" stroke="palegoldenrod" points="169,-419 169,-431 249,-431 249,-419 169,-419"/>
<text text-anchor="start" x="171" y="-423.6" font-family="Bitstream Vera Sans" font-size="8.00">survey</text>
<polygon fill="palegoldenrod" stroke="palegoldenrod" points="249,-419 249,-431 296,-431 296,-419 249,-419"/>
<text text-anchor="start" x="251" y="-423.6" font-family="Bitstream Vera Sans" font-size="8.00">PROPERTY</text>
<polygon fill="palegoldenrod" stroke="palegoldenrod" points="169,-407 169,-419 249,-419 249,-407 169,-407"/>
<text text-anchor="start" x="171" y="-411.6" font-family="Bitstream Vera Sans" font-size="8.00">userA</text>
<polygon fill="palegoldenrod" stroke="palegoldenrod" points="249,-407 249,-419 296,-419 296,-407 249,-407"/>
<text text-anchor="start" x="251" y="-411.6" font-family="Bitstream Vera Sans" font-size="8.00">PROPERTY</text>
<polygon fill="palegoldenrod" stroke="palegoldenrod" points="169,-395 169,-407 249,-407 249,-395 169,-395"/>
<text text-anchor="start" x="171" y="-399.6" font-family="Bitstream Vera Sans" font-size="8.00">userB</text>
<polygon fill="palegoldenrod" stroke="palegoldenrod" points="249,-395 249,-407 296,-407 296,-395 249,-395"/>
<text text-anchor="start" x="251" y="-399.6" font-family="Bitstream Vera Sans" font-size="8.00">PROPERTY</text>
<polygon fill="palegoldenrod" stroke="palegoldenrod" points="169,-383 169,-395 249,-395 249,-383 169,-383"/>
<text text-anchor="start" x="171" y="-387.6" font-family="Bitstream Vera Sans" font-size="8.00">percent_playerA()</text>
<polygon fill="palegoldenrod" stroke="palegoldenrod" points="249,-383 249,-395 296,-395 296,-383 249,-383"/>
<text text-anchor="start" x="251" y="-387.6" font-family="Bitstream Vera Sans" font-size="8.00">METHOD</text>
<polygon fill="palegoldenrod" stroke="palegoldenrod" points="169,-371 169,-383 249,-383 249,-371 169,-371"/>
<text text-anchor="start" x="171" y="-375.6" font-family="Bitstream Vera Sans" font-size="8.00">percent_playerB()</text>
<polygon fill="palegoldenrod" stroke="palegoldenrod" points="249,-371 249,-383 296,-383 296,-371 249,-371"/>
<text text-anchor="start" x="251" y="-375.6" font-family="Bitstream Vera Sans" font-size="8.00">METHOD</text>
</g>
<!-- GameLottery2&#45;&gt;Game -->
<g id="edge4" class="edge"><title>GameLottery2&#45;&gt;Game</title>
<path fill="none" stroke="black" d="M303.278,-370.197C306.492,-365.023 309.738,-359.939 313,-355 336.06,-320.08 364.074,-283.639 389.498,-252.363"/>
<polygon fill="none" stroke="black" points="392.284,-254.484 395.902,-244.526 386.864,-250.055 392.284,-254.484"/>
</g>
<!-- GameRent1 -->
<g id="node4" class="node"><title>GameRent1</title>
<polygon fill="lightyellow" stroke="lightyellow" points="330,-377.5 330,-634.5 444,-634.5 444,-377.5 330,-377.5"/>
<polygon fill="palegoldenrod" stroke="palegoldenrod" points="330,-617 330,-634 444,-634 444,-617 330,-617"/>
<text text-anchor="start" x="362.5" y="-624.1" font-family="Helvetica Bold" font-size="8.00">GameRent1</text>
<text text-anchor="start" x="332" y="-609.6" font-family="Bitstream Vera Sans" font-size="8.00">id</text>
<text text-anchor="start" x="399" y="-609.6" font-family="Bitstream Vera Sans" font-size="8.00">Integer</text>
<text text-anchor="start" x="332" y="-597.6" font-family="Bitstream Vera Sans" font-size="8.00">survey_id</text>
<text text-anchor="start" x="399" y="-597.6" font-family="Bitstream Vera Sans" font-size="8.00">Integer</text>
<text text-anchor="start" x="332" y="-585.6" font-family="Bitstream Vera Sans" font-size="8.00">userA_id</text>
<text text-anchor="start" x="399" y="-585.6" font-family="Bitstream Vera Sans" font-size="8.00">Integer</text>
<text text-anchor="start" x="332" y="-573.6" font-family="Bitstream Vera Sans" font-size="8.00">userB_id</text>
<text text-anchor="start" x="399" y="-573.6" font-family="Bitstream Vera Sans" font-size="8.00">Integer</text>
<text text-anchor="start" x="332" y="-561.6" font-family="Bitstream Vera Sans" font-size="8.00">answerA_id</text>
<text text-anchor="start" x="399" y="-561.6" font-family="Bitstream Vera Sans" font-size="8.00">Integer</text>
<text text-anchor="start" x="332" y="-549.6" font-family="Bitstream Vera Sans" font-size="8.00">answerB_id</text>
<text text-anchor="start" x="399" y="-549.6" font-family="Bitstream Vera Sans" font-size="8.00">Integer</text>
<text text-anchor="start" x="332" y="-537.6" font-family="Bitstream Vera Sans" font-size="8.00">prizeA</text>
<text text-anchor="start" x="399" y="-537.6" font-family="Bitstream Vera Sans" font-size="8.00">Boolean</text>
<text text-anchor="start" x="332" y="-525.6" font-family="Bitstream Vera Sans" font-size="8.00">prizeB</text>
<text text-anchor="start" x="399" y="-525.6" font-family="Bitstream Vera Sans" font-size="8.00">Boolean</text>
<text text-anchor="start" x="332" y="-513.6" font-family="Bitstream Vera Sans" font-size="8.00">repeatA</text>
<text text-anchor="start" x="399" y="-513.6" font-family="Bitstream Vera Sans" font-size="8.00">Boolean</text>
<text text-anchor="start" x="332" y="-501.6" font-family="Bitstream Vera Sans" font-size="8.00">repeatB</text>
<text text-anchor="start" x="399" y="-501.6" font-family="Bitstream Vera Sans" font-size="8.00">Boolean</text>
<text text-anchor="start" x="332" y="-489.6" font-family="Bitstream Vera Sans" font-size="8.00">moneyA</text>
<text text-anchor="start" x="399" y="-489.6" font-family="Bitstream Vera Sans" font-size="8.00">Float</text>
<text text-anchor="start" x="332" y="-477.6" font-family="Bitstream Vera Sans" font-size="8.00">moneyB</text>
<text text-anchor="start" x="399" y="-477.6" font-family="Bitstream Vera Sans" font-size="8.00">Float</text>
<text text-anchor="start" x="332" y="-465.6" font-family="Bitstream Vera Sans" font-size="8.00">is_real_money</text>
<text text-anchor="start" x="399" y="-465.6" font-family="Bitstream Vera Sans" font-size="8.00">Boolean</text>
<text text-anchor="start" x="332" y="-453.6" font-family="Bitstream Vera Sans" font-size="8.00">type</text>
<text text-anchor="start" x="399" y="-453.6" font-family="Bitstream Vera Sans" font-size="8.00">String</text>
<polygon fill="palegoldenrod" stroke="palegoldenrod" points="330,-437 330,-449 397,-449 397,-437 330,-437"/>
<text text-anchor="start" x="332" y="-441.6" font-family="Bitstream Vera Sans" font-size="8.00">answerA</text>
<polygon fill="palegoldenrod" stroke="palegoldenrod" points="397,-437 397,-449 444,-449 444,-437 397,-437"/>
<text text-anchor="start" x="399" y="-441.6" font-family="Bitstream Vera Sans" font-size="8.00">PROPERTY</text>
<polygon fill="palegoldenrod" stroke="palegoldenrod" points="330,-425 330,-437 397,-437 397,-425 330,-425"/>
<text text-anchor="start" x="332" y="-429.6" font-family="Bitstream Vera Sans" font-size="8.00">answerB</text>
<polygon fill="palegoldenrod" stroke="palegoldenrod" points="397,-425 397,-437 444,-437 444,-425 397,-425"/>
<text text-anchor="start" x="399" y="-429.6" font-family="Bitstream Vera Sans" font-size="8.00">PROPERTY</text>
<polygon fill="palegoldenrod" stroke="palegoldenrod" points="330,-413 330,-425 397,-425 397,-413 330,-413"/>
<text text-anchor="start" x="332" y="-417.6" font-family="Bitstream Vera Sans" font-size="8.00">survey</text>
<polygon fill="palegoldenrod" stroke="palegoldenrod" points="397,-413 397,-425 444,-425 444,-413 397,-413"/>
<text text-anchor="start" x="399" y="-417.6" font-family="Bitstream Vera Sans" font-size="8.00">PROPERTY</text>
<polygon fill="palegoldenrod" stroke="palegoldenrod" points="330,-401 330,-413 397,-413 397,-401 330,-401"/>
<text text-anchor="start" x="332" y="-405.6" font-family="Bitstream Vera Sans" font-size="8.00">userA</text>
<polygon fill="palegoldenrod" stroke="palegoldenrod" points="397,-401 397,-413 444,-413 444,-401 397,-401"/>
<text text-anchor="start" x="399" y="-405.6" font-family="Bitstream Vera Sans" font-size="8.00">PROPERTY</text>
<polygon fill="palegoldenrod" stroke="palegoldenrod" points="330,-389 330,-401 397,-401 397,-389 330,-389"/>
<text text-anchor="start" x="332" y="-393.6" font-family="Bitstream Vera Sans" font-size="8.00">userB</text>
<polygon fill="palegoldenrod" stroke="palegoldenrod" points="397,-389 397,-401 444,-401 444,-389 397,-389"/>
<text text-anchor="start" x="399" y="-393.6" font-family="Bitstream Vera Sans" font-size="8.00">PROPERTY</text>
<polygon fill="palegoldenrod" stroke="palegoldenrod" points="330,-377 330,-389 397,-389 397,-377 330,-377"/>
<text text-anchor="start" x="332" y="-381.6" font-family="Bitstream Vera Sans" font-size="8.00">fund()</text>
<polygon fill="palegoldenrod" stroke="palegoldenrod" points="397,-377 397,-389 444,-389 444,-377 397,-377"/>
<text text-anchor="start" x="399" y="-381.6" font-family="Bitstream Vera Sans" font-size="8.00">METHOD</text>
</g>
<!-- GameRent1&#45;&gt;Game -->
<g id="edge6" class="edge"><title>GameRent1&#45;&gt;Game</title>
<path fill="none" stroke="black" d="M416.034,-373.168C419.273,-358.464 422.597,-343.371 425.901,-328.37"/>
<polygon fill="none" stroke="black" points="429.335,-329.05 428.068,-318.531 422.499,-327.544 429.335,-329.05"/>
</g>
<!-- GameRent2 -->
<g id="node5" class="node"><title>GameRent2</title>
<polygon fill="lightyellow" stroke="lightyellow" points="478,-377.5 478,-634.5 592,-634.5 592,-377.5 478,-377.5"/>
<polygon fill="palegoldenrod" stroke="palegoldenrod" points="478,-617 478,-634 592,-634 592,-617 478,-617"/>
<text text-anchor="start" x="510.5" y="-624.1" font-family="Helvetica Bold" font-size="8.00">GameRent2</text>
<text text-anchor="start" x="480" y="-609.6" font-family="Bitstream Vera Sans" font-size="8.00">id</text>
<text text-anchor="start" x="547" y="-609.6" font-family="Bitstream Vera Sans" font-size="8.00">Integer</text>
<text text-anchor="start" x="480" y="-597.6" font-family="Bitstream Vera Sans" font-size="8.00">survey_id</text>
<text text-anchor="start" x="547" y="-597.6" font-family="Bitstream Vera Sans" font-size="8.00">Integer</text>
<text text-anchor="start" x="480" y="-585.6" font-family="Bitstream Vera Sans" font-size="8.00">userA_id</text>
<text text-anchor="start" x="547" y="-585.6" font-family="Bitstream Vera Sans" font-size="8.00">Integer</text>
<text text-anchor="start" x="480" y="-573.6" font-family="Bitstream Vera Sans" font-size="8.00">userB_id</text>
<text text-anchor="start" x="547" y="-573.6" font-family="Bitstream Vera Sans" font-size="8.00">Integer</text>
<text text-anchor="start" x="480" y="-561.6" font-family="Bitstream Vera Sans" font-size="8.00">answerA_id</text>
<text text-anchor="start" x="547" y="-561.6" font-family="Bitstream Vera Sans" font-size="8.00">Integer</text>
<text text-anchor="start" x="480" y="-549.6" font-family="Bitstream Vera Sans" font-size="8.00">answerB_id</text>
<text text-anchor="start" x="547" y="-549.6" font-family="Bitstream Vera Sans" font-size="8.00">Integer</text>
<text text-anchor="start" x="480" y="-537.6" font-family="Bitstream Vera Sans" font-size="8.00">prizeA</text>
<text text-anchor="start" x="547" y="-537.6" font-family="Bitstream Vera Sans" font-size="8.00">Boolean</text>
<text text-anchor="start" x="480" y="-525.6" font-family="Bitstream Vera Sans" font-size="8.00">prizeB</text>
<text text-anchor="start" x="547" y="-525.6" font-family="Bitstream Vera Sans" font-size="8.00">Boolean</text>
<text text-anchor="start" x="480" y="-513.6" font-family="Bitstream Vera Sans" font-size="8.00">repeatA</text>
<text text-anchor="start" x="547" y="-513.6" font-family="Bitstream Vera Sans" font-size="8.00">Boolean</text>
<text text-anchor="start" x="480" y="-501.6" font-family="Bitstream Vera Sans" font-size="8.00">repeatB</text>
<text text-anchor="start" x="547" y="-501.6" font-family="Bitstream Vera Sans" font-size="8.00">Boolean</text>
<text text-anchor="start" x="480" y="-489.6" font-family="Bitstream Vera Sans" font-size="8.00">moneyA</text>
<text text-anchor="start" x="547" y="-489.6" font-family="Bitstream Vera Sans" font-size="8.00">Float</text>
<text text-anchor="start" x="480" y="-477.6" font-family="Bitstream Vera Sans" font-size="8.00">moneyB</text>
<text text-anchor="start" x="547" y="-477.6" font-family="Bitstream Vera Sans" font-size="8.00">Float</text>
<text text-anchor="start" x="480" y="-465.6" font-family="Bitstream Vera Sans" font-size="8.00">is_real_money</text>
<text text-anchor="start" x="547" y="-465.6" font-family="Bitstream Vera Sans" font-size="8.00">Boolean</text>
<text text-anchor="start" x="480" y="-453.6" font-family="Bitstream Vera Sans" font-size="8.00">type</text>
<text text-anchor="start" x="547" y="-453.6" font-family="Bitstream Vera Sans" font-size="8.00">String</text>
<polygon fill="palegoldenrod" stroke="palegoldenrod" points="478,-437 478,-449 545,-449 545,-437 478,-437"/>
<text text-anchor="start" x="480" y="-441.6" font-family="Bitstream Vera Sans" font-size="8.00">answerA</text>
<polygon fill="palegoldenrod" stroke="palegoldenrod" points="545,-437 545,-449 592,-449 592,-437 545,-437"/>
<text text-anchor="start" x="547" y="-441.6" font-family="Bitstream Vera Sans" font-size="8.00">PROPERTY</text>
<polygon fill="palegoldenrod" stroke="palegoldenrod" points="478,-425 478,-437 545,-437 545,-425 478,-425"/>
<text text-anchor="start" x="480" y="-429.6" font-family="Bitstream Vera Sans" font-size="8.00">answerB</text>
<polygon fill="palegoldenrod" stroke="palegoldenrod" points="545,-425 545,-437 592,-437 592,-425 545,-425"/>
<text text-anchor="start" x="547" y="-429.6" font-family="Bitstream Vera Sans" font-size="8.00">PROPERTY</text>
<polygon fill="palegoldenrod" stroke="palegoldenrod" points="478,-413 478,-425 545,-425 545,-413 478,-413"/>
<text text-anchor="start" x="480" y="-417.6" font-family="Bitstream Vera Sans" font-size="8.00">survey</text>
<polygon fill="palegoldenrod" stroke="palegoldenrod" points="545,-413 545,-425 592,-425 592,-413 545,-413"/>
<text text-anchor="start" x="547" y="-417.6" font-family="Bitstream Vera Sans" font-size="8.00">PROPERTY</text>
<polygon fill="palegoldenrod" stroke="palegoldenrod" points="478,-401 478,-413 545,-413 545,-401 478,-401"/>
<text text-anchor="start" x="480" y="-405.6" font-family="Bitstream Vera Sans" font-size="8.00">userA</text>
<polygon fill="palegoldenrod" stroke="palegoldenrod" points="545,-401 545,-413 592,-413 592,-401 545,-401"/>
<text text-anchor="start" x="547" y="-405.6" font-family="Bitstream Vera Sans" font-size="8.00">PROPERTY</text>
<polygon fill="palegoldenrod" stroke="palegoldenrod" points="478,-389 478,-401 545,-401 545,-389 478,-389"/>
<text text-anchor="start" x="480" y="-393.6" font-family="Bitstream Vera Sans" font-size="8.00">userB</text>
<polygon fill="palegoldenrod" stroke="palegoldenrod" points="545,-389 545,-401 592,-401 592,-389 545,-389"/>
<text text-anchor="start" x="547" y="-393.6" font-family="Bitstream Vera Sans" font-size="8.00">PROPERTY</text>
<polygon fill="palegoldenrod" stroke="palegoldenrod" points="478,-377 478,-389 545,-389 545,-377 478,-377"/>
<text text-anchor="start" x="480" y="-381.6" font-family="Bitstream Vera Sans" font-size="8.00">fund()</text>
<polygon fill="palegoldenrod" stroke="palegoldenrod" points="545,-377 545,-389 592,-389 592,-377 545,-377"/>
<text text-anchor="start" x="547" y="-381.6" font-family="Bitstream Vera Sans" font-size="8.00">METHOD</text>
</g>
<!-- GameRent2&#45;&gt;Game -->
<g id="edge8" class="edge"><title>GameRent2&#45;&gt;Game</title>
<path fill="none" stroke="black" d="M505.966,-373.168C502.727,-358.464 499.403,-343.371 496.099,-328.37"/>
<polygon fill="none" stroke="black" points="499.501,-327.544 493.932,-318.531 492.665,-329.05 499.501,-327.544"/>
</g>
<!-- GameUltimatum -->
<g id="node6" class="node"><title>GameUltimatum</title>
<polygon fill="lightyellow" stroke="lightyellow" points="626,-371.5 626,-640.5 740,-640.5 740,-371.5 626,-371.5"/>
<polygon fill="palegoldenrod" stroke="palegoldenrod" points="626,-623 626,-640 740,-640 740,-623 626,-623"/>
<text text-anchor="start" x="649" y="-630.1" font-family="Helvetica Bold" font-size="8.00">GameUltimatum</text>
<text text-anchor="start" x="628" y="-615.6" font-family="Bitstream Vera Sans" font-size="8.00">id</text>
<text text-anchor="start" x="695" y="-615.6" font-family="Bitstream Vera Sans" font-size="8.00">Integer</text>
<text text-anchor="start" x="628" y="-603.6" font-family="Bitstream Vera Sans" font-size="8.00">survey_id</text>
<text text-anchor="start" x="695" y="-603.6" font-family="Bitstream Vera Sans" font-size="8.00">Integer</text>
<text text-anchor="start" x="628" y="-591.6" font-family="Bitstream Vera Sans" font-size="8.00">userA_id</text>
<text text-anchor="start" x="695" y="-591.6" font-family="Bitstream Vera Sans" font-size="8.00">Integer</text>
<text text-anchor="start" x="628" y="-579.6" font-family="Bitstream Vera Sans" font-size="8.00">userB_id</text>
<text text-anchor="start" x="695" y="-579.6" font-family="Bitstream Vera Sans" font-size="8.00">Integer</text>
<text text-anchor="start" x="628" y="-567.6" font-family="Bitstream Vera Sans" font-size="8.00">answerA_id</text>
<text text-anchor="start" x="695" y="-567.6" font-family="Bitstream Vera Sans" font-size="8.00">Integer</text>
<text text-anchor="start" x="628" y="-555.6" font-family="Bitstream Vera Sans" font-size="8.00">answerB_id</text>
<text text-anchor="start" x="695" y="-555.6" font-family="Bitstream Vera Sans" font-size="8.00">Integer</text>
<text text-anchor="start" x="628" y="-543.6" font-family="Bitstream Vera Sans" font-size="8.00">prizeA</text>
<text text-anchor="start" x="695" y="-543.6" font-family="Bitstream Vera Sans" font-size="8.00">Boolean</text>
<text text-anchor="start" x="628" y="-531.6" font-family="Bitstream Vera Sans" font-size="8.00">prizeB</text>
<text text-anchor="start" x="695" y="-531.6" font-family="Bitstream Vera Sans" font-size="8.00">Boolean</text>
<text text-anchor="start" x="628" y="-519.6" font-family="Bitstream Vera Sans" font-size="8.00">repeatA</text>
<text text-anchor="start" x="695" y="-519.6" font-family="Bitstream Vera Sans" font-size="8.00">Boolean</text>
<text text-anchor="start" x="628" y="-507.6" font-family="Bitstream Vera Sans" font-size="8.00">repeatB</text>
<text text-anchor="start" x="695" y="-507.6" font-family="Bitstream Vera Sans" font-size="8.00">Boolean</text>
<text text-anchor="start" x="628" y="-495.6" font-family="Bitstream Vera Sans" font-size="8.00">moneyA</text>
<text text-anchor="start" x="695" y="-495.6" font-family="Bitstream Vera Sans" font-size="8.00">Float</text>
<text text-anchor="start" x="628" y="-483.6" font-family="Bitstream Vera Sans" font-size="8.00">moneyB</text>
<text text-anchor="start" x="695" y="-483.6" font-family="Bitstream Vera Sans" font-size="8.00">Float</text>
<text text-anchor="start" x="628" y="-471.6" font-family="Bitstream Vera Sans" font-size="8.00">is_real_money</text>
<text text-anchor="start" x="695" y="-471.6" font-family="Bitstream Vera Sans" font-size="8.00">Boolean</text>
<text text-anchor="start" x="628" y="-459.6" font-family="Bitstream Vera Sans" font-size="8.00">type</text>
<text text-anchor="start" x="695" y="-459.6" font-family="Bitstream Vera Sans" font-size="8.00">String</text>
<text text-anchor="start" x="628" y="-447.6" font-family="Bitstream Vera Sans" font-size="8.00">section</text>
<text text-anchor="start" x="695" y="-447.6" font-family="Bitstream Vera Sans" font-size="8.00">Integer</text>
<text text-anchor="start" x="628" y="-435.6" font-family="Bitstream Vera Sans" font-size="8.00">accepted</text>
<text text-anchor="start" x="695" y="-435.6" font-family="Bitstream Vera Sans" font-size="8.00">Boolean</text>
<polygon fill="palegoldenrod" stroke="palegoldenrod" points="626,-419 626,-431 693,-431 693,-419 626,-419"/>
<text text-anchor="start" x="628" y="-423.6" font-family="Bitstream Vera Sans" font-size="8.00">answerA</text>
<polygon fill="palegoldenrod" stroke="palegoldenrod" points="693,-419 693,-431 740,-431 740,-419 693,-419"/>
<text text-anchor="start" x="695" y="-423.6" font-family="Bitstream Vera Sans" font-size="8.00">PROPERTY</text>
<polygon fill="palegoldenrod" stroke="palegoldenrod" points="626,-407 626,-419 693,-419 693,-407 626,-407"/>
<text text-anchor="start" x="628" y="-411.6" font-family="Bitstream Vera Sans" font-size="8.00">answerB</text>
<polygon fill="palegoldenrod" stroke="palegoldenrod" points="693,-407 693,-419 740,-419 740,-407 693,-407"/>
<text text-anchor="start" x="695" y="-411.6" font-family="Bitstream Vera Sans" font-size="8.00">PROPERTY</text>
<polygon fill="palegoldenrod" stroke="palegoldenrod" points="626,-395 626,-407 693,-407 693,-395 626,-395"/>
<text text-anchor="start" x="628" y="-399.6" font-family="Bitstream Vera Sans" font-size="8.00">survey</text>
<polygon fill="palegoldenrod" stroke="palegoldenrod" points="693,-395 693,-407 740,-407 740,-395 693,-395"/>
<text text-anchor="start" x="695" y="-399.6" font-family="Bitstream Vera Sans" font-size="8.00">PROPERTY</text>
<polygon fill="palegoldenrod" stroke="palegoldenrod" points="626,-383 626,-395 693,-395 693,-383 626,-383"/>
<text text-anchor="start" x="628" y="-387.6" font-family="Bitstream Vera Sans" font-size="8.00">userA</text>
<polygon fill="palegoldenrod" stroke="palegoldenrod" points="693,-383 693,-395 740,-395 740,-383 693,-383"/>
<text text-anchor="start" x="695" y="-387.6" font-family="Bitstream Vera Sans" font-size="8.00">PROPERTY</text>
<polygon fill="palegoldenrod" stroke="palegoldenrod" points="626,-371 626,-383 693,-383 693,-371 626,-371"/>
<text text-anchor="start" x="628" y="-375.6" font-family="Bitstream Vera Sans" font-size="8.00">userB</text>
<polygon fill="palegoldenrod" stroke="palegoldenrod" points="693,-371 693,-383 740,-383 740,-371 693,-371"/>
<text text-anchor="start" x="695" y="-375.6" font-family="Bitstream Vera Sans" font-size="8.00">PROPERTY</text>
</g>
<!-- GameUltimatum&#45;&gt;Game -->
<g id="edge10" class="edge"><title>GameUltimatum&#45;&gt;Game</title>
<path fill="none" stroke="black" d="M617.988,-369.722C615.033,-364.705 612.033,-359.782 609,-355 586.383,-319.34 558.2,-282.469 532.515,-251.054"/>
<polygon fill="none" stroke="black" points="535.1,-248.687 526.043,-243.189 529.694,-253.135 535.1,-248.687"/>
</g>
<!-- GameDictador -->
<g id="node7" class="node"><title>GameDictador</title>
<polygon fill="lightyellow" stroke="lightyellow" points="774,-383.5 774,-628.5 888,-628.5 888,-383.5 774,-383.5"/>
<polygon fill="palegoldenrod" stroke="palegoldenrod" points="774,-611 774,-628 888,-628 888,-611 774,-611"/>
<text text-anchor="start" x="800.5" y="-618.1" font-family="Helvetica Bold" font-size="8.00">GameDictador</text>
<text text-anchor="start" x="776" y="-603.6" font-family="Bitstream Vera Sans" font-size="8.00">id</text>
<text text-anchor="start" x="843" y="-603.6" font-family="Bitstream Vera Sans" font-size="8.00">Integer</text>
<text text-anchor="start" x="776" y="-591.6" font-family="Bitstream Vera Sans" font-size="8.00">survey_id</text>
<text text-anchor="start" x="843" y="-591.6" font-family="Bitstream Vera Sans" font-size="8.00">Integer</text>
<text text-anchor="start" x="776" y="-579.6" font-family="Bitstream Vera Sans" font-size="8.00">userA_id</text>
<text text-anchor="start" x="843" y="-579.6" font-family="Bitstream Vera Sans" font-size="8.00">Integer</text>
<text text-anchor="start" x="776" y="-567.6" font-family="Bitstream Vera Sans" font-size="8.00">userB_id</text>
<text text-anchor="start" x="843" y="-567.6" font-family="Bitstream Vera Sans" font-size="8.00">Integer</text>
<text text-anchor="start" x="776" y="-555.6" font-family="Bitstream Vera Sans" font-size="8.00">answerA_id</text>
<text text-anchor="start" x="843" y="-555.6" font-family="Bitstream Vera Sans" font-size="8.00">Integer</text>
<text text-anchor="start" x="776" y="-543.6" font-family="Bitstream Vera Sans" font-size="8.00">answerB_id</text>
<text text-anchor="start" x="843" y="-543.6" font-family="Bitstream Vera Sans" font-size="8.00">Integer</text>
<text text-anchor="start" x="776" y="-531.6" font-family="Bitstream Vera Sans" font-size="8.00">prizeA</text>
<text text-anchor="start" x="843" y="-531.6" font-family="Bitstream Vera Sans" font-size="8.00">Boolean</text>
<text text-anchor="start" x="776" y="-519.6" font-family="Bitstream Vera Sans" font-size="8.00">prizeB</text>
<text text-anchor="start" x="843" y="-519.6" font-family="Bitstream Vera Sans" font-size="8.00">Boolean</text>
<text text-anchor="start" x="776" y="-507.6" font-family="Bitstream Vera Sans" font-size="8.00">repeatA</text>
<text text-anchor="start" x="843" y="-507.6" font-family="Bitstream Vera Sans" font-size="8.00">Boolean</text>
<text text-anchor="start" x="776" y="-495.6" font-family="Bitstream Vera Sans" font-size="8.00">repeatB</text>
<text text-anchor="start" x="843" y="-495.6" font-family="Bitstream Vera Sans" font-size="8.00">Boolean</text>
<text text-anchor="start" x="776" y="-483.6" font-family="Bitstream Vera Sans" font-size="8.00">moneyA</text>
<text text-anchor="start" x="843" y="-483.6" font-family="Bitstream Vera Sans" font-size="8.00">Float</text>
<text text-anchor="start" x="776" y="-471.6" font-family="Bitstream Vera Sans" font-size="8.00">moneyB</text>
<text text-anchor="start" x="843" y="-471.6" font-family="Bitstream Vera Sans" font-size="8.00">Float</text>
<text text-anchor="start" x="776" y="-459.6" font-family="Bitstream Vera Sans" font-size="8.00">is_real_money</text>
<text text-anchor="start" x="843" y="-459.6" font-family="Bitstream Vera Sans" font-size="8.00">Boolean</text>
<text text-anchor="start" x="776" y="-447.6" font-family="Bitstream Vera Sans" font-size="8.00">type</text>
<text text-anchor="start" x="843" y="-447.6" font-family="Bitstream Vera Sans" font-size="8.00">String</text>
<polygon fill="palegoldenrod" stroke="palegoldenrod" points="774,-431 774,-443 841,-443 841,-431 774,-431"/>
<text text-anchor="start" x="776" y="-435.6" font-family="Bitstream Vera Sans" font-size="8.00">answerA</text>
<polygon fill="palegoldenrod" stroke="palegoldenrod" points="841,-431 841,-443 888,-443 888,-431 841,-431"/>
<text text-anchor="start" x="843" y="-435.6" font-family="Bitstream Vera Sans" font-size="8.00">PROPERTY</text>
<polygon fill="palegoldenrod" stroke="palegoldenrod" points="774,-419 774,-431 841,-431 841,-419 774,-419"/>
<text text-anchor="start" x="776" y="-423.6" font-family="Bitstream Vera Sans" font-size="8.00">answerB</text>
<polygon fill="palegoldenrod" stroke="palegoldenrod" points="841,-419 841,-431 888,-431 888,-419 841,-419"/>
<text text-anchor="start" x="843" y="-423.6" font-family="Bitstream Vera Sans" font-size="8.00">PROPERTY</text>
<polygon fill="palegoldenrod" stroke="palegoldenrod" points="774,-407 774,-419 841,-419 841,-407 774,-407"/>
<text text-anchor="start" x="776" y="-411.6" font-family="Bitstream Vera Sans" font-size="8.00">survey</text>
<polygon fill="palegoldenrod" stroke="palegoldenrod" points="841,-407 841,-419 888,-419 888,-407 841,-407"/>
<text text-anchor="start" x="843" y="-411.6" font-family="Bitstream Vera Sans" font-size="8.00">PROPERTY</text>
<polygon fill="palegoldenrod" stroke="palegoldenrod" points="774,-395 774,-407 841,-407 841,-395 774,-395"/>
<text text-anchor="start" x="776" y="-399.6" font-family="Bitstream Vera Sans" font-size="8.00">userA</text>
<polygon fill="palegoldenrod" stroke="palegoldenrod" points="841,-395 841,-407 888,-407 888,-395 841,-395"/>
<text text-anchor="start" x="843" y="-399.6" font-family="Bitstream Vera Sans" font-size="8.00">PROPERTY</text>
<polygon fill="palegoldenrod" stroke="palegoldenrod" points="774,-383 774,-395 841,-395 841,-383 774,-383"/>
<text text-anchor="start" x="776" y="-387.6" font-family="Bitstream Vera Sans" font-size="8.00">userB</text>
<polygon fill="palegoldenrod" stroke="palegoldenrod" points="841,-383 841,-395 888,-395 888,-383 841,-383"/>
<text text-anchor="start" x="843" y="-387.6" font-family="Bitstream Vera Sans" font-size="8.00">PROPERTY</text>
</g>
<!-- GameDictador&#45;&gt;Game -->
<g id="edge12" class="edge"><title>GameDictador&#45;&gt;Game</title>
<path fill="none" stroke="black" d="M775.742,-379.144C769.957,-370.596 763.711,-362.438 757,-355 694.709,-285.957 600.953,-232.933 535.709,-201.485"/>
<polygon fill="none" stroke="black" points="536.83,-198.142 526.296,-197.002 533.82,-204.462 536.83,-198.142"/>
</g>
</g>
</svg>
