<?xml version="1.0" encoding="UTF-8" standalone="no"?>
<!DOCTYPE svg PUBLIC "-//W3C//DTD SVG 1.1//EN"
 "http://www.w3.org/Graphics/SVG/1.1/DTD/svg11.dtd">
<!-- Generated by graphviz version 2.28.0 (20130927.1109)
 -->
<!-- Title: G Pages: 1 -->
<svg width="673pt" height="617pt"
 viewBox="0.00 0.00 673.00 617.00" xmlns="http://www.w3.org/2000/svg" xmlns:xlink="http://www.w3.org/1999/xlink">
<g id="graph1" class="graph" transform="scale(1 1) rotate(0) translate(4 613)">
<title>G</title>
<polygon fill="white" stroke="white" points="-4,5 -4,-613 670,-613 670,5 -4,5"/>
<text text-anchor="middle" x="332.5" y="-6.6" font-family="Bitstream Vera Sans" font-size="8.00">generated by sadisplay v0.3.8dev</text>
<!-- Question -->
<g id="node1" class="node"><title>Question</title>
<polygon fill="lightyellow" stroke="lightyellow" points="263.5,-21.5 263.5,-290.5 400.5,-290.5 400.5,-21.5 263.5,-21.5"/>
<polygon fill="palegoldenrod" stroke="palegoldenrod" points="264,-273 264,-290 401,-290 401,-273 264,-273"/>
<text text-anchor="start" x="313" y="-280.1" font-family="Helvetica Bold" font-size="8.00">Question</text>
<text text-anchor="start" x="266" y="-265.6" font-family="Bitstream Vera Sans" font-size="8.00">id</text>
<text text-anchor="start" x="356" y="-265.6" font-family="Bitstream Vera Sans" font-size="8.00">Integer</text>
<text text-anchor="start" x="266" y="-253.6" font-family="Bitstream Vera Sans" font-size="8.00">text</text>
<text text-anchor="start" x="356" y="-253.6" font-family="Bitstream Vera Sans" font-size="8.00">String</text>
<text text-anchor="start" x="266" y="-241.6" font-family="Bitstream Vera Sans" font-size="8.00">position</text>
<text text-anchor="start" x="356" y="-241.6" font-family="Bitstream Vera Sans" font-size="8.00">Integer</text>
<text text-anchor="start" x="266" y="-229.6" font-family="Bitstream Vera Sans" font-size="8.00">required</text>
<text text-anchor="start" x="356" y="-229.6" font-family="Bitstream Vera Sans" font-size="8.00">Boolean</text>
<text text-anchor="start" x="266" y="-217.6" font-family="Bitstream Vera Sans" font-size="8.00">container</text>
<text text-anchor="start" x="356" y="-217.6" font-family="Bitstream Vera Sans" font-size="8.00">PickleType</text>
<text text-anchor="start" x="266" y="-205.6" font-family="Bitstream Vera Sans" font-size="8.00">expectedAnswer</text>
<text text-anchor="start" x="356" y="-205.6" font-family="Bitstream Vera Sans" font-size="8.00">String</text>
<text text-anchor="start" x="266" y="-193.6" font-family="Bitstream Vera Sans" font-size="8.00">maxNumberAttempt</text>
<text text-anchor="start" x="356" y="-193.6" font-family="Bitstream Vera Sans" font-size="8.00">Integer</text>
<text text-anchor="start" x="266" y="-181.6" font-family="Bitstream Vera Sans" font-size="8.00">decision</text>
<text text-anchor="start" x="356" y="-181.6" font-family="Bitstream Vera Sans" font-size="8.00">Enum</text>
<text text-anchor="start" x="266" y="-169.6" font-family="Bitstream Vera Sans" font-size="8.00">is_real_money</text>
<text text-anchor="start" x="356" y="-169.6" font-family="Bitstream Vera Sans" font-size="8.00">Boolean</text>
<text text-anchor="start" x="266" y="-157.6" font-family="Bitstream Vera Sans" font-size="8.00">type</text>
<text text-anchor="start" x="356" y="-157.6" font-family="Bitstream Vera Sans" font-size="8.00">String</text>
<text text-anchor="start" x="266" y="-145.6" font-family="Bitstream Vera Sans" font-size="8.00">section_id</text>
<text text-anchor="start" x="356" y="-145.6" font-family="Bitstream Vera Sans" font-size="8.00">Integer</text>
<polygon fill="palegoldenrod" stroke="palegoldenrod" points="264,-129 264,-141 354,-141 354,-129 264,-129"/>
<text text-anchor="start" x="266" y="-133.6" font-family="Bitstream Vera Sans" font-size="8.00">answers</text>
<polygon fill="palegoldenrod" stroke="palegoldenrod" points="354,-129 354,-141 401,-141 401,-129 354,-129"/>
<text text-anchor="start" x="356" y="-133.6" font-family="Bitstream Vera Sans" font-size="8.00">PROPERTY</text>
<polygon fill="palegoldenrod" stroke="palegoldenrod" points="264,-117 264,-129 354,-129 354,-117 264,-117"/>
<text text-anchor="start" x="266" y="-121.6" font-family="Bitstream Vera Sans" font-size="8.00">parent</text>
<polygon fill="palegoldenrod" stroke="palegoldenrod" points="354,-117 354,-129 401,-129 401,-117 354,-117"/>
<text text-anchor="start" x="356" y="-121.6" font-family="Bitstream Vera Sans" font-size="8.00">PROPERTY</text>
<polygon fill="palegoldenrod" stroke="palegoldenrod" points="264,-105 264,-117 354,-117 354,-105 264,-105"/>
<text text-anchor="start" x="266" y="-109.6" font-family="Bitstream Vera Sans" font-size="8.00">section</text>
<polygon fill="palegoldenrod" stroke="palegoldenrod" points="354,-105 354,-117 401,-117 401,-105 354,-105"/>
<text text-anchor="start" x="356" y="-109.6" font-family="Bitstream Vera Sans" font-size="8.00">PROPERTY</text>
<polygon fill="palegoldenrod" stroke="palegoldenrod" points="264,-93 264,-105 354,-105 354,-93 264,-93"/>
<text text-anchor="start" x="266" y="-97.6" font-family="Bitstream Vera Sans" font-size="8.00">subquestions</text>
<polygon fill="palegoldenrod" stroke="palegoldenrod" points="354,-93 354,-105 401,-105 401,-93 354,-93"/>
<text text-anchor="start" x="356" y="-97.6" font-family="Bitstream Vera Sans" font-size="8.00">PROPERTY</text>
<polygon fill="palegoldenrod" stroke="palegoldenrod" points="264,-81 264,-93 354,-93 354,-81 264,-81"/>
<text text-anchor="start" x="266" y="-85.6" font-family="Bitstream Vera Sans" font-size="8.00">duplicate()</text>
<polygon fill="palegoldenrod" stroke="palegoldenrod" points="354,-81 354,-93 401,-93 401,-81 354,-81"/>
<text text-anchor="start" x="356" y="-85.6" font-family="Bitstream Vera Sans" font-size="8.00">METHOD</text>
<polygon fill="palegoldenrod" stroke="palegoldenrod" points="264,-69 264,-81 354,-81 354,-69 264,-69"/>
<text text-anchor="start" x="266" y="-73.6" font-family="Bitstream Vera Sans" font-size="8.00">from_xml()</text>
<polygon fill="palegoldenrod" stroke="palegoldenrod" points="354,-69 354,-81 401,-81 401,-69 354,-69"/>
<text text-anchor="start" x="356" y="-73.6" font-family="Bitstream Vera Sans" font-size="8.00">METHOD</text>
<polygon fill="palegoldenrod" stroke="palegoldenrod" points="264,-57 264,-69 354,-69 354,-57 264,-57"/>
<text text-anchor="start" x="266" y="-61.6" font-family="Bitstream Vera Sans" font-size="8.00">isExpectedAnswer()</text>
<polygon fill="palegoldenrod" stroke="palegoldenrod" points="354,-57 354,-69 401,-69 401,-57 354,-57"/>
<text text-anchor="start" x="356" y="-61.6" font-family="Bitstream Vera Sans" font-size="8.00">METHOD</text>
<polygon fill="palegoldenrod" stroke="palegoldenrod" points="264,-45 264,-57 354,-57 354,-45 264,-45"/>
<text text-anchor="start" x="266" y="-49.6" font-family="Bitstream Vera Sans" font-size="8.00">isSubquestion()</text>
<polygon fill="palegoldenrod" stroke="palegoldenrod" points="354,-45 354,-57 401,-57 401,-45 354,-45"/>
<text text-anchor="start" x="356" y="-49.6" font-family="Bitstream Vera Sans" font-size="8.00">METHOD</text>
<polygon fill="palegoldenrod" stroke="palegoldenrod" points="264,-33 264,-45 354,-45 354,-33 264,-33"/>
<text text-anchor="start" x="266" y="-37.6" font-family="Bitstream Vera Sans" font-size="8.00">last_position()</text>
<polygon fill="palegoldenrod" stroke="palegoldenrod" points="354,-33 354,-45 401,-45 401,-33 354,-33"/>
<text text-anchor="start" x="356" y="-37.6" font-family="Bitstream Vera Sans" font-size="8.00">METHOD</text>
<polygon fill="palegoldenrod" stroke="palegoldenrod" points="264,-21 264,-33 354,-33 354,-21 264,-21"/>
<text text-anchor="start" x="266" y="-25.6" font-family="Bitstream Vera Sans" font-size="8.00">to_xml()</text>
<polygon fill="palegoldenrod" stroke="palegoldenrod" points="354,-21 354,-33 401,-33 401,-21 354,-21"/>
<text text-anchor="start" x="356" y="-25.6" font-family="Bitstream Vera Sans" font-size="8.00">METHOD</text>
</g>
<!-- QuestionText -->
<g id="node2" class="node"><title>QuestionText</title>
<polygon fill="lightyellow" stroke="lightyellow" points="7.5,-347.5 7.5,-592.5 144.5,-592.5 144.5,-347.5 7.5,-347.5"/>
<polygon fill="palegoldenrod" stroke="palegoldenrod" points="8,-575 8,-592 145,-592 145,-575 8,-575"/>
<text text-anchor="start" x="47.5" y="-582.1" font-family="Helvetica Bold" font-size="8.00">QuestionText</text>
<text text-anchor="start" x="10" y="-567.6" font-family="Bitstream Vera Sans" font-size="8.00">id</text>
<text text-anchor="start" x="100" y="-567.6" font-family="Bitstream Vera Sans" font-size="8.00">Integer</text>
<text text-anchor="start" x="10" y="-555.6" font-family="Bitstream Vera Sans" font-size="8.00">text</text>
<text text-anchor="start" x="100" y="-555.6" font-family="Bitstream Vera Sans" font-size="8.00">String</text>
<text text-anchor="start" x="10" y="-543.6" font-family="Bitstream Vera Sans" font-size="8.00">position</text>
<text text-anchor="start" x="100" y="-543.6" font-family="Bitstream Vera Sans" font-size="8.00">Integer</text>
<text text-anchor="start" x="10" y="-531.6" font-family="Bitstream Vera Sans" font-size="8.00">required</text>
<text text-anchor="start" x="100" y="-531.6" font-family="Bitstream Vera Sans" font-size="8.00">Boolean</text>
<text text-anchor="start" x="10" y="-519.6" font-family="Bitstream Vera Sans" font-size="8.00">container</text>
<text text-anchor="start" x="100" y="-519.6" font-family="Bitstream Vera Sans" font-size="8.00">PickleType</text>
<text text-anchor="start" x="10" y="-507.6" font-family="Bitstream Vera Sans" font-size="8.00">expectedAnswer</text>
<text text-anchor="start" x="100" y="-507.6" font-family="Bitstream Vera Sans" font-size="8.00">String</text>
<text text-anchor="start" x="10" y="-495.6" font-family="Bitstream Vera Sans" font-size="8.00">maxNumberAttempt</text>
<text text-anchor="start" x="100" y="-495.6" font-family="Bitstream Vera Sans" font-size="8.00">Integer</text>
<text text-anchor="start" x="10" y="-483.6" font-family="Bitstream Vera Sans" font-size="8.00">decision</text>
<text text-anchor="start" x="100" y="-483.6" font-family="Bitstream Vera Sans" font-size="8.00">Enum</text>
<text text-anchor="start" x="10" y="-471.6" font-family="Bitstream Vera Sans" font-size="8.00">is_real_money</text>
<text text-anchor="start" x="100" y="-471.6" font-family="Bitstream Vera Sans" font-size="8.00">Boolean</text>
<text text-anchor="start" x="10" y="-459.6" font-family="Bitstream Vera Sans" font-size="8.00">type</text>
<text text-anchor="start" x="100" y="-459.6" font-family="Bitstream Vera Sans" font-size="8.00">String</text>
<text text-anchor="start" x="10" y="-447.6" font-family="Bitstream Vera Sans" font-size="8.00">section_id</text>
<text text-anchor="start" x="100" y="-447.6" font-family="Bitstream Vera Sans" font-size="8.00">Integer</text>
<text text-anchor="start" x="10" y="-435.6" font-family="Bitstream Vera Sans" font-size="8.00">isNumber</text>
<text text-anchor="start" x="100" y="-435.6" font-family="Bitstream Vera Sans" font-size="8.00">Boolean</text>
<text text-anchor="start" x="10" y="-423.6" font-family="Bitstream Vera Sans" font-size="8.00">isNumberFloat</text>
<text text-anchor="start" x="100" y="-423.6" font-family="Bitstream Vera Sans" font-size="8.00">Boolean</text>
<text text-anchor="start" x="10" y="-411.6" font-family="Bitstream Vera Sans" font-size="8.00">regularExpression</text>
<text text-anchor="start" x="100" y="-411.6" font-family="Bitstream Vera Sans" font-size="8.00">String</text>
<text text-anchor="start" x="10" y="-399.6" font-family="Bitstream Vera Sans" font-size="8.00">errorMessage</text>
<text text-anchor="start" x="100" y="-399.6" font-family="Bitstream Vera Sans" font-size="8.00">String</text>
<polygon fill="palegoldenrod" stroke="palegoldenrod" points="8,-383 8,-395 98,-395 98,-383 8,-383"/>
<text text-anchor="start" x="10" y="-387.6" font-family="Bitstream Vera Sans" font-size="8.00">answers</text>
<polygon fill="palegoldenrod" stroke="palegoldenrod" points="98,-383 98,-395 145,-395 145,-383 98,-383"/>
<text text-anchor="start" x="100" y="-387.6" font-family="Bitstream Vera Sans" font-size="8.00">PROPERTY</text>
<polygon fill="palegoldenrod" stroke="palegoldenrod" points="8,-371 8,-383 98,-383 98,-371 8,-371"/>
<text text-anchor="start" x="10" y="-375.6" font-family="Bitstream Vera Sans" font-size="8.00">parent</text>
<polygon fill="palegoldenrod" stroke="palegoldenrod" points="98,-371 98,-383 145,-383 145,-371 98,-371"/>
<text text-anchor="start" x="100" y="-375.6" font-family="Bitstream Vera Sans" font-size="8.00">PROPERTY</text>
<polygon fill="palegoldenrod" stroke="palegoldenrod" points="8,-359 8,-371 98,-371 98,-359 8,-359"/>
<text text-anchor="start" x="10" y="-363.6" font-family="Bitstream Vera Sans" font-size="8.00">section</text>
<polygon fill="palegoldenrod" stroke="palegoldenrod" points="98,-359 98,-371 145,-371 145,-359 98,-359"/>
<text text-anchor="start" x="100" y="-363.6" font-family="Bitstream Vera Sans" font-size="8.00">PROPERTY</text>
<polygon fill="palegoldenrod" stroke="palegoldenrod" points="8,-347 8,-359 98,-359 98,-347 8,-347"/>
<text text-anchor="start" x="10" y="-351.6" font-family="Bitstream Vera Sans" font-size="8.00">subquestions</text>
<polygon fill="palegoldenrod" stroke="palegoldenrod" points="98,-347 98,-359 145,-359 145,-347 98,-347"/>
<text text-anchor="start" x="100" y="-351.6" font-family="Bitstream Vera Sans" font-size="8.00">PROPERTY</text>
</g>
<!-- QuestionText&#45;&gt;Question -->
<g id="edge2" class="edge"><title>QuestionText&#45;&gt;Question</title>
<path fill="none" stroke="black" d="M151.701,-343.29C154.773,-339.097 157.877,-334.988 161,-331 187.121,-297.647 218.934,-263.794 248.005,-234.924"/>
<polygon fill="none" stroke="black" points="250.672,-237.21 255.332,-227.695 245.755,-232.227 250.672,-237.21"/>
</g>
<!-- QuestionYN -->
<g id="node3" class="node"><title>QuestionYN</title>
<polygon fill="lightyellow" stroke="lightyellow" points="178.5,-371.5 178.5,-568.5 315.5,-568.5 315.5,-371.5 178.5,-371.5"/>
<polygon fill="palegoldenrod" stroke="palegoldenrod" points="179,-551 179,-568 316,-568 316,-551 179,-551"/>
<text text-anchor="start" x="222.5" y="-558.1" font-family="Helvetica Bold" font-size="8.00">QuestionYN</text>
<text text-anchor="start" x="181" y="-543.6" font-family="Bitstream Vera Sans" font-size="8.00">id</text>
<text text-anchor="start" x="271" y="-543.6" font-family="Bitstream Vera Sans" font-size="8.00">Integer</text>
<text text-anchor="start" x="181" y="-531.6" font-family="Bitstream Vera Sans" font-size="8.00">text</text>
<text text-anchor="start" x="271" y="-531.6" font-family="Bitstream Vera Sans" font-size="8.00">String</text>
<text text-anchor="start" x="181" y="-519.6" font-family="Bitstream Vera Sans" font-size="8.00">position</text>
<text text-anchor="start" x="271" y="-519.6" font-family="Bitstream Vera Sans" font-size="8.00">Integer</text>
<text text-anchor="start" x="181" y="-507.6" font-family="Bitstream Vera Sans" font-size="8.00">required</text>
<text text-anchor="start" x="271" y="-507.6" font-family="Bitstream Vera Sans" font-size="8.00">Boolean</text>
<text text-anchor="start" x="181" y="-495.6" font-family="Bitstream Vera Sans" font-size="8.00">container</text>
<text text-anchor="start" x="271" y="-495.6" font-family="Bitstream Vera Sans" font-size="8.00">PickleType</text>
<text text-anchor="start" x="181" y="-483.6" font-family="Bitstream Vera Sans" font-size="8.00">expectedAnswer</text>
<text text-anchor="start" x="271" y="-483.6" font-family="Bitstream Vera Sans" font-size="8.00">String</text>
<text text-anchor="start" x="181" y="-471.6" font-family="Bitstream Vera Sans" font-size="8.00">maxNumberAttempt</text>
<text text-anchor="start" x="271" y="-471.6" font-family="Bitstream Vera Sans" font-size="8.00">Integer</text>
<text text-anchor="start" x="181" y="-459.6" font-family="Bitstream Vera Sans" font-size="8.00">decision</text>
<text text-anchor="start" x="271" y="-459.6" font-family="Bitstream Vera Sans" font-size="8.00">Enum</text>
<text text-anchor="start" x="181" y="-447.6" font-family="Bitstream Vera Sans" font-size="8.00">is_real_money</text>
<text text-anchor="start" x="271" y="-447.6" font-family="Bitstream Vera Sans" font-size="8.00">Boolean</text>
<text text-anchor="start" x="181" y="-435.6" font-family="Bitstream Vera Sans" font-size="8.00">type</text>
<text text-anchor="start" x="271" y="-435.6" font-family="Bitstream Vera Sans" font-size="8.00">String</text>
<text text-anchor="start" x="181" y="-423.6" font-family="Bitstream Vera Sans" font-size="8.00">section_id</text>
<text text-anchor="start" x="271" y="-423.6" font-family="Bitstream Vera Sans" font-size="8.00">Integer</text>
<polygon fill="palegoldenrod" stroke="palegoldenrod" points="179,-407 179,-419 269,-419 269,-407 179,-407"/>
<text text-anchor="start" x="181" y="-411.6" font-family="Bitstream Vera Sans" font-size="8.00">answers</text>
<polygon fill="palegoldenrod" stroke="palegoldenrod" points="269,-407 269,-419 316,-419 316,-407 269,-407"/>
<text text-anchor="start" x="271" y="-411.6" font-family="Bitstream Vera Sans" font-size="8.00">PROPERTY</text>
<polygon fill="palegoldenrod" stroke="palegoldenrod" points="179,-395 179,-407 269,-407 269,-395 179,-395"/>
<text text-anchor="start" x="181" y="-399.6" font-family="Bitstream Vera Sans" font-size="8.00">parent</text>
<polygon fill="palegoldenrod" stroke="palegoldenrod" points="269,-395 269,-407 316,-407 316,-395 269,-395"/>
<text text-anchor="start" x="271" y="-399.6" font-family="Bitstream Vera Sans" font-size="8.00">PROPERTY</text>
<polygon fill="palegoldenrod" stroke="palegoldenrod" points="179,-383 179,-395 269,-395 269,-383 179,-383"/>
<text text-anchor="start" x="181" y="-387.6" font-family="Bitstream Vera Sans" font-size="8.00">section</text>
<polygon fill="palegoldenrod" stroke="palegoldenrod" points="269,-383 269,-395 316,-395 316,-383 269,-383"/>
<text text-anchor="start" x="271" y="-387.6" font-family="Bitstream Vera Sans" font-size="8.00">PROPERTY</text>
<polygon fill="palegoldenrod" stroke="palegoldenrod" points="179,-371 179,-383 269,-383 269,-371 179,-371"/>
<text text-anchor="start" x="181" y="-375.6" font-family="Bitstream Vera Sans" font-size="8.00">subquestions</text>
<polygon fill="palegoldenrod" stroke="palegoldenrod" points="269,-371 269,-383 316,-383 316,-371 269,-371"/>
<text text-anchor="start" x="271" y="-375.6" font-family="Bitstream Vera Sans" font-size="8.00">PROPERTY</text>
</g>
<!-- QuestionYN&#45;&gt;Question -->
<g id="edge4" class="edge"><title>QuestionYN&#45;&gt;Question</title>
<path fill="none" stroke="black" d="M274.715,-367.271C280.197,-347.147 286.055,-325.646 291.854,-304.36"/>
<polygon fill="none" stroke="black" points="295.261,-305.17 294.513,-294.601 288.507,-303.329 295.261,-305.17"/>
</g>
<!-- QuestionChoice -->
<g id="node4" class="node"><title>QuestionChoice</title>
<polygon fill="lightyellow" stroke="lightyellow" points="349.5,-335.5 349.5,-604.5 486.5,-604.5 486.5,-335.5 349.5,-335.5"/>
<polygon fill="palegoldenrod" stroke="palegoldenrod" points="350,-587 350,-604 487,-604 487,-587 350,-587"/>
<text text-anchor="start" x="384.5" y="-594.1" font-family="Helvetica Bold" font-size="8.00">QuestionChoice</text>
<text text-anchor="start" x="352" y="-579.6" font-family="Bitstream Vera Sans" font-size="8.00">id</text>
<text text-anchor="start" x="442" y="-579.6" font-family="Bitstream Vera Sans" font-size="8.00">Integer</text>
<text text-anchor="start" x="352" y="-567.6" font-family="Bitstream Vera Sans" font-size="8.00">text</text>
<text text-anchor="start" x="442" y="-567.6" font-family="Bitstream Vera Sans" font-size="8.00">String</text>
<text text-anchor="start" x="352" y="-555.6" font-family="Bitstream Vera Sans" font-size="8.00">position</text>
<text text-anchor="start" x="442" y="-555.6" font-family="Bitstream Vera Sans" font-size="8.00">Integer</text>
<text text-anchor="start" x="352" y="-543.6" font-family="Bitstream Vera Sans" font-size="8.00">required</text>
<text text-anchor="start" x="442" y="-543.6" font-family="Bitstream Vera Sans" font-size="8.00">Boolean</text>
<text text-anchor="start" x="352" y="-531.6" font-family="Bitstream Vera Sans" font-size="8.00">container</text>
<text text-anchor="start" x="442" y="-531.6" font-family="Bitstream Vera Sans" font-size="8.00">PickleType</text>
<text text-anchor="start" x="352" y="-519.6" font-family="Bitstream Vera Sans" font-size="8.00">expectedAnswer</text>
<text text-anchor="start" x="442" y="-519.6" font-family="Bitstream Vera Sans" font-size="8.00">String</text>
<text text-anchor="start" x="352" y="-507.6" font-family="Bitstream Vera Sans" font-size="8.00">maxNumberAttempt</text>
<text text-anchor="start" x="442" y="-507.6" font-family="Bitstream Vera Sans" font-size="8.00">Integer</text>
<text text-anchor="start" x="352" y="-495.6" font-family="Bitstream Vera Sans" font-size="8.00">decision</text>
<text text-anchor="start" x="442" y="-495.6" font-family="Bitstream Vera Sans" font-size="8.00">Enum</text>
<text text-anchor="start" x="352" y="-483.6" font-family="Bitstream Vera Sans" font-size="8.00">is_real_money</text>
<text text-anchor="start" x="442" y="-483.6" font-family="Bitstream Vera Sans" font-size="8.00">Boolean</text>
<text text-anchor="start" x="352" y="-471.6" font-family="Bitstream Vera Sans" font-size="8.00">type</text>
<text text-anchor="start" x="442" y="-471.6" font-family="Bitstream Vera Sans" font-size="8.00">String</text>
<text text-anchor="start" x="352" y="-459.6" font-family="Bitstream Vera Sans" font-size="8.00">section_id</text>
<text text-anchor="start" x="442" y="-459.6" font-family="Bitstream Vera Sans" font-size="8.00">Integer</text>
<text text-anchor="start" x="352" y="-447.6" font-family="Bitstream Vera Sans" font-size="8.00">range_min</text>
<text text-anchor="start" x="442" y="-447.6" font-family="Bitstream Vera Sans" font-size="8.00">Integer</text>
<text text-anchor="start" x="352" y="-435.6" font-family="Bitstream Vera Sans" font-size="8.00">range_max</text>
<text text-anchor="start" x="442" y="-435.6" font-family="Bitstream Vera Sans" font-size="8.00">Integer</text>
<text text-anchor="start" x="352" y="-423.6" font-family="Bitstream Vera Sans" font-size="8.00">range_step</text>
<text text-anchor="start" x="442" y="-423.6" font-family="Bitstream Vera Sans" font-size="8.00">Float</text>
<text text-anchor="start" x="352" y="-411.6" font-family="Bitstream Vera Sans" font-size="8.00">render</text>
<text text-anchor="start" x="442" y="-411.6" font-family="Bitstream Vera Sans" font-size="8.00">Enum</text>
<text text-anchor="start" x="352" y="-399.6" font-family="Bitstream Vera Sans" font-size="8.00">choices</text>
<text text-anchor="start" x="442" y="-399.6" font-family="Bitstream Vera Sans" font-size="8.00">PickleType</text>
<polygon fill="palegoldenrod" stroke="palegoldenrod" points="350,-383 350,-395 440,-395 440,-383 350,-383"/>
<text text-anchor="start" x="352" y="-387.6" font-family="Bitstream Vera Sans" font-size="8.00">answers</text>
<polygon fill="palegoldenrod" stroke="palegoldenrod" points="440,-383 440,-395 487,-395 487,-383 440,-383"/>
<text text-anchor="start" x="442" y="-387.6" font-family="Bitstream Vera Sans" font-size="8.00">PROPERTY</text>
<polygon fill="palegoldenrod" stroke="palegoldenrod" points="350,-371 350,-383 440,-383 440,-371 350,-371"/>
<text text-anchor="start" x="352" y="-375.6" font-family="Bitstream Vera Sans" font-size="8.00">parent</text>
<polygon fill="palegoldenrod" stroke="palegoldenrod" points="440,-371 440,-383 487,-383 487,-371 440,-371"/>
<text text-anchor="start" x="442" y="-375.6" font-family="Bitstream Vera Sans" font-size="8.00">PROPERTY</text>
<polygon fill="palegoldenrod" stroke="palegoldenrod" points="350,-359 350,-371 440,-371 440,-359 350,-359"/>
<text text-anchor="start" x="352" y="-363.6" font-family="Bitstream Vera Sans" font-size="8.00">section</text>
<polygon fill="palegoldenrod" stroke="palegoldenrod" points="440,-359 440,-371 487,-371 487,-359 440,-359"/>
<text text-anchor="start" x="442" y="-363.6" font-family="Bitstream Vera Sans" font-size="8.00">PROPERTY</text>
<polygon fill="palegoldenrod" stroke="palegoldenrod" points="350,-347 350,-359 440,-359 440,-347 350,-347"/>
<text text-anchor="start" x="352" y="-351.6" font-family="Bitstream Vera Sans" font-size="8.00">subquestions</text>
<polygon fill="palegoldenrod" stroke="palegoldenrod" points="440,-347 440,-359 487,-359 487,-347 440,-347"/>
<text text-anchor="start" x="442" y="-351.6" font-family="Bitstream Vera Sans" font-size="8.00">PROPERTY</text>
<polygon fill="palegoldenrod" stroke="palegoldenrod" points="350,-335 350,-347 440,-347 440,-335 350,-335"/>
<text text-anchor="start" x="352" y="-339.6" font-family="Bitstream Vera Sans" font-size="8.00">number()</text>
<polygon fill="palegoldenrod" stroke="palegoldenrod" points="440,-335 440,-347 487,-347 487,-335 440,-335"/>
<text text-anchor="start" x="442" y="-339.6" font-family="Bitstream Vera Sans" font-size="8.00">METHOD</text>
</g>
<!-- QuestionChoice&#45;&gt;Question -->
<g id="edge6" class="edge"><title>QuestionChoice&#45;&gt;Question</title>
<path fill="none" stroke="black" d="M380.029,-331.244C377.584,-322.373 375.116,-313.422 372.659,-304.508"/>
<polygon fill="none" stroke="black" points="376.03,-303.566 369.999,-294.855 369.282,-305.426 376.03,-303.566"/>
</g>
<!-- QuestionLikertScale -->
<g id="node5" class="node"><title>QuestionLikertScale</title>
<polygon fill="lightyellow" stroke="lightyellow" points="520.5,-347.5 520.5,-592.5 657.5,-592.5 657.5,-347.5 520.5,-347.5"/>
<polygon fill="palegoldenrod" stroke="palegoldenrod" points="521,-575 521,-592 658,-592 658,-575 521,-575"/>
<text text-anchor="start" x="546.5" y="-582.1" font-family="Helvetica Bold" font-size="8.00">QuestionLikertScale</text>
<text text-anchor="start" x="523" y="-567.6" font-family="Bitstream Vera Sans" font-size="8.00">id</text>
<text text-anchor="start" x="613" y="-567.6" font-family="Bitstream Vera Sans" font-size="8.00">Integer</text>
<text text-anchor="start" x="523" y="-555.6" font-family="Bitstream Vera Sans" font-size="8.00">text</text>
<text text-anchor="start" x="613" y="-555.6" font-family="Bitstream Vera Sans" font-size="8.00">String</text>
<text text-anchor="start" x="523" y="-543.6" font-family="Bitstream Vera Sans" font-size="8.00">position</text>
<text text-anchor="start" x="613" y="-543.6" font-family="Bitstream Vera Sans" font-size="8.00">Integer</text>
<text text-anchor="start" x="523" y="-531.6" font-family="Bitstream Vera Sans" font-size="8.00">required</text>
<text text-anchor="start" x="613" y="-531.6" font-family="Bitstream Vera Sans" font-size="8.00">Boolean</text>
<text text-anchor="start" x="523" y="-519.6" font-family="Bitstream Vera Sans" font-size="8.00">container</text>
<text text-anchor="start" x="613" y="-519.6" font-family="Bitstream Vera Sans" font-size="8.00">PickleType</text>
<text text-anchor="start" x="523" y="-507.6" font-family="Bitstream Vera Sans" font-size="8.00">expectedAnswer</text>
<text text-anchor="start" x="613" y="-507.6" font-family="Bitstream Vera Sans" font-size="8.00">String</text>
<text text-anchor="start" x="523" y="-495.6" font-family="Bitstream Vera Sans" font-size="8.00">maxNumberAttempt</text>
<text text-anchor="start" x="613" y="-495.6" font-family="Bitstream Vera Sans" font-size="8.00">Integer</text>
<text text-anchor="start" x="523" y="-483.6" font-family="Bitstream Vera Sans" font-size="8.00">decision</text>
<text text-anchor="start" x="613" y="-483.6" font-family="Bitstream Vera Sans" font-size="8.00">Enum</text>
<text text-anchor="start" x="523" y="-471.6" font-family="Bitstream Vera Sans" font-size="8.00">is_real_money</text>
<text text-anchor="start" x="613" y="-471.6" font-family="Bitstream Vera Sans" font-size="8.00">Boolean</text>
<text text-anchor="start" x="523" y="-459.6" font-family="Bitstream Vera Sans" font-size="8.00">type</text>
<text text-anchor="start" x="613" y="-459.6" font-family="Bitstream Vera Sans" font-size="8.00">String</text>
<text text-anchor="start" x="523" y="-447.6" font-family="Bitstream Vera Sans" font-size="8.00">section_id</text>
<text text-anchor="start" x="613" y="-447.6" font-family="Bitstream Vera Sans" font-size="8.00">Integer</text>
<text text-anchor="start" x="523" y="-435.6" font-family="Bitstream Vera Sans" font-size="8.00">minLikert</text>
<text text-anchor="start" x="613" y="-435.6" font-family="Bitstream Vera Sans" font-size="8.00">Integer</text>
<text text-anchor="start" x="523" y="-423.6" font-family="Bitstream Vera Sans" font-size="8.00">maxLikert</text>
<text text-anchor="start" x="613" y="-423.6" font-family="Bitstream Vera Sans" font-size="8.00">Integer</text>
<text text-anchor="start" x="523" y="-411.6" font-family="Bitstream Vera Sans" font-size="8.00">labelMin</text>
<text text-anchor="start" x="613" y="-411.6" font-family="Bitstream Vera Sans" font-size="8.00">String</text>
<text text-anchor="start" x="523" y="-399.6" font-family="Bitstream Vera Sans" font-size="8.00">labelMax</text>
<text text-anchor="start" x="613" y="-399.6" font-family="Bitstream Vera Sans" font-size="8.00">String</text>
<polygon fill="palegoldenrod" stroke="palegoldenrod" points="521,-383 521,-395 611,-395 611,-383 521,-383"/>
<text text-anchor="start" x="523" y="-387.6" font-family="Bitstream Vera Sans" font-size="8.00">answers</text>
<polygon fill="palegoldenrod" stroke="palegoldenrod" points="611,-383 611,-395 658,-395 658,-383 611,-383"/>
<text text-anchor="start" x="613" y="-387.6" font-family="Bitstream Vera Sans" font-size="8.00">PROPERTY</text>
<polygon fill="palegoldenrod" stroke="palegoldenrod" points="521,-371 521,-383 611,-383 611,-371 521,-371"/>
<text text-anchor="start" x="523" y="-375.6" font-family="Bitstream Vera Sans" font-size="8.00">parent</text>
<polygon fill="palegoldenrod" stroke="palegoldenrod" points="611,-371 611,-383 658,-383 658,-371 611,-371"/>
<text text-anchor="start" x="613" y="-375.6" font-family="Bitstream Vera Sans" font-size="8.00">PROPERTY</text>
<polygon fill="palegoldenrod" stroke="palegoldenrod" points="521,-359 521,-371 611,-371 611,-359 521,-359"/>
<text text-anchor="start" x="523" y="-363.6" font-family="Bitstream Vera Sans" font-size="8.00">section</text>
<polygon fill="palegoldenrod" stroke="palegoldenrod" points="611,-359 611,-371 658,-371 658,-359 611,-359"/>
<text text-anchor="start" x="613" y="-363.6" font-family="Bitstream Vera Sans" font-size="8.00">PROPERTY</text>
<polygon fill="palegoldenrod" stroke="palegoldenrod" points="521,-347 521,-359 611,-359 611,-347 521,-347"/>
<text text-anchor="start" x="523" y="-351.6" font-family="Bitstream Vera Sans" font-size="8.00">subquestions</text>
<polygon fill="palegoldenrod" stroke="palegoldenrod" points="611,-347 611,-359 658,-359 658,-347 611,-347"/>
<text text-anchor="start" x="613" y="-351.6" font-family="Bitstream Vera Sans" font-size="8.00">PROPERTY</text>
</g>
<!-- QuestionLikertScale&#45;&gt;Question -->
<g id="edge8" class="edge"><title>QuestionLikertScale&#45;&gt;Question</title>
<path fill="none" stroke="black" d="M512.625,-343.653C509.444,-339.334 506.231,-335.103 503,-331 476.792,-297.715 444.959,-263.877 415.898,-235"/>
<polygon fill="none" stroke="black" points="418.149,-232.304 408.574,-227.769 413.231,-237.285 418.149,-232.304"/>
</g>
</g>
</svg>
