<?xml version="1.0" encoding="UTF-8" standalone="no"?>
<!DOCTYPE svg PUBLIC "-//W3C//DTD SVG 1.1//EN"
 "http://www.w3.org/Graphics/SVG/1.1/DTD/svg11.dtd">
<!-- Generated by graphviz version 2.28.0 (20130927.1109)
 -->
<!-- Title: G Pages: 1 -->
<svg width="605pt" height="603pt"
 viewBox="0.00 0.00 604.69 603.00" xmlns="http://www.w3.org/2000/svg" xmlns:xlink="http://www.w3.org/1999/xlink">
<g id="graph1" class="graph" transform="scale(1 1) rotate(0) translate(4 599)">
<title>G</title>
<polygon fill="white" stroke="white" points="-4,5 -4,-599 601.691,-599 601.691,5 -4,5"/>
<text text-anchor="middle" x="298.345" y="-6.6" font-family="Bitstream Vera Sans" font-size="8.00">generated by sadisplay v0.3.8dev</text>
<!-- answer -->
<g id="node1" class="node"><title>answer</title>
<polygon fill="lightyellow" stroke="lightyellow" points="145.191,-177.5 145.191,-314.5 262.191,-314.5 262.191,-177.5 145.191,-177.5"/>
<polygon fill="palegoldenrod" stroke="palegoldenrod" points="145.691,-297 145.691,-314 262.691,-314 262.691,-297 145.691,-297"/>
<text text-anchor="start" x="188.691" y="-304.1" font-family="Helvetica Bold" font-size="8.00">answer</text>
<text text-anchor="start" x="147.691" y="-289.6" font-family="Bitstream Vera Sans" font-size="8.00">id</text>
<text text-anchor="start" x="219.691" y="-289.6" font-family="Bitstream Vera Sans" font-size="8.00">INTEGER</text>
<text text-anchor="start" x="147.691" y="-277.6" font-family="Bitstream Vera Sans" font-size="8.00">created</text>
<text text-anchor="start" x="219.691" y="-277.6" font-family="Bitstream Vera Sans" font-size="8.00">DATETIME</text>
<text text-anchor="start" x="147.691" y="-265.6" font-family="Bitstream Vera Sans" font-size="8.00">answerNumeric</text>
<text text-anchor="start" x="219.691" y="-265.6" font-family="Bitstream Vera Sans" font-size="8.00">INTEGER</text>
<text text-anchor="start" x="147.691" y="-253.6" font-family="Bitstream Vera Sans" font-size="8.00">answerText</text>
<text text-anchor="start" x="219.691" y="-253.6" font-family="Bitstream Vera Sans" font-size="8.00">VARCHAR</text>
<text text-anchor="start" x="147.691" y="-241.6" font-family="Bitstream Vera Sans" font-size="8.00">answerYN</text>
<text text-anchor="start" x="219.691" y="-241.6" font-family="Bitstream Vera Sans" font-size="8.00">BOOLEAN</text>
<text text-anchor="start" x="147.691" y="-229.6" font-family="Bitstream Vera Sans" font-size="8.00">numberAttempt</text>
<text text-anchor="start" x="219.691" y="-229.6" font-family="Bitstream Vera Sans" font-size="8.00">INTEGER</text>
<text text-anchor="start" x="147.691" y="-217.6" font-family="Bitstream Vera Sans" font-size="8.00">globalTime</text>
<text text-anchor="start" x="219.691" y="-217.6" font-family="Bitstream Vera Sans" font-size="8.00">INTEGER</text>
<text text-anchor="start" x="147.691" y="-205.6" font-family="Bitstream Vera Sans" font-size="8.00">differentialTime</text>
<text text-anchor="start" x="219.691" y="-205.6" font-family="Bitstream Vera Sans" font-size="8.00">INTEGER</text>
<text text-anchor="start" x="147.691" y="-193.6" font-family="Bitstream Vera Sans" font-size="8.00">user_id</text>
<text text-anchor="start" x="219.691" y="-193.6" font-family="Bitstream Vera Sans" font-size="8.00">INTEGER</text>
<text text-anchor="start" x="147.691" y="-181.6" font-family="Bitstream Vera Sans" font-size="8.00">question_id</text>
<text text-anchor="start" x="219.691" y="-181.6" font-family="Bitstream Vera Sans" font-size="8.00">INTEGER</text>
</g>
<!-- user -->
<g id="node5" class="node"><title>user</title>
<polygon fill="lightyellow" stroke="lightyellow" points="221.691,-21.5 221.691,-122.5 339.691,-122.5 339.691,-21.5 221.691,-21.5"/>
<polygon fill="palegoldenrod" stroke="palegoldenrod" points="221.691,-105 221.691,-122 339.691,-122 339.691,-105 221.691,-105"/>
<text text-anchor="start" x="271.191" y="-112.1" font-family="Helvetica Bold" font-size="8.00">user</text>
<text text-anchor="start" x="223.691" y="-97.6" font-family="Bitstream Vera Sans" font-size="8.00">id</text>
<text text-anchor="start" x="296.691" y="-97.6" font-family="Bitstream Vera Sans" font-size="8.00">INTEGER</text>
<text text-anchor="start" x="223.691" y="-85.6" font-family="Bitstream Vera Sans" font-size="8.00">created</text>
<text text-anchor="start" x="296.691" y="-85.6" font-family="Bitstream Vera Sans" font-size="8.00">DATETIME</text>
<text text-anchor="start" x="223.691" y="-73.6" font-family="Bitstream Vera Sans" font-size="8.00">email</text>
<text text-anchor="start" x="296.691" y="-73.6" font-family="Bitstream Vera Sans" font-size="8.00">VARCHAR</text>
<text text-anchor="start" x="223.691" y="-61.6" font-family="Bitstream Vera Sans" font-size="8.00">nickname</text>
<text text-anchor="start" x="296.691" y="-61.6" font-family="Bitstream Vera Sans" font-size="8.00">VARCHAR</text>
<text text-anchor="start" x="223.691" y="-49.6" font-family="Bitstream Vera Sans" font-size="8.00">password_hash</text>
<text text-anchor="start" x="296.691" y="-49.6" font-family="Bitstream Vera Sans" font-size="8.00">VARCHAR</text>
<text text-anchor="start" x="223.691" y="-37.6" font-family="Bitstream Vera Sans" font-size="8.00">confirmed</text>
<text text-anchor="start" x="296.691" y="-37.6" font-family="Bitstream Vera Sans" font-size="8.00">BOOLEAN</text>
<text text-anchor="start" x="223.691" y="-25.6" font-family="Bitstream Vera Sans" font-size="8.00">role</text>
<text text-anchor="start" x="296.691" y="-25.6" font-family="Bitstream Vera Sans" font-size="8.00">SMALLINT</text>
</g>
<!-- answer&#45;&gt;user -->
<g id="edge2" class="edge"><title>answer&#45;&gt;user</title>
<path fill="none" stroke="black" d="M235.899,-173.053C241.123,-161.385 246.505,-149.362 251.648,-137.875"/>
<polygon fill="none" stroke="black" points="251.792,-137.553 250.593,-130.442 256.695,-126.6 257.894,-133.711 251.792,-137.553"/>
<text text-anchor="middle" x="263.691" y="-148.1" font-family="Bitstream Vera Sans" font-size="8.00">user_id</text>
</g>
<!-- raffle -->
<g id="node2" class="node"><title>raffle</title>
<polygon fill="lightyellow" stroke="lightyellow" points="479.691,-447.5 479.691,-512.5 553.691,-512.5 553.691,-447.5 479.691,-447.5"/>
<polygon fill="palegoldenrod" stroke="palegoldenrod" points="479.691,-495 479.691,-512 553.691,-512 553.691,-495 479.691,-495"/>
<text text-anchor="start" x="507.191" y="-502.1" font-family="Helvetica Bold" font-size="8.00">raffle</text>
<text text-anchor="start" x="481.691" y="-487.6" font-family="Bitstream Vera Sans" font-size="8.00">id</text>
<text text-anchor="start" x="520.691" y="-487.6" font-family="Bitstream Vera Sans" font-size="8.00">INTEGER</text>
<text text-anchor="start" x="481.691" y="-475.6" font-family="Bitstream Vera Sans" font-size="8.00">survey_id</text>
<text text-anchor="start" x="520.691" y="-475.6" font-family="Bitstream Vera Sans" font-size="8.00">INTEGER</text>
<text text-anchor="start" x="481.691" y="-463.6" font-family="Bitstream Vera Sans" font-size="8.00">user_id</text>
<text text-anchor="start" x="520.691" y="-463.6" font-family="Bitstream Vera Sans" font-size="8.00">INTEGER</text>
<text text-anchor="start" x="481.691" y="-451.6" font-family="Bitstream Vera Sans" font-size="8.00">prize</text>
<text text-anchor="start" x="520.691" y="-451.6" font-family="Bitstream Vera Sans" font-size="8.00">INTEGER</text>
</g>
<!-- survey -->
<g id="node4" class="node"><title>survey</title>
<polygon fill="lightyellow" stroke="lightyellow" points="360.191,-183.5 360.191,-308.5 517.191,-308.5 517.191,-183.5 360.191,-183.5"/>
<polygon fill="palegoldenrod" stroke="palegoldenrod" points="360.691,-291 360.691,-308 517.691,-308 517.691,-291 360.691,-291"/>
<text text-anchor="start" x="425.191" y="-298.1" font-family="Helvetica Bold" font-size="8.00">survey</text>
<text text-anchor="start" x="362.691" y="-283.6" font-family="Bitstream Vera Sans" font-size="8.00">id</text>
<text text-anchor="start" x="474.691" y="-283.6" font-family="Bitstream Vera Sans" font-size="8.00">INTEGER</text>
<text text-anchor="start" x="362.691" y="-271.6" font-family="Bitstream Vera Sans" font-size="8.00">title</text>
<text text-anchor="start" x="474.691" y="-271.6" font-family="Bitstream Vera Sans" font-size="8.00">VARCHAR</text>
<text text-anchor="start" x="362.691" y="-259.6" font-family="Bitstream Vera Sans" font-size="8.00">description</text>
<text text-anchor="start" x="474.691" y="-259.6" font-family="Bitstream Vera Sans" font-size="8.00">VARCHAR</text>
<text text-anchor="start" x="362.691" y="-247.6" font-family="Bitstream Vera Sans" font-size="8.00">created</text>
<text text-anchor="start" x="474.691" y="-247.6" font-family="Bitstream Vera Sans" font-size="8.00">DATETIME</text>
<text text-anchor="start" x="362.691" y="-235.6" font-family="Bitstream Vera Sans" font-size="8.00">startDate</text>
<text text-anchor="start" x="474.691" y="-235.6" font-family="Bitstream Vera Sans" font-size="8.00">DATETIME</text>
<text text-anchor="start" x="362.691" y="-223.6" font-family="Bitstream Vera Sans" font-size="8.00">endDate</text>
<text text-anchor="start" x="474.691" y="-223.6" font-family="Bitstream Vera Sans" font-size="8.00">DATETIME</text>
<text text-anchor="start" x="362.691" y="-211.6" font-family="Bitstream Vera Sans" font-size="8.00">maxNumberRespondents</text>
<text text-anchor="start" x="474.691" y="-211.6" font-family="Bitstream Vera Sans" font-size="8.00">INTEGER</text>
<text text-anchor="start" x="362.691" y="-199.6" font-family="Bitstream Vera Sans" font-size="8.00">duration</text>
<text text-anchor="start" x="474.691" y="-199.6" font-family="Bitstream Vera Sans" font-size="8.00">INTEGER</text>
<text text-anchor="start" x="362.691" y="-187.6" font-family="Bitstream Vera Sans" font-size="8.00">researcher_id</text>
<text text-anchor="start" x="474.691" y="-187.6" font-family="Bitstream Vera Sans" font-size="8.00">INTEGER</text>
</g>
<!-- raffle&#45;&gt;survey -->
<g id="edge4" class="edge"><title>raffle&#45;&gt;survey</title>
<path fill="none" stroke="black" d="M504.674,-443.258C494.033,-411.608 478.136,-364.324 464.611,-324.097"/>
<polygon fill="none" stroke="black" points="464.599,-324.06 458.895,-319.648 460.775,-312.686 466.478,-317.098 464.599,-324.06"/>
<text text-anchor="middle" x="492.191" y="-340.1" font-family="Bitstream Vera Sans" font-size="8.00">survey_id</text>
</g>
<!-- raffle&#45;&gt;user -->
<g id="edge6" class="edge"><title>raffle&#45;&gt;user</title>
<path fill="none" stroke="black" d="M531.558,-443.207C554.405,-381.971 589.939,-255.716 533.691,-173 495.054,-116.183 418.627,-91.6478 359.838,-81.0527"/>
<polygon fill="none" stroke="black" points="359.791,-81.0448 353.211,-83.9947 347.957,-79.0554 354.537,-76.1054 359.791,-81.0448"/>
<text text-anchor="middle" x="580.691" y="-244.1" font-family="Bitstream Vera Sans" font-size="8.00">user_id</text>
</g>
<!-- gameRentSeeking -->
<g id="node3" class="node"><title>gameRentSeeking</title>
<polygon fill="lightyellow" stroke="lightyellow" points="130.691,-369.5 130.691,-590.5 242.691,-590.5 242.691,-369.5 130.691,-369.5"/>
<polygon fill="palegoldenrod" stroke="palegoldenrod" points="130.691,-573 130.691,-590 242.691,-590 242.691,-573 130.691,-573"/>
<text text-anchor="start" x="149.191" y="-580.1" font-family="Helvetica Bold" font-size="8.00">gameRentSeeking</text>
<text text-anchor="start" x="132.691" y="-565.6" font-family="Bitstream Vera Sans" font-size="8.00">id</text>
<text text-anchor="start" x="199.691" y="-565.6" font-family="Bitstream Vera Sans" font-size="8.00">INTEGER</text>
<text text-anchor="start" x="132.691" y="-553.6" font-family="Bitstream Vera Sans" font-size="8.00">survey_id</text>
<text text-anchor="start" x="199.691" y="-553.6" font-family="Bitstream Vera Sans" font-size="8.00">INTEGER</text>
<text text-anchor="start" x="132.691" y="-541.6" font-family="Bitstream Vera Sans" font-size="8.00">userA_id</text>
<text text-anchor="start" x="199.691" y="-541.6" font-family="Bitstream Vera Sans" font-size="8.00">INTEGER</text>
<text text-anchor="start" x="132.691" y="-529.6" font-family="Bitstream Vera Sans" font-size="8.00">userB_id</text>
<text text-anchor="start" x="199.691" y="-529.6" font-family="Bitstream Vera Sans" font-size="8.00">INTEGER</text>
<text text-anchor="start" x="132.691" y="-517.6" font-family="Bitstream Vera Sans" font-size="8.00">answerA_id</text>
<text text-anchor="start" x="199.691" y="-517.6" font-family="Bitstream Vera Sans" font-size="8.00">INTEGER</text>
<text text-anchor="start" x="132.691" y="-505.6" font-family="Bitstream Vera Sans" font-size="8.00">answerB_id</text>
<text text-anchor="start" x="199.691" y="-505.6" font-family="Bitstream Vera Sans" font-size="8.00">INTEGER</text>
<text text-anchor="start" x="132.691" y="-493.6" font-family="Bitstream Vera Sans" font-size="8.00">prizeA</text>
<text text-anchor="start" x="199.691" y="-493.6" font-family="Bitstream Vera Sans" font-size="8.00">BOOLEAN</text>
<text text-anchor="start" x="132.691" y="-481.6" font-family="Bitstream Vera Sans" font-size="8.00">prizeB</text>
<text text-anchor="start" x="199.691" y="-481.6" font-family="Bitstream Vera Sans" font-size="8.00">BOOLEAN</text>
<text text-anchor="start" x="132.691" y="-469.6" font-family="Bitstream Vera Sans" font-size="8.00">repeatA</text>
<text text-anchor="start" x="199.691" y="-469.6" font-family="Bitstream Vera Sans" font-size="8.00">BOOLEAN</text>
<text text-anchor="start" x="132.691" y="-457.6" font-family="Bitstream Vera Sans" font-size="8.00">repeatB</text>
<text text-anchor="start" x="199.691" y="-457.6" font-family="Bitstream Vera Sans" font-size="8.00">BOOLEAN</text>
<text text-anchor="start" x="132.691" y="-445.6" font-family="Bitstream Vera Sans" font-size="8.00">moneyA</text>
<text text-anchor="start" x="199.691" y="-445.6" font-family="Bitstream Vera Sans" font-size="8.00">FLOAT</text>
<text text-anchor="start" x="132.691" y="-433.6" font-family="Bitstream Vera Sans" font-size="8.00">moneyB</text>
<text text-anchor="start" x="199.691" y="-433.6" font-family="Bitstream Vera Sans" font-size="8.00">FLOAT</text>
<text text-anchor="start" x="132.691" y="-421.6" font-family="Bitstream Vera Sans" font-size="8.00">is_real_money</text>
<text text-anchor="start" x="199.691" y="-421.6" font-family="Bitstream Vera Sans" font-size="8.00">BOOLEAN</text>
<text text-anchor="start" x="132.691" y="-409.6" font-family="Bitstream Vera Sans" font-size="8.00">type</text>
<text text-anchor="start" x="199.691" y="-409.6" font-family="Bitstream Vera Sans" font-size="8.00">VARCHAR</text>
<text text-anchor="start" x="132.691" y="-397.6" font-family="Bitstream Vera Sans" font-size="8.00">win_id</text>
<text text-anchor="start" x="199.691" y="-397.6" font-family="Bitstream Vera Sans" font-size="8.00">INTEGER</text>
<text text-anchor="start" x="132.691" y="-385.6" font-family="Bitstream Vera Sans" font-size="8.00">section</text>
<text text-anchor="start" x="199.691" y="-385.6" font-family="Bitstream Vera Sans" font-size="8.00">INTEGER</text>
<text text-anchor="start" x="132.691" y="-373.6" font-family="Bitstream Vera Sans" font-size="8.00">accepted</text>
<text text-anchor="start" x="199.691" y="-373.6" font-family="Bitstream Vera Sans" font-size="8.00">BOOLEAN</text>
</g>
<!-- gameRentSeeking&#45;&gt;answer -->
<g id="edge14" class="edge"><title>gameRentSeeking&#45;&gt;answer</title>
<path fill="none" stroke="black" d="M148.335,-365.347C148.233,-355.746 149.225,-346.197 151.691,-337 152.339,-334.583 153.069,-332.164 153.871,-329.75"/>
<polygon fill="none" stroke="black" points="153.873,-329.745 152.246,-322.72 158.106,-318.516 159.732,-325.542 153.873,-329.745"/>
<text text-anchor="middle" x="176.191" y="-340.1" font-family="Bitstream Vera Sans" font-size="8.00">answerA_id</text>
</g>
<!-- gameRentSeeking&#45;&gt;answer -->
<g id="edge16" class="edge"><title>gameRentSeeking&#45;&gt;answer</title>
<path fill="none" stroke="black" d="M199.303,-365.284C199.817,-359.103 200.285,-352.978 200.691,-347 201.051,-341.69 201.369,-336.219 201.648,-330.701"/>
<polygon fill="none" stroke="black" points="201.653,-330.578 197.931,-324.402 202.2,-318.591 205.923,-324.767 201.653,-330.578"/>
<text text-anchor="middle" x="226.691" y="-340.1" font-family="Bitstream Vera Sans" font-size="8.00">answerB_id</text>
</g>
<!-- gameRentSeeking&#45;&gt;survey -->
<g id="edge8" class="edge"><title>gameRentSeeking&#45;&gt;survey</title>
<path fill="none" stroke="black" d="M250.933,-419.856C283.595,-389.787 323.613,-352.945 358.3,-321.011"/>
<polygon fill="none" stroke="black" points="358.633,-320.704 360.338,-313.697 367.462,-312.576 365.757,-319.582 358.633,-320.704"/>
<text text-anchor="middle" x="356.191" y="-340.1" font-family="Bitstream Vera Sans" font-size="8.00">survey_id</text>
</g>
<!-- gameRentSeeking&#45;&gt;user -->
<g id="edge10" class="edge"><title>gameRentSeeking&#45;&gt;user</title>
<path fill="none" stroke="black" d="M122.507,-436.889C85.4475,-408.528 42.2207,-367.505 21.6907,-319 -3.60158,-259.243 -9.82213,-229.723 21.6907,-173 56.6384,-110.094 138.913,-86.5493 201.427,-77.8506"/>
<polygon fill="none" stroke="black" points="201.741,-77.8108 207.19,-73.0879 213.646,-76.3016 208.197,-81.0244 201.741,-77.8108"/>
<text text-anchor="middle" x="40.1907" y="-244.1" font-family="Bitstream Vera Sans" font-size="8.00">userA_id</text>
</g>
<!-- gameRentSeeking&#45;&gt;user -->
<g id="edge12" class="edge"><title>gameRentSeeking&#45;&gt;user</title>
<path fill="none" stroke="black" d="M122.558,-392.624C83.5297,-328.671 48.4276,-241.18 89.6907,-173 114.137,-132.607 160.864,-107.742 201.981,-92.9085"/>
<polygon fill="none" stroke="black" points="202.056,-92.8827 206.432,-87.1512 213.406,-88.9862 209.03,-94.7177 202.056,-92.8827"/>
<text text-anchor="middle" x="108.691" y="-244.1" font-family="Bitstream Vera Sans" font-size="8.00">userB_id</text>
</g>
<!-- gameRentSeeking&#45;&gt;user -->
<g id="edge18" class="edge"><title>gameRentSeeking&#45;&gt;user</title>
<path fill="none" stroke="black" d="M250.737,-385.111C262.092,-364.185 272.313,-341.505 278.691,-319 295.473,-259.78 293.994,-189.274 289.495,-138.957"/>
<polygon fill="none" stroke="black" points="289.488,-138.884 284.928,-133.299 288.33,-126.94 292.89,-132.526 289.488,-138.884"/>
<text text-anchor="middle" x="306.191" y="-244.1" font-family="Bitstream Vera Sans" font-size="8.00">win_id</text>
</g>
<!-- survey&#45;&gt;user -->
<g id="edge20" class="edge"><title>survey&#45;&gt;user</title>
<path fill="none" stroke="black" d="M378.507,-179.484C365.344,-165.154 351.441,-150.019 338.378,-135.799"/>
<polygon fill="none" stroke="black" points="338.05,-135.441 331.045,-133.729 329.932,-126.604 336.936,-128.317 338.05,-135.441"/>
<text text-anchor="middle" x="385.191" y="-148.1" font-family="Bitstream Vera Sans" font-size="8.00">researcher_id</text>
</g>
</g>
</svg>
