<?xml version="1.0" encoding="UTF-8" standalone="no"?>
<!DOCTYPE svg PUBLIC "-//W3C//DTD SVG 1.1//EN"
 "http://www.w3.org/Graphics/SVG/1.1/DTD/svg11.dtd">
<!-- Generated by graphviz version 2.28.0 (20130927.1109)
 -->
<!-- Title: G Pages: 1 -->
<svg width="461pt" height="891pt"
 viewBox="0.00 0.00 460.65 891.00" xmlns="http://www.w3.org/2000/svg" xmlns:xlink="http://www.w3.org/1999/xlink">
<g id="graph1" class="graph" transform="scale(1 1) rotate(0) translate(4 887)">
<title>G</title>
<polygon fill="white" stroke="white" points="-4,5 -4,-887 457.65,-887 457.65,5 -4,5"/>
<text text-anchor="middle" x="226.325" y="-6.6" font-family="Bitstream Vera Sans" font-size="8.00">generated by sadisplay v0.3.8dev</text>
<!-- GameImpatience -->
<g id="node1" class="node"><title>GameImpatience</title>
<polygon fill="lightyellow" stroke="lightyellow" points="170.65,-663.5 170.65,-800.5 284.65,-800.5 284.65,-663.5 170.65,-663.5"/>
<polygon fill="palegoldenrod" stroke="palegoldenrod" points="170.65,-783 170.65,-800 284.65,-800 284.65,-783 170.65,-783"/>
<text text-anchor="start" x="192.65" y="-790.1" font-family="Helvetica Bold" font-size="8.00">GameImpatience</text>
<text text-anchor="start" x="172.65" y="-775.6" font-family="Bitstream Vera Sans" font-size="8.00">id</text>
<text text-anchor="start" x="239.65" y="-775.6" font-family="Bitstream Vera Sans" font-size="8.00">Integer</text>
<text text-anchor="start" x="172.65" y="-763.6" font-family="Bitstream Vera Sans" font-size="8.00">survey_id</text>
<text text-anchor="start" x="239.65" y="-763.6" font-family="Bitstream Vera Sans" font-size="8.00">Integer</text>
<text text-anchor="start" x="172.65" y="-751.6" font-family="Bitstream Vera Sans" font-size="8.00">user_id</text>
<text text-anchor="start" x="239.65" y="-751.6" font-family="Bitstream Vera Sans" font-size="8.00">Integer</text>
<text text-anchor="start" x="172.65" y="-739.6" font-family="Bitstream Vera Sans" font-size="8.00">answer_id</text>
<text text-anchor="start" x="239.65" y="-739.6" font-family="Bitstream Vera Sans" font-size="8.00">Integer</text>
<text text-anchor="start" x="172.65" y="-727.6" font-family="Bitstream Vera Sans" font-size="8.00">is_real_money</text>
<text text-anchor="start" x="239.65" y="-727.6" font-family="Bitstream Vera Sans" font-size="8.00">Boolean</text>
<text text-anchor="start" x="172.65" y="-715.6" font-family="Bitstream Vera Sans" font-size="8.00">prize</text>
<text text-anchor="start" x="239.65" y="-715.6" font-family="Bitstream Vera Sans" font-size="8.00">Boolean</text>
<polygon fill="palegoldenrod" stroke="palegoldenrod" points="170.65,-699 170.65,-711 237.65,-711 237.65,-699 170.65,-699"/>
<text text-anchor="start" x="172.65" y="-703.6" font-family="Bitstream Vera Sans" font-size="8.00">answer</text>
<polygon fill="palegoldenrod" stroke="palegoldenrod" points="237.65,-699 237.65,-711 284.65,-711 284.65,-699 237.65,-699"/>
<text text-anchor="start" x="239.65" y="-703.6" font-family="Bitstream Vera Sans" font-size="8.00">PROPERTY</text>
<polygon fill="palegoldenrod" stroke="palegoldenrod" points="170.65,-687 170.65,-699 237.65,-699 237.65,-687 170.65,-687"/>
<text text-anchor="start" x="172.65" y="-691.6" font-family="Bitstream Vera Sans" font-size="8.00">survey</text>
<polygon fill="palegoldenrod" stroke="palegoldenrod" points="237.65,-687 237.65,-699 284.65,-699 284.65,-687 237.65,-687"/>
<text text-anchor="start" x="239.65" y="-691.6" font-family="Bitstream Vera Sans" font-size="8.00">PROPERTY</text>
<polygon fill="palegoldenrod" stroke="palegoldenrod" points="170.65,-675 170.65,-687 237.65,-687 237.65,-675 170.65,-675"/>
<text text-anchor="start" x="172.65" y="-679.6" font-family="Bitstream Vera Sans" font-size="8.00">user</text>
<polygon fill="palegoldenrod" stroke="palegoldenrod" points="237.65,-675 237.65,-687 284.65,-687 284.65,-675 237.65,-675"/>
<text text-anchor="start" x="239.65" y="-679.6" font-family="Bitstream Vera Sans" font-size="8.00">PROPERTY</text>
<polygon fill="palegoldenrod" stroke="palegoldenrod" points="170.65,-663 170.65,-675 237.65,-675 237.65,-663 170.65,-663"/>
<text text-anchor="start" x="172.65" y="-667.6" font-family="Bitstream Vera Sans" font-size="8.00">answer_text()</text>
<polygon fill="palegoldenrod" stroke="palegoldenrod" points="237.65,-663 237.65,-675 284.65,-675 284.65,-663 237.65,-663"/>
<text text-anchor="start" x="239.65" y="-667.6" font-family="Bitstream Vera Sans" font-size="8.00">METHOD</text>
</g>
<!-- User -->
<g id="node4" class="node"><title>User</title>
<polygon fill="lightyellow" stroke="lightyellow" points="73.6501,-21.5 73.6501,-230.5 213.65,-230.5 213.65,-21.5 73.6501,-21.5"/>
<polygon fill="palegoldenrod" stroke="palegoldenrod" points="73.6501,-213 73.6501,-230 213.65,-230 213.65,-213 73.6501,-213"/>
<text text-anchor="start" x="133.65" y="-220.1" font-family="Helvetica Bold" font-size="8.00">User</text>
<text text-anchor="start" x="75.6501" y="-205.6" font-family="Bitstream Vera Sans" font-size="8.00">id</text>
<text text-anchor="start" x="156.65" y="-205.6" font-family="Bitstream Vera Sans" font-size="8.00">Integer</text>
<text text-anchor="start" x="75.6501" y="-193.6" font-family="Bitstream Vera Sans" font-size="8.00">created</text>
<text text-anchor="start" x="156.65" y="-193.6" font-family="Bitstream Vera Sans" font-size="8.00">DateTime</text>
<text text-anchor="start" x="75.6501" y="-181.6" font-family="Bitstream Vera Sans" font-size="8.00">email</text>
<text text-anchor="start" x="156.65" y="-181.6" font-family="Bitstream Vera Sans" font-size="8.00">Unicode</text>
<text text-anchor="start" x="75.6501" y="-169.6" font-family="Bitstream Vera Sans" font-size="8.00">nickname</text>
<text text-anchor="start" x="156.65" y="-169.6" font-family="Bitstream Vera Sans" font-size="8.00">String</text>
<text text-anchor="start" x="75.6501" y="-157.6" font-family="Bitstream Vera Sans" font-size="8.00">password_hash</text>
<text text-anchor="start" x="156.65" y="-157.6" font-family="Bitstream Vera Sans" font-size="8.00">String</text>
<text text-anchor="start" x="75.6501" y="-145.6" font-family="Bitstream Vera Sans" font-size="8.00">confirmed</text>
<text text-anchor="start" x="156.65" y="-145.6" font-family="Bitstream Vera Sans" font-size="8.00">Boolean</text>
<text text-anchor="start" x="75.6501" y="-133.6" font-family="Bitstream Vera Sans" font-size="8.00">role</text>
<text text-anchor="start" x="156.65" y="-133.6" font-family="Bitstream Vera Sans" font-size="8.00">SmallInteger</text>
<polygon fill="palegoldenrod" stroke="palegoldenrod" points="73.6501,-117 73.6501,-129 154.65,-129 154.65,-117 73.6501,-117"/>
<text text-anchor="start" x="75.6501" y="-121.6" font-family="Bitstream Vera Sans" font-size="8.00">Surveys</text>
<polygon fill="palegoldenrod" stroke="palegoldenrod" points="154.65,-117 154.65,-129 213.65,-129 213.65,-117 154.65,-117"/>
<text text-anchor="start" x="156.65" y="-121.6" font-family="Bitstream Vera Sans" font-size="8.00">PROPERTY</text>
<polygon fill="palegoldenrod" stroke="palegoldenrod" points="73.6501,-105 73.6501,-117 154.65,-117 154.65,-105 73.6501,-105"/>
<text text-anchor="start" x="75.6501" y="-109.6" font-family="Bitstream Vera Sans" font-size="8.00">answers</text>
<polygon fill="palegoldenrod" stroke="palegoldenrod" points="154.65,-105 154.65,-117 213.65,-117 213.65,-105 154.65,-105"/>
<text text-anchor="start" x="156.65" y="-109.6" font-family="Bitstream Vera Sans" font-size="8.00">PROPERTY</text>
<polygon fill="palegoldenrod" stroke="palegoldenrod" points="73.6501,-93 73.6501,-105 154.65,-105 154.65,-93 73.6501,-93"/>
<text text-anchor="start" x="75.6501" y="-97.6" font-family="Bitstream Vera Sans" font-size="8.00">stateSurveys</text>
<polygon fill="palegoldenrod" stroke="palegoldenrod" points="154.65,-93 154.65,-105 213.65,-105 213.65,-93 154.65,-93"/>
<text text-anchor="start" x="156.65" y="-97.6" font-family="Bitstream Vera Sans" font-size="8.00">PROPERTY</text>
<polygon fill="palegoldenrod" stroke="palegoldenrod" points="73.6501,-81 73.6501,-93 154.65,-93 154.65,-81 73.6501,-81"/>
<text text-anchor="start" x="75.6501" y="-85.6" font-family="Bitstream Vera Sans" font-size="8.00">get_id()</text>
<polygon fill="palegoldenrod" stroke="palegoldenrod" points="154.65,-81 154.65,-93 213.65,-93 213.65,-81 154.65,-81"/>
<text text-anchor="start" x="156.65" y="-85.6" font-family="Bitstream Vera Sans" font-size="8.00">METHOD</text>
<polygon fill="palegoldenrod" stroke="palegoldenrod" points="73.6501,-69 73.6501,-81 154.65,-81 154.65,-69 73.6501,-69"/>
<text text-anchor="start" x="75.6501" y="-73.6" font-family="Bitstream Vera Sans" font-size="8.00">is_active()</text>
<polygon fill="palegoldenrod" stroke="palegoldenrod" points="154.65,-69 154.65,-81 213.65,-81 213.65,-69 154.65,-69"/>
<text text-anchor="start" x="156.65" y="-73.6" font-family="Bitstream Vera Sans" font-size="8.00">METHOD</text>
<polygon fill="palegoldenrod" stroke="palegoldenrod" points="73.6501,-57 73.6501,-69 154.65,-69 154.65,-57 73.6501,-57"/>
<text text-anchor="start" x="75.6501" y="-61.6" font-family="Bitstream Vera Sans" font-size="8.00">is_anonymous()</text>
<polygon fill="palegoldenrod" stroke="palegoldenrod" points="154.65,-57 154.65,-69 213.65,-69 213.65,-57 154.65,-57"/>
<text text-anchor="start" x="156.65" y="-61.6" font-family="Bitstream Vera Sans" font-size="8.00">METHOD</text>
<polygon fill="palegoldenrod" stroke="palegoldenrod" points="73.6501,-45 73.6501,-57 154.65,-57 154.65,-45 73.6501,-45"/>
<text text-anchor="start" x="75.6501" y="-49.6" font-family="Bitstream Vera Sans" font-size="8.00">is_authenticated()</text>
<polygon fill="palegoldenrod" stroke="palegoldenrod" points="154.65,-45 154.65,-57 213.65,-57 213.65,-45 154.65,-45"/>
<text text-anchor="start" x="156.65" y="-49.6" font-family="Bitstream Vera Sans" font-size="8.00">METHOD</text>
<polygon fill="palegoldenrod" stroke="palegoldenrod" points="73.6501,-33 73.6501,-45 154.65,-45 154.65,-33 73.6501,-33"/>
<text text-anchor="start" x="75.6501" y="-37.6" font-family="Bitstream Vera Sans" font-size="8.00">is_researcher()</text>
<polygon fill="palegoldenrod" stroke="palegoldenrod" points="154.65,-33 154.65,-45 213.65,-45 213.65,-33 154.65,-33"/>
<text text-anchor="start" x="156.65" y="-37.6" font-family="Bitstream Vera Sans" font-size="8.00">METHOD</text>
<polygon fill="palegoldenrod" stroke="palegoldenrod" points="73.6501,-21 73.6501,-33 154.65,-33 154.65,-21 73.6501,-21"/>
<text text-anchor="start" x="75.6501" y="-25.6" font-family="Bitstream Vera Sans" font-size="8.00">verify_password()</text>
<polygon fill="palegoldenrod" stroke="palegoldenrod" points="154.65,-21 154.65,-33 213.65,-33 213.65,-21 154.65,-21"/>
<text text-anchor="start" x="156.65" y="-25.6" font-family="Bitstream Vera Sans" font-size="8.00">METHOD</text>
</g>
<!-- GameImpatience&#45;&gt;User -->
<g id="edge4" class="edge"><title>GameImpatience&#45;&gt;User</title>
<path fill="none" stroke="black" d="M193.374,-659.235C177.791,-622.888 160.998,-577.545 152.65,-535 133.88,-439.344 132.686,-328.659 135.598,-246.728"/>
<polygon fill="none" stroke="black" points="135.603,-246.59 131.837,-240.44 136.066,-234.599 139.832,-240.749 135.603,-246.59"/>
<text text-anchor="middle" x="168.65" y="-406.1" font-family="Bitstream Vera Sans" font-size="8.00">user_id</text>
</g>
<!-- Survey -->
<g id="node5" class="node"><title>Survey</title>
<polygon fill="lightyellow" stroke="lightyellow" points="202.15,-285.5 202.15,-530.5 361.15,-530.5 361.15,-285.5 202.15,-285.5"/>
<polygon fill="palegoldenrod" stroke="palegoldenrod" points="202.65,-513 202.65,-530 361.65,-530 361.65,-513 202.65,-513"/>
<text text-anchor="start" x="267.65" y="-520.1" font-family="Helvetica Bold" font-size="8.00">Survey</text>
<text text-anchor="start" x="204.65" y="-505.6" font-family="Bitstream Vera Sans" font-size="8.00">id</text>
<text text-anchor="start" x="316.65" y="-505.6" font-family="Bitstream Vera Sans" font-size="8.00">Integer</text>
<text text-anchor="start" x="204.65" y="-493.6" font-family="Bitstream Vera Sans" font-size="8.00">title</text>
<text text-anchor="start" x="316.65" y="-493.6" font-family="Bitstream Vera Sans" font-size="8.00">String</text>
<text text-anchor="start" x="204.65" y="-481.6" font-family="Bitstream Vera Sans" font-size="8.00">description</text>
<text text-anchor="start" x="316.65" y="-481.6" font-family="Bitstream Vera Sans" font-size="8.00">String</text>
<text text-anchor="start" x="204.65" y="-469.6" font-family="Bitstream Vera Sans" font-size="8.00">created</text>
<text text-anchor="start" x="316.65" y="-469.6" font-family="Bitstream Vera Sans" font-size="8.00">DateTime</text>
<text text-anchor="start" x="204.65" y="-457.6" font-family="Bitstream Vera Sans" font-size="8.00">startDate</text>
<text text-anchor="start" x="316.65" y="-457.6" font-family="Bitstream Vera Sans" font-size="8.00">DateTime</text>
<text text-anchor="start" x="204.65" y="-445.6" font-family="Bitstream Vera Sans" font-size="8.00">endDate</text>
<text text-anchor="start" x="316.65" y="-445.6" font-family="Bitstream Vera Sans" font-size="8.00">DateTime</text>
<text text-anchor="start" x="204.65" y="-433.6" font-family="Bitstream Vera Sans" font-size="8.00">maxNumberRespondents</text>
<text text-anchor="start" x="316.65" y="-433.6" font-family="Bitstream Vera Sans" font-size="8.00">Integer</text>
<text text-anchor="start" x="204.65" y="-421.6" font-family="Bitstream Vera Sans" font-size="8.00">duration</text>
<text text-anchor="start" x="316.65" y="-421.6" font-family="Bitstream Vera Sans" font-size="8.00">Integer</text>
<text text-anchor="start" x="204.65" y="-409.6" font-family="Bitstream Vera Sans" font-size="8.00">researcher_id</text>
<text text-anchor="start" x="316.65" y="-409.6" font-family="Bitstream Vera Sans" font-size="8.00">Integer</text>
<polygon fill="palegoldenrod" stroke="palegoldenrod" points="202.65,-393 202.65,-405 314.65,-405 314.65,-393 202.65,-393"/>
<text text-anchor="start" x="204.65" y="-397.6" font-family="Bitstream Vera Sans" font-size="8.00">consents</text>
<polygon fill="palegoldenrod" stroke="palegoldenrod" points="314.65,-393 314.65,-405 361.65,-405 361.65,-393 314.65,-393"/>
<text text-anchor="start" x="316.65" y="-397.6" font-family="Bitstream Vera Sans" font-size="8.00">PROPERTY</text>
<polygon fill="palegoldenrod" stroke="palegoldenrod" points="202.65,-381 202.65,-393 314.65,-393 314.65,-381 202.65,-381"/>
<text text-anchor="start" x="204.65" y="-385.6" font-family="Bitstream Vera Sans" font-size="8.00">researcher</text>
<polygon fill="palegoldenrod" stroke="palegoldenrod" points="314.65,-381 314.65,-393 361.65,-393 361.65,-381 314.65,-381"/>
<text text-anchor="start" x="316.65" y="-385.6" font-family="Bitstream Vera Sans" font-size="8.00">PROPERTY</text>
<polygon fill="palegoldenrod" stroke="palegoldenrod" points="202.65,-369 202.65,-381 314.65,-381 314.65,-369 202.65,-369"/>
<text text-anchor="start" x="204.65" y="-373.6" font-family="Bitstream Vera Sans" font-size="8.00">sections</text>
<polygon fill="palegoldenrod" stroke="palegoldenrod" points="314.65,-369 314.65,-381 361.65,-381 361.65,-369 314.65,-369"/>
<text text-anchor="start" x="316.65" y="-373.6" font-family="Bitstream Vera Sans" font-size="8.00">PROPERTY</text>
<polygon fill="palegoldenrod" stroke="palegoldenrod" points="202.65,-357 202.65,-369 314.65,-369 314.65,-357 202.65,-357"/>
<text text-anchor="start" x="204.65" y="-361.6" font-family="Bitstream Vera Sans" font-size="8.00">stateSurveys</text>
<polygon fill="palegoldenrod" stroke="palegoldenrod" points="314.65,-357 314.65,-369 361.65,-369 361.65,-357 314.65,-357"/>
<text text-anchor="start" x="316.65" y="-361.6" font-family="Bitstream Vera Sans" font-size="8.00">PROPERTY</text>
<polygon fill="palegoldenrod" stroke="palegoldenrod" points="202.65,-345 202.65,-357 314.65,-357 314.65,-345 202.65,-345"/>
<text text-anchor="start" x="204.65" y="-349.6" font-family="Bitstream Vera Sans" font-size="8.00">all_sections()</text>
<polygon fill="palegoldenrod" stroke="palegoldenrod" points="314.65,-345 314.65,-357 361.65,-357 361.65,-345 314.65,-345"/>
<text text-anchor="start" x="316.65" y="-349.6" font-family="Bitstream Vera Sans" font-size="8.00">METHOD</text>
<polygon fill="palegoldenrod" stroke="palegoldenrod" points="202.65,-333 202.65,-345 314.65,-345 314.65,-333 202.65,-333"/>
<text text-anchor="start" x="204.65" y="-337.6" font-family="Bitstream Vera Sans" font-size="8.00">from_xml()</text>
<polygon fill="palegoldenrod" stroke="palegoldenrod" points="314.65,-333 314.65,-345 361.65,-345 361.65,-333 314.65,-333"/>
<text text-anchor="start" x="316.65" y="-337.6" font-family="Bitstream Vera Sans" font-size="8.00">METHOD</text>
<polygon fill="palegoldenrod" stroke="palegoldenrod" points="202.65,-321 202.65,-333 314.65,-333 314.65,-321 202.65,-321"/>
<text text-anchor="start" x="204.65" y="-325.6" font-family="Bitstream Vera Sans" font-size="8.00">is_duration()</text>
<polygon fill="palegoldenrod" stroke="palegoldenrod" points="314.65,-321 314.65,-333 361.65,-333 361.65,-321 314.65,-321"/>
<text text-anchor="start" x="316.65" y="-325.6" font-family="Bitstream Vera Sans" font-size="8.00">METHOD</text>
<polygon fill="palegoldenrod" stroke="palegoldenrod" points="202.65,-309 202.65,-321 314.65,-321 314.65,-309 202.65,-309"/>
<text text-anchor="start" x="204.65" y="-313.6" font-family="Bitstream Vera Sans" font-size="8.00">number_respondents()</text>
<polygon fill="palegoldenrod" stroke="palegoldenrod" points="314.65,-309 314.65,-321 361.65,-321 361.65,-309 314.65,-309"/>
<text text-anchor="start" x="316.65" y="-313.6" font-family="Bitstream Vera Sans" font-size="8.00">METHOD</text>
<polygon fill="palegoldenrod" stroke="palegoldenrod" points="202.65,-297 202.65,-309 314.65,-309 314.65,-297 202.65,-297"/>
<text text-anchor="start" x="204.65" y="-301.6" font-family="Bitstream Vera Sans" font-size="8.00">to_json()</text>
<polygon fill="palegoldenrod" stroke="palegoldenrod" points="314.65,-297 314.65,-309 361.65,-309 361.65,-297 314.65,-297"/>
<text text-anchor="start" x="316.65" y="-301.6" font-family="Bitstream Vera Sans" font-size="8.00">METHOD</text>
<polygon fill="palegoldenrod" stroke="palegoldenrod" points="202.65,-285 202.65,-297 314.65,-297 314.65,-285 202.65,-285"/>
<text text-anchor="start" x="204.65" y="-289.6" font-family="Bitstream Vera Sans" font-size="8.00">to_xml()</text>
<polygon fill="palegoldenrod" stroke="palegoldenrod" points="314.65,-285 314.65,-297 361.65,-297 361.65,-285 314.65,-285"/>
<text text-anchor="start" x="316.65" y="-289.6" font-family="Bitstream Vera Sans" font-size="8.00">METHOD</text>
</g>
<!-- GameImpatience&#45;&gt;Survey -->
<g id="edge2" class="edge"><title>GameImpatience&#45;&gt;Survey</title>
<path fill="none" stroke="black" d="M239.702,-659.138C245.265,-625.962 252.065,-585.414 258.557,-546.701"/>
<polygon fill="none" stroke="black" points="258.576,-546.591 255.623,-540.012 260.561,-534.756 263.513,-541.335 258.576,-546.591"/>
<text text-anchor="middle" x="277.15" y="-556.1" font-family="Bitstream Vera Sans" font-size="8.00">survey_id</text>
</g>
<!-- Game -->
<g id="node2" class="node"><title>Game</title>
<polygon fill="lightyellow" stroke="lightyellow" points="13.6501,-585.5 13.6501,-878.5 127.65,-878.5 127.65,-585.5 13.6501,-585.5"/>
<polygon fill="palegoldenrod" stroke="palegoldenrod" points="13.6501,-861 13.6501,-878 127.65,-878 127.65,-861 13.6501,-861"/>
<text text-anchor="start" x="58.1501" y="-868.1" font-family="Helvetica Bold" font-size="8.00">Game</text>
<text text-anchor="start" x="15.6501" y="-853.6" font-family="Bitstream Vera Sans" font-size="8.00">id</text>
<text text-anchor="start" x="82.6501" y="-853.6" font-family="Bitstream Vera Sans" font-size="8.00">Integer</text>
<text text-anchor="start" x="15.6501" y="-841.6" font-family="Bitstream Vera Sans" font-size="8.00">survey_id</text>
<text text-anchor="start" x="82.6501" y="-841.6" font-family="Bitstream Vera Sans" font-size="8.00">Integer</text>
<text text-anchor="start" x="15.6501" y="-829.6" font-family="Bitstream Vera Sans" font-size="8.00">userA_id</text>
<text text-anchor="start" x="82.6501" y="-829.6" font-family="Bitstream Vera Sans" font-size="8.00">Integer</text>
<text text-anchor="start" x="15.6501" y="-817.6" font-family="Bitstream Vera Sans" font-size="8.00">userB_id</text>
<text text-anchor="start" x="82.6501" y="-817.6" font-family="Bitstream Vera Sans" font-size="8.00">Integer</text>
<text text-anchor="start" x="15.6501" y="-805.6" font-family="Bitstream Vera Sans" font-size="8.00">answerA_id</text>
<text text-anchor="start" x="82.6501" y="-805.6" font-family="Bitstream Vera Sans" font-size="8.00">Integer</text>
<text text-anchor="start" x="15.6501" y="-793.6" font-family="Bitstream Vera Sans" font-size="8.00">answerB_id</text>
<text text-anchor="start" x="82.6501" y="-793.6" font-family="Bitstream Vera Sans" font-size="8.00">Integer</text>
<text text-anchor="start" x="15.6501" y="-781.6" font-family="Bitstream Vera Sans" font-size="8.00">prizeA</text>
<text text-anchor="start" x="82.6501" y="-781.6" font-family="Bitstream Vera Sans" font-size="8.00">Boolean</text>
<text text-anchor="start" x="15.6501" y="-769.6" font-family="Bitstream Vera Sans" font-size="8.00">prizeB</text>
<text text-anchor="start" x="82.6501" y="-769.6" font-family="Bitstream Vera Sans" font-size="8.00">Boolean</text>
<text text-anchor="start" x="15.6501" y="-757.6" font-family="Bitstream Vera Sans" font-size="8.00">repeatA</text>
<text text-anchor="start" x="82.6501" y="-757.6" font-family="Bitstream Vera Sans" font-size="8.00">Boolean</text>
<text text-anchor="start" x="15.6501" y="-745.6" font-family="Bitstream Vera Sans" font-size="8.00">repeatB</text>
<text text-anchor="start" x="82.6501" y="-745.6" font-family="Bitstream Vera Sans" font-size="8.00">Boolean</text>
<text text-anchor="start" x="15.6501" y="-733.6" font-family="Bitstream Vera Sans" font-size="8.00">moneyA</text>
<text text-anchor="start" x="82.6501" y="-733.6" font-family="Bitstream Vera Sans" font-size="8.00">Float</text>
<text text-anchor="start" x="15.6501" y="-721.6" font-family="Bitstream Vera Sans" font-size="8.00">moneyB</text>
<text text-anchor="start" x="82.6501" y="-721.6" font-family="Bitstream Vera Sans" font-size="8.00">Float</text>
<text text-anchor="start" x="15.6501" y="-709.6" font-family="Bitstream Vera Sans" font-size="8.00">is_real_money</text>
<text text-anchor="start" x="82.6501" y="-709.6" font-family="Bitstream Vera Sans" font-size="8.00">Boolean</text>
<text text-anchor="start" x="15.6501" y="-697.6" font-family="Bitstream Vera Sans" font-size="8.00">type</text>
<text text-anchor="start" x="82.6501" y="-697.6" font-family="Bitstream Vera Sans" font-size="8.00">String</text>
<polygon fill="palegoldenrod" stroke="palegoldenrod" points="13.6501,-681 13.6501,-693 80.6501,-693 80.6501,-681 13.6501,-681"/>
<text text-anchor="start" x="15.6501" y="-685.6" font-family="Bitstream Vera Sans" font-size="8.00">answerA</text>
<polygon fill="palegoldenrod" stroke="palegoldenrod" points="80.6501,-681 80.6501,-693 127.65,-693 127.65,-681 80.6501,-681"/>
<text text-anchor="start" x="82.6501" y="-685.6" font-family="Bitstream Vera Sans" font-size="8.00">PROPERTY</text>
<polygon fill="palegoldenrod" stroke="palegoldenrod" points="13.6501,-669 13.6501,-681 80.6501,-681 80.6501,-669 13.6501,-669"/>
<text text-anchor="start" x="15.6501" y="-673.6" font-family="Bitstream Vera Sans" font-size="8.00">answerB</text>
<polygon fill="palegoldenrod" stroke="palegoldenrod" points="80.6501,-669 80.6501,-681 127.65,-681 127.65,-669 80.6501,-669"/>
<text text-anchor="start" x="82.6501" y="-673.6" font-family="Bitstream Vera Sans" font-size="8.00">PROPERTY</text>
<polygon fill="palegoldenrod" stroke="palegoldenrod" points="13.6501,-657 13.6501,-669 80.6501,-669 80.6501,-657 13.6501,-657"/>
<text text-anchor="start" x="15.6501" y="-661.6" font-family="Bitstream Vera Sans" font-size="8.00">survey</text>
<polygon fill="palegoldenrod" stroke="palegoldenrod" points="80.6501,-657 80.6501,-669 127.65,-669 127.65,-657 80.6501,-657"/>
<text text-anchor="start" x="82.6501" y="-661.6" font-family="Bitstream Vera Sans" font-size="8.00">PROPERTY</text>
<polygon fill="palegoldenrod" stroke="palegoldenrod" points="13.6501,-645 13.6501,-657 80.6501,-657 80.6501,-645 13.6501,-645"/>
<text text-anchor="start" x="15.6501" y="-649.6" font-family="Bitstream Vera Sans" font-size="8.00">userA</text>
<polygon fill="palegoldenrod" stroke="palegoldenrod" points="80.6501,-645 80.6501,-657 127.65,-657 127.65,-645 80.6501,-645"/>
<text text-anchor="start" x="82.6501" y="-649.6" font-family="Bitstream Vera Sans" font-size="8.00">PROPERTY</text>
<polygon fill="palegoldenrod" stroke="palegoldenrod" points="13.6501,-633 13.6501,-645 80.6501,-645 80.6501,-633 13.6501,-633"/>
<text text-anchor="start" x="15.6501" y="-637.6" font-family="Bitstream Vera Sans" font-size="8.00">userB</text>
<polygon fill="palegoldenrod" stroke="palegoldenrod" points="80.6501,-633 80.6501,-645 127.65,-645 127.65,-633 80.6501,-633"/>
<text text-anchor="start" x="82.6501" y="-637.6" font-family="Bitstream Vera Sans" font-size="8.00">PROPERTY</text>
<polygon fill="palegoldenrod" stroke="palegoldenrod" points="13.6501,-621 13.6501,-633 80.6501,-633 80.6501,-621 13.6501,-621"/>
<text text-anchor="start" x="15.6501" y="-625.6" font-family="Bitstream Vera Sans" font-size="8.00">cashInitA()</text>
<polygon fill="palegoldenrod" stroke="palegoldenrod" points="80.6501,-621 80.6501,-633 127.65,-633 127.65,-621 80.6501,-621"/>
<text text-anchor="start" x="82.6501" y="-625.6" font-family="Bitstream Vera Sans" font-size="8.00">METHOD</text>
<polygon fill="palegoldenrod" stroke="palegoldenrod" points="13.6501,-609 13.6501,-621 80.6501,-621 80.6501,-609 13.6501,-609"/>
<text text-anchor="start" x="15.6501" y="-613.6" font-family="Bitstream Vera Sans" font-size="8.00">cashInitB()</text>
<polygon fill="palegoldenrod" stroke="palegoldenrod" points="80.6501,-609 80.6501,-621 127.65,-621 127.65,-609 80.6501,-609"/>
<text text-anchor="start" x="82.6501" y="-613.6" font-family="Bitstream Vera Sans" font-size="8.00">METHOD</text>
<polygon fill="palegoldenrod" stroke="palegoldenrod" points="13.6501,-597 13.6501,-609 80.6501,-609 80.6501,-597 13.6501,-597"/>
<text text-anchor="start" x="15.6501" y="-601.6" font-family="Bitstream Vera Sans" font-size="8.00">statusA()</text>
<polygon fill="palegoldenrod" stroke="palegoldenrod" points="80.6501,-597 80.6501,-609 127.65,-609 127.65,-597 80.6501,-597"/>
<text text-anchor="start" x="82.6501" y="-601.6" font-family="Bitstream Vera Sans" font-size="8.00">METHOD</text>
<polygon fill="palegoldenrod" stroke="palegoldenrod" points="13.6501,-585 13.6501,-597 80.6501,-597 80.6501,-585 13.6501,-585"/>
<text text-anchor="start" x="15.6501" y="-589.6" font-family="Bitstream Vera Sans" font-size="8.00">statusB()</text>
<polygon fill="palegoldenrod" stroke="palegoldenrod" points="80.6501,-585 80.6501,-597 127.65,-597 127.65,-585 80.6501,-585"/>
<text text-anchor="start" x="82.6501" y="-589.6" font-family="Bitstream Vera Sans" font-size="8.00">METHOD</text>
</g>
<!-- Game&#45;&gt;User -->
<g id="edge8" class="edge"><title>Game&#45;&gt;User</title>
<path fill="none" stroke="black" d="M62.8842,-581.364C61.3751,-493.123 64.7873,-379.755 84.6501,-281 86.9577,-269.527 90.0326,-257.791 93.5708,-246.17"/>
<polygon fill="none" stroke="black" points="93.6136,-246.035 91.6212,-239.105 97.2523,-234.6 99.2446,-241.531 93.6136,-246.035"/>
<text text-anchor="middle" x="103.15" y="-406.1" font-family="Bitstream Vera Sans" font-size="8.00">userA_id</text>
</g>
<!-- Game&#45;&gt;User -->
<g id="edge10" class="edge"><title>Game&#45;&gt;User</title>
<path fill="none" stroke="black" d="M21.6817,-581.361C0.285106,-491.977 -13.1365,-377.44 20.6501,-281 29.0005,-257.164 42.7607,-234.272 58.1169,-213.759"/>
<polygon fill="none" stroke="black" points="58.1724,-213.688 58.682,-206.494 65.5178,-204.198 65.0082,-211.391 58.1724,-213.688"/>
<text text-anchor="middle" x="39.6501" y="-406.1" font-family="Bitstream Vera Sans" font-size="8.00">userB_id</text>
</g>
<!-- Game&#45;&gt;Survey -->
<g id="edge6" class="edge"><title>Game&#45;&gt;Survey</title>
<path fill="none" stroke="black" d="M135.851,-609.815C141.708,-599.969 147.684,-590.256 153.65,-581 164.005,-564.937 175.355,-548.398 186.884,-532.221"/>
<polygon fill="none" stroke="black" points="187.079,-531.95 187.33,-524.743 194.079,-522.203 193.828,-529.409 187.079,-531.95"/>
<text text-anchor="middle" x="191.15" y="-556.1" font-family="Bitstream Vera Sans" font-size="8.00">survey_id</text>
</g>
<!-- Raffle -->
<g id="node3" class="node"><title>Raffle</title>
<polygon fill="lightyellow" stroke="lightyellow" points="342.65,-687.5 342.65,-776.5 420.65,-776.5 420.65,-687.5 342.65,-687.5"/>
<polygon fill="palegoldenrod" stroke="palegoldenrod" points="342.65,-759 342.65,-776 420.65,-776 420.65,-759 342.65,-759"/>
<text text-anchor="start" x="371.15" y="-766.1" font-family="Helvetica Bold" font-size="8.00">Raffle</text>
<text text-anchor="start" x="344.65" y="-751.6" font-family="Bitstream Vera Sans" font-size="8.00">id</text>
<text text-anchor="start" x="383.65" y="-751.6" font-family="Bitstream Vera Sans" font-size="8.00">Integer</text>
<text text-anchor="start" x="344.65" y="-739.6" font-family="Bitstream Vera Sans" font-size="8.00">survey_id</text>
<text text-anchor="start" x="383.65" y="-739.6" font-family="Bitstream Vera Sans" font-size="8.00">Integer</text>
<text text-anchor="start" x="344.65" y="-727.6" font-family="Bitstream Vera Sans" font-size="8.00">user_id</text>
<text text-anchor="start" x="383.65" y="-727.6" font-family="Bitstream Vera Sans" font-size="8.00">Integer</text>
<text text-anchor="start" x="344.65" y="-715.6" font-family="Bitstream Vera Sans" font-size="8.00">prize</text>
<text text-anchor="start" x="383.65" y="-715.6" font-family="Bitstream Vera Sans" font-size="8.00">Integer</text>
<polygon fill="palegoldenrod" stroke="palegoldenrod" points="342.65,-699 342.65,-711 381.65,-711 381.65,-699 342.65,-699"/>
<text text-anchor="start" x="344.65" y="-703.6" font-family="Bitstream Vera Sans" font-size="8.00">survey</text>
<polygon fill="palegoldenrod" stroke="palegoldenrod" points="381.65,-699 381.65,-711 420.65,-711 420.65,-699 381.65,-699"/>
<text text-anchor="start" x="383.65" y="-703.6" font-family="Bitstream Vera Sans" font-size="8.00">PROPERTY</text>
<polygon fill="palegoldenrod" stroke="palegoldenrod" points="342.65,-687 342.65,-699 381.65,-699 381.65,-687 342.65,-687"/>
<text text-anchor="start" x="344.65" y="-691.6" font-family="Bitstream Vera Sans" font-size="8.00">user</text>
<polygon fill="palegoldenrod" stroke="palegoldenrod" points="381.65,-687 381.65,-699 420.65,-699 420.65,-687 381.65,-687"/>
<text text-anchor="start" x="383.65" y="-691.6" font-family="Bitstream Vera Sans" font-size="8.00">PROPERTY</text>
</g>
<!-- Raffle&#45;&gt;User -->
<g id="edge14" class="edge"><title>Raffle&#45;&gt;User</title>
<path fill="none" stroke="black" d="M394.982,-683.366C416.299,-597.066 448.85,-411.699 377.65,-281 346.807,-224.382 285.156,-185.106 232.877,-160.393"/>
<polygon fill="none" stroke="black" points="232.782,-160.349 225.66,-161.479 221.877,-155.339 228.999,-154.21 232.782,-160.349"/>
<text text-anchor="middle" x="436.65" y="-406.1" font-family="Bitstream Vera Sans" font-size="8.00">user_id</text>
</g>
<!-- Raffle&#45;&gt;Survey -->
<g id="edge12" class="edge"><title>Raffle&#45;&gt;Survey</title>
<path fill="none" stroke="black" d="M366.895,-683.488C355.628,-647.209 339.504,-595.289 324.305,-546.35"/>
<polygon fill="none" stroke="black" points="324.23,-546.106 318.63,-541.563 320.671,-534.646 326.27,-539.19 324.23,-546.106"/>
<text text-anchor="middle" x="350.15" y="-556.1" font-family="Bitstream Vera Sans" font-size="8.00">survey_id</text>
</g>
<!-- Survey&#45;&gt;User -->
<g id="edge16" class="edge"><title>Survey&#45;&gt;User</title>
<path fill="none" stroke="black" d="M219.714,-281.333C213.844,-269.423 207.906,-257.373 202.07,-245.533"/>
<polygon fill="none" stroke="black" points="202.05,-245.493 195.81,-241.879 196.745,-234.729 202.985,-238.342 202.05,-245.493"/>
<text text-anchor="middle" x="238.15" y="-256.1" font-family="Bitstream Vera Sans" font-size="8.00">researcher_id</text>
</g>
</g>
</svg>
