<?xml version="1.0" encoding="UTF-8" standalone="no"?>
<!DOCTYPE svg PUBLIC "-//W3C//DTD SVG 1.1//EN"
 "http://www.w3.org/Graphics/SVG/1.1/DTD/svg11.dtd">
<!-- Generated by graphviz version 2.28.0 (20130927.1109)
 -->
<!-- Title: G Pages: 1 -->
<svg width="536pt" height="1083pt"
 viewBox="0.00 0.00 536.00 1083.00" xmlns="http://www.w3.org/2000/svg" xmlns:xlink="http://www.w3.org/1999/xlink">
<g id="graph1" class="graph" transform="scale(1 1) rotate(0) translate(4 1079)">
<title>G</title>
<polygon fill="white" stroke="white" points="-4,5 -4,-1079 533,-1079 533,5 -4,5"/>
<text text-anchor="middle" x="264" y="-6.6" font-family="Bitstream Vera Sans" font-size="8.00">generated by sadisplay v0.3.8dev</text>
<!-- stateSurvey -->
<g id="node1" class="node"><title>stateSurvey</title>
<polygon fill="lightyellow" stroke="lightyellow" points="98,-357.5 98,-518.5 200,-518.5 200,-357.5 98,-357.5"/>
<polygon fill="palegoldenrod" stroke="palegoldenrod" points="98,-501 98,-518 200,-518 200,-501 98,-501"/>
<text text-anchor="start" x="123" y="-508.1" font-family="Helvetica Bold" font-size="8.00">stateSurvey</text>
<text text-anchor="start" x="100" y="-493.6" font-family="Bitstream Vera Sans" font-size="8.00">id</text>
<text text-anchor="start" x="157" y="-493.6" font-family="Bitstream Vera Sans" font-size="8.00">INTEGER</text>
<text text-anchor="start" x="100" y="-481.6" font-family="Bitstream Vera Sans" font-size="8.00">created</text>
<text text-anchor="start" x="157" y="-481.6" font-family="Bitstream Vera Sans" font-size="8.00">DATETIME</text>
<text text-anchor="start" x="100" y="-469.6" font-family="Bitstream Vera Sans" font-size="8.00">start_date</text>
<text text-anchor="start" x="157" y="-469.6" font-family="Bitstream Vera Sans" font-size="8.00">DATETIME</text>
<text text-anchor="start" x="100" y="-457.6" font-family="Bitstream Vera Sans" font-size="8.00">endDate</text>
<text text-anchor="start" x="157" y="-457.6" font-family="Bitstream Vera Sans" font-size="8.00">DATETIME</text>
<text text-anchor="start" x="100" y="-445.6" font-family="Bitstream Vera Sans" font-size="8.00">ip</text>
<text text-anchor="start" x="157" y="-445.6" font-family="Bitstream Vera Sans" font-size="8.00">VARCHAR</text>
<text text-anchor="start" x="100" y="-433.6" font-family="Bitstream Vera Sans" font-size="8.00">consented</text>
<text text-anchor="start" x="157" y="-433.6" font-family="Bitstream Vera Sans" font-size="8.00">BOOLEAN</text>
<text text-anchor="start" x="100" y="-421.6" font-family="Bitstream Vera Sans" font-size="8.00">status</text>
<text text-anchor="start" x="157" y="-421.6" font-family="Bitstream Vera Sans" font-size="8.00">INTEGER</text>
<text text-anchor="start" x="100" y="-409.6" font-family="Bitstream Vera Sans" font-size="8.00">sequence</text>
<text text-anchor="start" x="157" y="-409.6" font-family="Bitstream Vera Sans" font-size="8.00">BLOB</text>
<text text-anchor="start" x="100" y="-397.6" font-family="Bitstream Vera Sans" font-size="8.00">sectionTime</text>
<text text-anchor="start" x="157" y="-397.6" font-family="Bitstream Vera Sans" font-size="8.00">BLOB</text>
<text text-anchor="start" x="100" y="-385.6" font-family="Bitstream Vera Sans" font-size="8.00">index</text>
<text text-anchor="start" x="157" y="-385.6" font-family="Bitstream Vera Sans" font-size="8.00">INTEGER</text>
<text text-anchor="start" x="100" y="-373.6" font-family="Bitstream Vera Sans" font-size="8.00">user_id</text>
<text text-anchor="start" x="157" y="-373.6" font-family="Bitstream Vera Sans" font-size="8.00">INTEGER</text>
<text text-anchor="start" x="100" y="-361.6" font-family="Bitstream Vera Sans" font-size="8.00">survey_id</text>
<text text-anchor="start" x="157" y="-361.6" font-family="Bitstream Vera Sans" font-size="8.00">INTEGER</text>
</g>
<!-- survey -->
<g id="node5" class="node"><title>survey</title>
<polygon fill="lightyellow" stroke="lightyellow" points="205.5,-177.5 205.5,-302.5 362.5,-302.5 362.5,-177.5 205.5,-177.5"/>
<polygon fill="palegoldenrod" stroke="palegoldenrod" points="206,-285 206,-302 363,-302 363,-285 206,-285"/>
<text text-anchor="start" x="270.5" y="-292.1" font-family="Helvetica Bold" font-size="8.00">survey</text>
<text text-anchor="start" x="208" y="-277.6" font-family="Bitstream Vera Sans" font-size="8.00">id</text>
<text text-anchor="start" x="320" y="-277.6" font-family="Bitstream Vera Sans" font-size="8.00">INTEGER</text>
<text text-anchor="start" x="208" y="-265.6" font-family="Bitstream Vera Sans" font-size="8.00">title</text>
<text text-anchor="start" x="320" y="-265.6" font-family="Bitstream Vera Sans" font-size="8.00">VARCHAR</text>
<text text-anchor="start" x="208" y="-253.6" font-family="Bitstream Vera Sans" font-size="8.00">description</text>
<text text-anchor="start" x="320" y="-253.6" font-family="Bitstream Vera Sans" font-size="8.00">VARCHAR</text>
<text text-anchor="start" x="208" y="-241.6" font-family="Bitstream Vera Sans" font-size="8.00">created</text>
<text text-anchor="start" x="320" y="-241.6" font-family="Bitstream Vera Sans" font-size="8.00">DATETIME</text>
<text text-anchor="start" x="208" y="-229.6" font-family="Bitstream Vera Sans" font-size="8.00">startDate</text>
<text text-anchor="start" x="320" y="-229.6" font-family="Bitstream Vera Sans" font-size="8.00">DATETIME</text>
<text text-anchor="start" x="208" y="-217.6" font-family="Bitstream Vera Sans" font-size="8.00">endDate</text>
<text text-anchor="start" x="320" y="-217.6" font-family="Bitstream Vera Sans" font-size="8.00">DATETIME</text>
<text text-anchor="start" x="208" y="-205.6" font-family="Bitstream Vera Sans" font-size="8.00">maxNumberRespondents</text>
<text text-anchor="start" x="320" y="-205.6" font-family="Bitstream Vera Sans" font-size="8.00">INTEGER</text>
<text text-anchor="start" x="208" y="-193.6" font-family="Bitstream Vera Sans" font-size="8.00">duration</text>
<text text-anchor="start" x="320" y="-193.6" font-family="Bitstream Vera Sans" font-size="8.00">INTEGER</text>
<text text-anchor="start" x="208" y="-181.6" font-family="Bitstream Vera Sans" font-size="8.00">researcher_id</text>
<text text-anchor="start" x="320" y="-181.6" font-family="Bitstream Vera Sans" font-size="8.00">INTEGER</text>
</g>
<!-- stateSurvey&#45;&gt;survey -->
<g id="edge4" class="edge"><title>stateSurvey&#45;&gt;survey</title>
<path fill="none" stroke="black" d="M206.644,-353.31C215.042,-341.117 223.648,-328.622 231.927,-316.602"/>
<polygon fill="none" stroke="black" points="231.986,-316.516 232.096,-309.306 238.793,-306.634 238.684,-313.844 231.986,-316.516"/>
<text text-anchor="middle" x="245.5" y="-328.1" font-family="Bitstream Vera Sans" font-size="8.00">survey_id</text>
</g>
<!-- user -->
<g id="node6" class="node"><title>user</title>
<polygon fill="lightyellow" stroke="lightyellow" points="88,-21.5 88,-122.5 206,-122.5 206,-21.5 88,-21.5"/>
<polygon fill="palegoldenrod" stroke="palegoldenrod" points="88,-105 88,-122 206,-122 206,-105 88,-105"/>
<text text-anchor="start" x="137.5" y="-112.1" font-family="Helvetica Bold" font-size="8.00">user</text>
<text text-anchor="start" x="90" y="-97.6" font-family="Bitstream Vera Sans" font-size="8.00">id</text>
<text text-anchor="start" x="163" y="-97.6" font-family="Bitstream Vera Sans" font-size="8.00">INTEGER</text>
<text text-anchor="start" x="90" y="-85.6" font-family="Bitstream Vera Sans" font-size="8.00">created</text>
<text text-anchor="start" x="163" y="-85.6" font-family="Bitstream Vera Sans" font-size="8.00">DATETIME</text>
<text text-anchor="start" x="90" y="-73.6" font-family="Bitstream Vera Sans" font-size="8.00">email</text>
<text text-anchor="start" x="163" y="-73.6" font-family="Bitstream Vera Sans" font-size="8.00">VARCHAR</text>
<text text-anchor="start" x="90" y="-61.6" font-family="Bitstream Vera Sans" font-size="8.00">nickname</text>
<text text-anchor="start" x="163" y="-61.6" font-family="Bitstream Vera Sans" font-size="8.00">VARCHAR</text>
<text text-anchor="start" x="90" y="-49.6" font-family="Bitstream Vera Sans" font-size="8.00">password_hash</text>
<text text-anchor="start" x="163" y="-49.6" font-family="Bitstream Vera Sans" font-size="8.00">VARCHAR</text>
<text text-anchor="start" x="90" y="-37.6" font-family="Bitstream Vera Sans" font-size="8.00">confirmed</text>
<text text-anchor="start" x="163" y="-37.6" font-family="Bitstream Vera Sans" font-size="8.00">BOOLEAN</text>
<text text-anchor="start" x="90" y="-25.6" font-family="Bitstream Vera Sans" font-size="8.00">role</text>
<text text-anchor="start" x="163" y="-25.6" font-family="Bitstream Vera Sans" font-size="8.00">SMALLINT</text>
</g>
<!-- stateSurvey&#45;&gt;user -->
<g id="edge2" class="edge"><title>stateSurvey&#45;&gt;user</title>
<path fill="none" stroke="black" d="M148.541,-353.491C148.182,-288.2 147.691,-198.708 147.36,-138.523"/>
<polygon fill="none" stroke="black" points="147.36,-138.519 143.327,-132.541 147.294,-126.519 151.327,-132.497 147.36,-138.519"/>
<text text-anchor="middle" x="165" y="-238.1" font-family="Bitstream Vera Sans" font-size="8.00">user_id</text>
</g>
<!-- consent -->
<g id="node2" class="node"><title>consent</title>
<polygon fill="lightyellow" stroke="lightyellow" points="234.5,-411.5 234.5,-464.5 333.5,-464.5 333.5,-411.5 234.5,-411.5"/>
<polygon fill="palegoldenrod" stroke="palegoldenrod" points="235,-447 235,-464 334,-464 334,-447 235,-447"/>
<text text-anchor="start" x="268" y="-454.1" font-family="Helvetica Bold" font-size="8.00">consent</text>
<text text-anchor="start" x="237" y="-439.6" font-family="Bitstream Vera Sans" font-size="8.00">id</text>
<text text-anchor="start" x="287" y="-439.6" font-family="Bitstream Vera Sans" font-size="8.00">INTEGER</text>
<text text-anchor="start" x="237" y="-427.6" font-family="Bitstream Vera Sans" font-size="8.00">text</text>
<text text-anchor="start" x="287" y="-427.6" font-family="Bitstream Vera Sans" font-size="8.00">VARCHAR</text>
<text text-anchor="start" x="237" y="-415.6" font-family="Bitstream Vera Sans" font-size="8.00">survey_id</text>
<text text-anchor="start" x="287" y="-415.6" font-family="Bitstream Vera Sans" font-size="8.00">INTEGER</text>
</g>
<!-- consent&#45;&gt;survey -->
<g id="edge6" class="edge"><title>consent&#45;&gt;survey</title>
<path fill="none" stroke="black" d="M284,-407.232C284,-383.786 284,-349.995 284,-318.995"/>
<polygon fill="none" stroke="black" points="284,-318.827 280,-312.827 284,-306.827 288,-312.827 284,-318.827"/>
<text text-anchor="middle" x="304.5" y="-328.1" font-family="Bitstream Vera Sans" font-size="8.00">survey_id</text>
</g>
<!-- section -->
<g id="node3" class="node"><title>section</title>
<polygon fill="lightyellow" stroke="lightyellow" points="367.5,-387.5 367.5,-488.5 462.5,-488.5 462.5,-387.5 367.5,-387.5"/>
<polygon fill="palegoldenrod" stroke="palegoldenrod" points="368,-471 368,-488 463,-488 463,-471 368,-471"/>
<text text-anchor="start" x="399.5" y="-478.1" font-family="Helvetica Bold" font-size="8.00">section</text>
<text text-anchor="start" x="370" y="-463.6" font-family="Bitstream Vera Sans" font-size="8.00">id</text>
<text text-anchor="start" x="423" y="-463.6" font-family="Bitstream Vera Sans" font-size="8.00">INTEGER</text>
<text text-anchor="start" x="370" y="-451.6" font-family="Bitstream Vera Sans" font-size="8.00">title</text>
<text text-anchor="start" x="423" y="-451.6" font-family="Bitstream Vera Sans" font-size="8.00">VARCHAR</text>
<text text-anchor="start" x="370" y="-439.6" font-family="Bitstream Vera Sans" font-size="8.00">description</text>
<text text-anchor="start" x="423" y="-439.6" font-family="Bitstream Vera Sans" font-size="8.00">VARCHAR</text>
<text text-anchor="start" x="370" y="-427.6" font-family="Bitstream Vera Sans" font-size="8.00">sequence</text>
<text text-anchor="start" x="423" y="-427.6" font-family="Bitstream Vera Sans" font-size="8.00">INTEGER</text>
<text text-anchor="start" x="370" y="-415.6" font-family="Bitstream Vera Sans" font-size="8.00">percent</text>
<text text-anchor="start" x="423" y="-415.6" font-family="Bitstream Vera Sans" font-size="8.00">FLOAT</text>
<text text-anchor="start" x="370" y="-403.6" font-family="Bitstream Vera Sans" font-size="8.00">survey_id</text>
<text text-anchor="start" x="423" y="-403.6" font-family="Bitstream Vera Sans" font-size="8.00">INTEGER</text>
<text text-anchor="start" x="370" y="-391.6" font-family="Bitstream Vera Sans" font-size="8.00">parent_id</text>
<text text-anchor="start" x="423" y="-391.6" font-family="Bitstream Vera Sans" font-size="8.00">INTEGER</text>
</g>
<!-- section&#45;&gt;section -->
<g id="edge10" class="edge"><title>section&#45;&gt;section</title>
<path fill="none" stroke="black" d="M470.387,-457.211C480.722,-454.845 488,-448.441 488,-438 488,-431.964 485.567,-427.277 481.518,-423.939"/>
<polygon fill="none" stroke="black" points="481.278,-423.828 474.153,-424.939 470.387,-418.789 477.512,-417.679 481.278,-423.828"/>
<text text-anchor="middle" x="508" y="-436.1" font-family="Bitstream Vera Sans" font-size="8.00">parent_id</text>
</g>
<!-- section&#45;&gt;survey -->
<g id="edge8" class="edge"><title>section&#45;&gt;survey</title>
<path fill="none" stroke="black" d="M379.204,-383.442C365.474,-362.899 349.534,-339.051 334.67,-316.812"/>
<polygon fill="none" stroke="black" points="334.597,-316.702 327.937,-313.936 327.929,-306.725 334.588,-309.491 334.597,-316.702"/>
<text text-anchor="middle" x="366.5" y="-328.1" font-family="Bitstream Vera Sans" font-size="8.00">survey_id</text>
</g>
<!-- question -->
<g id="node4" class="node"><title>question</title>
<polygon fill="lightyellow" stroke="lightyellow" points="141.5,-573.5 141.5,-878.5 276.5,-878.5 276.5,-573.5 141.5,-573.5"/>
<polygon fill="palegoldenrod" stroke="palegoldenrod" points="142,-861 142,-878 277,-878 277,-861 142,-861"/>
<text text-anchor="start" x="191" y="-868.1" font-family="Helvetica Bold" font-size="8.00">question</text>
<text text-anchor="start" x="144" y="-853.6" font-family="Bitstream Vera Sans" font-size="8.00">id</text>
<text text-anchor="start" x="234" y="-853.6" font-family="Bitstream Vera Sans" font-size="8.00">INTEGER</text>
<text text-anchor="start" x="144" y="-841.6" font-family="Bitstream Vera Sans" font-size="8.00">text</text>
<text text-anchor="start" x="234" y="-841.6" font-family="Bitstream Vera Sans" font-size="8.00">VARCHAR</text>
<text text-anchor="start" x="144" y="-829.6" font-family="Bitstream Vera Sans" font-size="8.00">position</text>
<text text-anchor="start" x="234" y="-829.6" font-family="Bitstream Vera Sans" font-size="8.00">INTEGER</text>
<text text-anchor="start" x="144" y="-817.6" font-family="Bitstream Vera Sans" font-size="8.00">required</text>
<text text-anchor="start" x="234" y="-817.6" font-family="Bitstream Vera Sans" font-size="8.00">BOOLEAN</text>
<text text-anchor="start" x="144" y="-805.6" font-family="Bitstream Vera Sans" font-size="8.00">container</text>
<text text-anchor="start" x="234" y="-805.6" font-family="Bitstream Vera Sans" font-size="8.00">BLOB</text>
<text text-anchor="start" x="144" y="-793.6" font-family="Bitstream Vera Sans" font-size="8.00">expectedAnswer</text>
<text text-anchor="start" x="234" y="-793.6" font-family="Bitstream Vera Sans" font-size="8.00">VARCHAR</text>
<text text-anchor="start" x="144" y="-781.6" font-family="Bitstream Vera Sans" font-size="8.00">maxNumberAttempt</text>
<text text-anchor="start" x="234" y="-781.6" font-family="Bitstream Vera Sans" font-size="8.00">INTEGER</text>
<text text-anchor="start" x="144" y="-769.6" font-family="Bitstream Vera Sans" font-size="8.00">decision</text>
<text text-anchor="start" x="234" y="-769.6" font-family="Bitstream Vera Sans" font-size="8.00">VARCHAR</text>
<text text-anchor="start" x="144" y="-757.6" font-family="Bitstream Vera Sans" font-size="8.00">is_real_money</text>
<text text-anchor="start" x="234" y="-757.6" font-family="Bitstream Vera Sans" font-size="8.00">BOOLEAN</text>
<text text-anchor="start" x="144" y="-745.6" font-family="Bitstream Vera Sans" font-size="8.00">type</text>
<text text-anchor="start" x="234" y="-745.6" font-family="Bitstream Vera Sans" font-size="8.00">VARCHAR</text>
<text text-anchor="start" x="144" y="-733.6" font-family="Bitstream Vera Sans" font-size="8.00">section_id</text>
<text text-anchor="start" x="234" y="-733.6" font-family="Bitstream Vera Sans" font-size="8.00">INTEGER</text>
<text text-anchor="start" x="144" y="-721.6" font-family="Bitstream Vera Sans" font-size="8.00">isNumber</text>
<text text-anchor="start" x="234" y="-721.6" font-family="Bitstream Vera Sans" font-size="8.00">BOOLEAN</text>
<text text-anchor="start" x="144" y="-709.6" font-family="Bitstream Vera Sans" font-size="8.00">isNumberFloat</text>
<text text-anchor="start" x="234" y="-709.6" font-family="Bitstream Vera Sans" font-size="8.00">BOOLEAN</text>
<text text-anchor="start" x="144" y="-697.6" font-family="Bitstream Vera Sans" font-size="8.00">regularExpression</text>
<text text-anchor="start" x="234" y="-697.6" font-family="Bitstream Vera Sans" font-size="8.00">VARCHAR</text>
<text text-anchor="start" x="144" y="-685.6" font-family="Bitstream Vera Sans" font-size="8.00">errorMessage</text>
<text text-anchor="start" x="234" y="-685.6" font-family="Bitstream Vera Sans" font-size="8.00">VARCHAR</text>
<text text-anchor="start" x="144" y="-673.6" font-family="Bitstream Vera Sans" font-size="8.00">range_min</text>
<text text-anchor="start" x="234" y="-673.6" font-family="Bitstream Vera Sans" font-size="8.00">INTEGER</text>
<text text-anchor="start" x="144" y="-661.6" font-family="Bitstream Vera Sans" font-size="8.00">range_max</text>
<text text-anchor="start" x="234" y="-661.6" font-family="Bitstream Vera Sans" font-size="8.00">INTEGER</text>
<text text-anchor="start" x="144" y="-649.6" font-family="Bitstream Vera Sans" font-size="8.00">range_step</text>
<text text-anchor="start" x="234" y="-649.6" font-family="Bitstream Vera Sans" font-size="8.00">FLOAT</text>
<text text-anchor="start" x="144" y="-637.6" font-family="Bitstream Vera Sans" font-size="8.00">render</text>
<text text-anchor="start" x="234" y="-637.6" font-family="Bitstream Vera Sans" font-size="8.00">VARCHAR</text>
<text text-anchor="start" x="144" y="-625.6" font-family="Bitstream Vera Sans" font-size="8.00">choices</text>
<text text-anchor="start" x="234" y="-625.6" font-family="Bitstream Vera Sans" font-size="8.00">BLOB</text>
<text text-anchor="start" x="144" y="-613.6" font-family="Bitstream Vera Sans" font-size="8.00">minLikert</text>
<text text-anchor="start" x="234" y="-613.6" font-family="Bitstream Vera Sans" font-size="8.00">INTEGER</text>
<text text-anchor="start" x="144" y="-601.6" font-family="Bitstream Vera Sans" font-size="8.00">maxLikert</text>
<text text-anchor="start" x="234" y="-601.6" font-family="Bitstream Vera Sans" font-size="8.00">INTEGER</text>
<text text-anchor="start" x="144" y="-589.6" font-family="Bitstream Vera Sans" font-size="8.00">labelMin</text>
<text text-anchor="start" x="234" y="-589.6" font-family="Bitstream Vera Sans" font-size="8.00">VARCHAR</text>
<text text-anchor="start" x="144" y="-577.6" font-family="Bitstream Vera Sans" font-size="8.00">labelMax</text>
<text text-anchor="start" x="234" y="-577.6" font-family="Bitstream Vera Sans" font-size="8.00">VARCHAR</text>
</g>
<!-- question&#45;&gt;section -->
<g id="edge12" class="edge"><title>question&#45;&gt;section</title>
<path fill="none" stroke="black" d="M284.537,-620.128C312.964,-580.661 344.402,-537.014 369.294,-502.456"/>
<polygon fill="none" stroke="black" points="369.451,-502.238 369.712,-495.032 376.464,-492.501 376.203,-499.707 369.451,-502.238"/>
<text text-anchor="middle" x="358.5" y="-544.1" font-family="Bitstream Vera Sans" font-size="8.00">section_id</text>
</g>
<!-- survey&#45;&gt;user -->
<g id="edge14" class="edge"><title>survey&#45;&gt;user</title>
<path fill="none" stroke="black" d="M229.854,-173.392C219.762,-161.164 209.235,-148.409 199.203,-136.254"/>
<polygon fill="none" stroke="black" points="198.92,-135.911 192.016,-133.829 191.282,-126.655 198.186,-128.737 198.92,-135.911"/>
<text text-anchor="middle" x="241.5" y="-148.1" font-family="Bitstream Vera Sans" font-size="8.00">researcher_id</text>
</g>
<!-- answer -->
<g id="node7" class="node"><title>answer</title>
<polygon fill="lightyellow" stroke="lightyellow" points="7.5,-933.5 7.5,-1070.5 124.5,-1070.5 124.5,-933.5 7.5,-933.5"/>
<polygon fill="palegoldenrod" stroke="palegoldenrod" points="8,-1053 8,-1070 125,-1070 125,-1053 8,-1053"/>
<text text-anchor="start" x="51" y="-1060.1" font-family="Helvetica Bold" font-size="8.00">answer</text>
<text text-anchor="start" x="10" y="-1045.6" font-family="Bitstream Vera Sans" font-size="8.00">id</text>
<text text-anchor="start" x="82" y="-1045.6" font-family="Bitstream Vera Sans" font-size="8.00">INTEGER</text>
<text text-anchor="start" x="10" y="-1033.6" font-family="Bitstream Vera Sans" font-size="8.00">created</text>
<text text-anchor="start" x="82" y="-1033.6" font-family="Bitstream Vera Sans" font-size="8.00">DATETIME</text>
<text text-anchor="start" x="10" y="-1021.6" font-family="Bitstream Vera Sans" font-size="8.00">answerNumeric</text>
<text text-anchor="start" x="82" y="-1021.6" font-family="Bitstream Vera Sans" font-size="8.00">INTEGER</text>
<text text-anchor="start" x="10" y="-1009.6" font-family="Bitstream Vera Sans" font-size="8.00">answerText</text>
<text text-anchor="start" x="82" y="-1009.6" font-family="Bitstream Vera Sans" font-size="8.00">VARCHAR</text>
<text text-anchor="start" x="10" y="-997.6" font-family="Bitstream Vera Sans" font-size="8.00">answerYN</text>
<text text-anchor="start" x="82" y="-997.6" font-family="Bitstream Vera Sans" font-size="8.00">BOOLEAN</text>
<text text-anchor="start" x="10" y="-985.6" font-family="Bitstream Vera Sans" font-size="8.00">numberAttempt</text>
<text text-anchor="start" x="82" y="-985.6" font-family="Bitstream Vera Sans" font-size="8.00">INTEGER</text>
<text text-anchor="start" x="10" y="-973.6" font-family="Bitstream Vera Sans" font-size="8.00">globalTime</text>
<text text-anchor="start" x="82" y="-973.6" font-family="Bitstream Vera Sans" font-size="8.00">INTEGER</text>
<text text-anchor="start" x="10" y="-961.6" font-family="Bitstream Vera Sans" font-size="8.00">differentialTime</text>
<text text-anchor="start" x="82" y="-961.6" font-family="Bitstream Vera Sans" font-size="8.00">INTEGER</text>
<text text-anchor="start" x="10" y="-949.6" font-family="Bitstream Vera Sans" font-size="8.00">user_id</text>
<text text-anchor="start" x="82" y="-949.6" font-family="Bitstream Vera Sans" font-size="8.00">INTEGER</text>
<text text-anchor="start" x="10" y="-937.6" font-family="Bitstream Vera Sans" font-size="8.00">question_id</text>
<text text-anchor="start" x="82" y="-937.6" font-family="Bitstream Vera Sans" font-size="8.00">INTEGER</text>
</g>
<!-- answer&#45;&gt;question -->
<g id="edge18" class="edge"><title>answer&#45;&gt;question</title>
<path fill="none" stroke="black" d="M103.385,-929.368C111.09,-914.605 119.485,-898.519 128.064,-882.08"/>
<polygon fill="none" stroke="black" points="128.171,-881.874 127.401,-874.705 133.723,-871.236 134.494,-878.406 128.171,-881.874"/>
<text text-anchor="middle" x="141.5" y="-904.1" font-family="Bitstream Vera Sans" font-size="8.00">question_id</text>
</g>
<!-- answer&#45;&gt;user -->
<g id="edge16" class="edge"><title>answer&#45;&gt;user</title>
<path fill="none" stroke="black" d="M55.4623,-929.351C48.2552,-874.173 40,-795.927 40,-727 40,-727 40,-727 40,-239 40,-201.109 59.9384,-164.999 82.6015,-136.192"/>
<polygon fill="none" stroke="black" points="82.7633,-135.995 83.4705,-128.818 90.3668,-126.711 89.6596,-133.887 82.7633,-135.995"/>
<text text-anchor="middle" x="56" y="-436.1" font-family="Bitstream Vera Sans" font-size="8.00">user_id</text>
</g>
<!-- condition -->
<g id="node8" class="node"><title>condition</title>
<polygon fill="lightyellow" stroke="lightyellow" points="172,-963.5 172,-1040.5 284,-1040.5 284,-963.5 172,-963.5"/>
<polygon fill="palegoldenrod" stroke="palegoldenrod" points="172,-1023 172,-1040 284,-1040 284,-1023 172,-1023"/>
<text text-anchor="start" x="208" y="-1030.1" font-family="Helvetica Bold" font-size="8.00">condition</text>
<text text-anchor="start" x="174" y="-1015.6" font-family="Bitstream Vera Sans" font-size="8.00">id</text>
<text text-anchor="start" x="244" y="-1015.6" font-family="Bitstream Vera Sans" font-size="8.00">INTEGER</text>
<text text-anchor="start" x="174" y="-1003.6" font-family="Bitstream Vera Sans" font-size="8.00">operation</text>
<text text-anchor="start" x="244" y="-1003.6" font-family="Bitstream Vera Sans" font-size="8.00">VARCHAR</text>
<text text-anchor="start" x="174" y="-991.6" font-family="Bitstream Vera Sans" font-size="8.00">value</text>
<text text-anchor="start" x="244" y="-991.6" font-family="Bitstream Vera Sans" font-size="8.00">VARCHAR</text>
<text text-anchor="start" x="174" y="-979.6" font-family="Bitstream Vera Sans" font-size="8.00">subquestion_id</text>
<text text-anchor="start" x="244" y="-979.6" font-family="Bitstream Vera Sans" font-size="8.00">INTEGER</text>
<text text-anchor="start" x="174" y="-967.6" font-family="Bitstream Vera Sans" font-size="8.00">parent_id</text>
<text text-anchor="start" x="244" y="-967.6" font-family="Bitstream Vera Sans" font-size="8.00">INTEGER</text>
</g>
<!-- condition&#45;&gt;question -->
<g id="edge22" class="edge"><title>condition&#45;&gt;question</title>
<path fill="none" stroke="black" d="M199.129,-959.395C190.581,-944.77 182.349,-927.784 178,-911 176.614,-905.652 175.551,-900.2 174.772,-894.681"/>
<polygon fill="none" stroke="black" points="174.748,-894.444 170.151,-888.889 173.511,-882.508 178.108,-888.064 174.748,-894.444"/>
<text text-anchor="middle" x="198" y="-904.1" font-family="Bitstream Vera Sans" font-size="8.00">parent_id</text>
</g>
<!-- condition&#45;&gt;question -->
<g id="edge20" class="edge"><title>condition&#45;&gt;question</title>
<path fill="none" stroke="black" d="M225.114,-959.385C223.858,-941.263 222.295,-918.721 220.64,-894.861"/>
<polygon fill="none" stroke="black" points="220.625,-894.641 216.219,-888.932 219.795,-882.67 224.2,-888.379 220.625,-894.641"/>
<text text-anchor="middle" x="254.5" y="-904.1" font-family="Bitstream Vera Sans" font-size="8.00">subquestion_id</text>
</g>
</g>
</svg>
