<?xml version="1.0" standalone="no"?>
<!DOCTYPE svg PUBLIC "-//W3C//DTD SVG 20010904//EN" "http://www.w3.org/TR/2001/REC-SVG-20010904/DTD/svg10.dtd">
<!-- Created using Karbon, part of Calligra: http://www.calligra.org/karbon -->
<svg xmlns="http://www.w3.org/2000/svg" xmlns:xlink="http://www.w3.org/1999/xlink" width="676pt" height="639pt">
<defs/>
<g id="graph0">
  <path id="shape0" transform="matrix(1.24933 0 0 1.25 0 0)" fill="#ffffff" d="M0 639L0 0L676.361 0L676.361 639L0 639Z"/>
  <text id="shape1" fill="#000000" font-family="Bitstream Vera Sans" font-size="6.40000009537pt" text-anchor="middle" x="53.61718750000pt" y="4.87500000000pt" transform="matrix(1.24933 0 0 1.25 338.17 777.883)"><tspan x="0"  y="6.09375">generated by sadisplay v0.3.8dev</tspan></text>
  <g id="node1" transform="translate(31.528, 115.469)" fill="none">
   <path id="shape2" transform="matrix(1.24933 0 0 1.25 0.780834 0.78125)" fill="#ffffe0" d="M0 70L0 0L87.0002 0L87.0002 70L0 70Z"/>
   <path id="shape3" transform="matrix(1.24933 0 0 1.25 1.4055 0.78125)" fill="#eee8aa" d="M0 18L0 0L87.0002 0L87.0002 18L0 18Z"/>
   <text id="shape4" fill="#000000" font-family="Helvetica Bold" font-size="6.40000009537pt" x="0.00000000000pt" y="4.87500000000pt" transform="matrix(1.24933 0 0 1.25 42.0089 6.78906)"><tspan x="0"  y="6.09375">raffle</tspan></text>
   <text id="shape5" fill="#000000" font-family="Bitstream Vera Sans" font-size="6.40000009537pt" x="0.00000000000pt" y="4.87500000000pt" transform="matrix(1.24933 0 0 1.25 3.90417 26.1641)"><tspan x="0"  y="6.09375">id</tspan></text>
   <text id="shape6" fill="#000000" font-family="Bitstream Vera Sans" font-size="6.40000009537pt" x="0.00000000000pt" y="4.75000000000pt" transform="matrix(1.24933 0 0 1.25 61.3736 26.3594)"><tspan x="0"  y="5.9375">INTEGER</tspan></text>
   <text id="shape7" fill="#000000" font-family="Bitstream Vera Sans" font-size="6.40000009537pt" x="0.00000000000pt" y="4.87500000000pt" transform="matrix(1.24933 0 0 1.25 3.90417 42.4141)"><tspan x="0"  y="6.09375">survey_id</tspan></text>
   <text id="shape8" fill="#000000" font-family="Bitstream Vera Sans" font-size="6.40000009537pt" x="0.00000000000pt" y="4.75000000000pt" transform="matrix(1.24933 0 0 1.25 61.3736 42.6094)"><tspan x="0"  y="5.9375">INTEGER</tspan></text>
   <text id="shape9" fill="#000000" font-family="Bitstream Vera Sans" font-size="6.40000009537pt" x="0.00000000000pt" y="4.87500000000pt" transform="matrix(1.24933 0 0 1.25 3.90417 58.6641)"><tspan x="0"  y="6.09375">user_id</tspan></text>
   <text id="shape10" fill="#000000" font-family="Bitstream Vera Sans" font-size="6.40000009537pt" x="0.00000000000pt" y="4.75000000000pt" transform="matrix(1.24933 0 0 1.25 61.3736 58.8594)"><tspan x="0"  y="5.9375">INTEGER</tspan></text>
   <text id="shape11" fill="#000000" font-family="Bitstream Vera Sans" font-size="6.40000009537pt" x="0.00000000000pt" y="4.87500000000pt" transform="matrix(1.24933 0 0 1.25 3.90417 74.9141)"><tspan x="0"  y="6.09375">prize</tspan></text>
   <text id="shape12" fill="#000000" font-family="Bitstream Vera Sans" font-size="6.40000009537pt" x="0.00000000000pt" y="4.75000000000pt" transform="matrix(1.24933 0 0 1.25 61.3736 75.1094)"><tspan x="0"  y="5.9375">INTEGER</tspan></text>
  </g>
  <g id="node3" transform="translate(340.114, 384.844)" fill="none">
   <path id="shape13" transform="matrix(1.24933 0 0 1.25 0.780834 0.78125)" fill="#ffffe0" d="M0 135L0 0L159 0L159 135L0 135Z"/>
   <path id="shape14" transform="matrix(1.24933 0 0 1.25 1.4055 1.40625)" fill="#eee8aa" d="M0 18L0 0L159 0L159 18L0 18Z"/>
   <text id="shape15" fill="#000000" font-family="Helvetica Bold" font-size="6.40000009537pt" x="0.00000000000pt" y="3.59375000000pt" transform="matrix(1.24933 0 0 1.25 82.6123 9.41602)"><tspan x="0"  y="4.49219">survey</tspan></text>
   <text id="shape16" fill="#000000" font-family="Bitstream Vera Sans" font-size="6.40000009537pt" x="0.00000000000pt" y="4.87500000000pt" transform="matrix(1.24933 0 0 1.25 3.90417 26.7891)"><tspan x="0"  y="6.09375">id</tspan></text>
   <text id="shape17" fill="#000000" font-family="Bitstream Vera Sans" font-size="6.40000009537pt" x="0.00000000000pt" y="4.75000000000pt" transform="matrix(1.24933 0 0 1.25 145.079 26.9844)"><tspan x="0"  y="5.9375">INTEGER</tspan></text>
   <text id="shape18" fill="#000000" font-family="Bitstream Vera Sans" font-size="6.40000009537pt" x="0.00000000000pt" y="4.87500000000pt" transform="matrix(1.24933 0 0 1.25 3.90417 43.0391)"><tspan x="0"  y="6.09375">title</tspan></text>
   <text id="shape19" fill="#000000" font-family="Bitstream Vera Sans" font-size="6.40000009537pt" x="0.00000000000pt" y="4.75000000000pt" transform="matrix(1.24933 0 0 1.25 145.079 43.2344)"><tspan x="0"  y="5.9375">VARCHAR</tspan></text>
   <text id="shape20" fill="#000000" font-family="Bitstream Vera Sans" font-size="6.40000009537pt" x="0.00000000000pt" y="4.87500000000pt" transform="matrix(1.24933 0 0 1.25 3.90417 59.2891)"><tspan x="0"  y="6.09375">description</tspan></text>
   <text id="shape21" fill="#000000" font-family="Bitstream Vera Sans" font-size="6.40000009537pt" x="0.00000000000pt" y="4.75000000000pt" transform="matrix(1.24933 0 0 1.25 145.079 59.4844)"><tspan x="0"  y="5.9375">VARCHAR</tspan></text>
   <text id="shape22" fill="#000000" font-family="Bitstream Vera Sans" font-size="6.40000009537pt" x="0.00000000000pt" y="4.87500000000pt" transform="matrix(1.24933 0 0 1.25 3.90417 75.5391)"><tspan x="0"  y="6.09375">created</tspan></text>
   <text id="shape23" fill="#000000" font-family="Bitstream Vera Sans" font-size="6.40000009537pt" x="0.00000000000pt" y="4.67187500000pt" transform="matrix(1.24933 0 0 1.25 145.079 75.8564)"><tspan x="0"  y="5.83984">DATETIME</tspan></text>
   <text id="shape24" fill="#000000" font-family="Bitstream Vera Sans" font-size="6.40000009537pt" x="0.00000000000pt" y="4.67187500000pt" transform="matrix(1.24933 0 0 1.25 3.90417 92.1064)"><tspan x="0"  y="5.83984">startDate</tspan></text>
   <text id="shape25" fill="#000000" font-family="Bitstream Vera Sans" font-size="6.40000009537pt" x="0.00000000000pt" y="4.67187500000pt" transform="matrix(1.24933 0 0 1.25 145.079 92.1064)"><tspan x="0"  y="5.83984">DATETIME</tspan></text>
   <text id="shape26" fill="#000000" font-family="Bitstream Vera Sans" font-size="6.40000009537pt" x="0.00000000000pt" y="4.87500000000pt" transform="matrix(1.24933 0 0 1.25 3.90417 108.039)"><tspan x="0"  y="6.09375">endDate</tspan></text>
   <text id="shape27" fill="#000000" font-family="Bitstream Vera Sans" font-size="6.40000009537pt" x="0.00000000000pt" y="4.67187500000pt" transform="matrix(1.24933 0 0 1.25 145.079 108.356)"><tspan x="0"  y="5.83984">DATETIME</tspan></text>
   <text id="shape28" fill="#000000" font-family="Bitstream Vera Sans" font-size="6.40000009537pt" x="0.00000000000pt" y="4.87500000000pt" transform="matrix(1.24933 0 0 1.25 3.90417 124.289)"><tspan x="0"  y="6.09375">maxNumberRespondents</tspan></text>
   <text id="shape29" fill="#000000" font-family="Bitstream Vera Sans" font-size="6.40000009537pt" x="0.00000000000pt" y="4.75000000000pt" transform="matrix(1.24933 0 0 1.25 145.079 124.484)"><tspan x="0"  y="5.9375">INTEGER</tspan></text>
   <text id="shape30" fill="#000000" font-family="Bitstream Vera Sans" font-size="6.40000009537pt" x="0.00000000000pt" y="4.87500000000pt" transform="matrix(1.24933 0 0 1.25 3.90417 140.539)"><tspan x="0"  y="6.09375">duration</tspan></text>
   <text id="shape31" fill="#000000" font-family="Bitstream Vera Sans" font-size="6.40000009537pt" x="0.00000000000pt" y="4.75000000000pt" transform="matrix(1.24933 0 0 1.25 145.079 140.734)"><tspan x="0"  y="5.9375">INTEGER</tspan></text>
   <text id="shape32" fill="#000000" font-family="Bitstream Vera Sans" font-size="6.40000009537pt" x="0.00000000000pt" y="4.87500000000pt" transform="matrix(1.24933 0 0 1.25 3.90417 156.789)"><tspan x="0"  y="6.09375">researcher_id</tspan></text>
   <text id="shape33" fill="#000000" font-family="Bitstream Vera Sans" font-size="6.40000009537pt" x="0.00000000000pt" y="4.75000000000pt" transform="matrix(1.24933 0 0 1.25 145.079 156.984)"><tspan x="0"  y="5.9375">INTEGER</tspan></text>
  </g>
  <g id="edge1" transform="translate(128.683, 204.825)" fill="none">
   <path id="shape34" transform="matrix(1.24933 0 0 1.25 4.22759 4.22984)" fill="none" stroke="#000000" stroke-width="1.25000000000" stroke-linecap="butt" stroke-linejoin="miter" stroke-miterlimit="2.00000000000" d="M0 0C24.58 24.857 57.921 57.576 88.976 84.756C107.983 101.391 128.905 118.533 149.109 134.542"/>
   <path id="shape35" transform="matrix(1.24933 0 0 1.25 190.651 172.516)" fill="none" stroke="#000000" stroke-width="1.25000000000" stroke-linecap="butt" stroke-linejoin="miter" stroke-miterlimit="2.00000000000" d="M0 0L2.237 6.855L9.425 7.428L7.189 0.572L0 0Z"/>
   <text id="shape36" fill="#000000" font-family="Bitstream Vera Sans" font-size="6.40000009537pt" text-anchor="middle" x="14.57031250000pt" y="4.87500000000pt" transform="matrix(1.24933 0 0 1.25 155.055 133.683)"><tspan x="0"  y="6.09375">survey_id</tspan></text>
  </g>
  <g id="node4" transform="translate(198.939, 629.844)" fill="none">
   <path id="shape37" transform="matrix(1.24933 0 0 1.25 0.780834 0.78125)" fill="#ffffe0" d="M0 109L0 0L119 0L119 109L0 109Z"/>
   <path id="shape38" transform="matrix(1.24933 0 0 1.25 1.4055 1.40625)" fill="#eee8aa" d="M0 18L0 0L119 0L119 18L0 18Z"/>
   <text id="shape39" fill="#000000" font-family="Helvetica Bold" font-size="6.40000009537pt" x="0.00000000000pt" y="3.59375000000pt" transform="matrix(1.24933 0 0 1.25 63.2476 9.41602)"><tspan x="0"  y="4.49219">user</tspan></text>
   <text id="shape40" fill="#000000" font-family="Bitstream Vera Sans" font-size="6.40000009537pt" x="0.00000000000pt" y="4.87500000000pt" transform="matrix(1.24933 0 0 1.25 3.90417 26.7891)"><tspan x="0"  y="6.09375">id</tspan></text>
   <text id="shape41" fill="#000000" font-family="Bitstream Vera Sans" font-size="6.40000009537pt" x="0.00000000000pt" y="4.75000000000pt" transform="matrix(1.24933 0 0 1.25 95.1056 26.9844)"><tspan x="0"  y="5.9375">INTEGER</tspan></text>
   <text id="shape42" fill="#000000" font-family="Bitstream Vera Sans" font-size="6.40000009537pt" x="0.00000000000pt" y="4.87500000000pt" transform="matrix(1.24933 0 0 1.25 3.90417 43.0391)"><tspan x="0"  y="6.09375">created</tspan></text>
   <text id="shape43" fill="#000000" font-family="Bitstream Vera Sans" font-size="6.40000009537pt" x="0.00000000000pt" y="4.67187500000pt" transform="matrix(1.24933 0 0 1.25 95.1056 43.3564)"><tspan x="0"  y="5.83984">DATETIME</tspan></text>
   <text id="shape44" fill="#000000" font-family="Bitstream Vera Sans" font-size="6.40000009537pt" x="0.00000000000pt" y="4.87500000000pt" transform="matrix(1.24933 0 0 1.25 3.90417 59.2891)"><tspan x="0"  y="6.09375">email</tspan></text>
   <text id="shape45" fill="#000000" font-family="Bitstream Vera Sans" font-size="6.40000009537pt" x="0.00000000000pt" y="4.75000000000pt" transform="matrix(1.24933 0 0 1.25 95.1056 59.4844)"><tspan x="0"  y="5.9375">VARCHAR</tspan></text>
   <text id="shape46" fill="#000000" font-family="Bitstream Vera Sans" font-size="6.40000009537pt" x="0.00000000000pt" y="4.87500000000pt" transform="matrix(1.24933 0 0 1.25 3.90417 75.5391)"><tspan x="0"  y="6.09375">nickname</tspan></text>
   <text id="shape47" fill="#000000" font-family="Bitstream Vera Sans" font-size="6.40000009537pt" x="0.00000000000pt" y="4.75000000000pt" transform="matrix(1.24933 0 0 1.25 95.1056 75.7344)"><tspan x="0"  y="5.9375">VARCHAR</tspan></text>
   <text id="shape48" fill="#000000" font-family="Bitstream Vera Sans" font-size="6.40000009537pt" x="0.00000000000pt" y="4.87500000000pt" transform="matrix(1.24933 0 0 1.25 3.90417 91.7891)"><tspan x="0"  y="6.09375">password_hash</tspan></text>
   <text id="shape49" fill="#000000" font-family="Bitstream Vera Sans" font-size="6.40000009537pt" x="0.00000000000pt" y="4.75000000000pt" transform="matrix(1.24933 0 0 1.25 95.1056 91.9844)"><tspan x="0"  y="5.9375">VARCHAR</tspan></text>
   <text id="shape50" fill="#000000" font-family="Bitstream Vera Sans" font-size="6.40000009537pt" x="0.00000000000pt" y="4.87500000000pt" transform="matrix(1.24933 0 0 1.25 3.90417 108.039)"><tspan x="0"  y="6.09375">confirmed</tspan></text>
   <text id="shape51" fill="#000000" font-family="Bitstream Vera Sans" font-size="6.40000009537pt" x="0.00000000000pt" y="4.75000000000pt" transform="matrix(1.24933 0 0 1.25 95.1056 108.234)"><tspan x="0"  y="5.9375">BOOLEAN</tspan></text>
   <text id="shape52" fill="#000000" font-family="Bitstream Vera Sans" font-size="6.40000009537pt" x="0.00000000000pt" y="4.87500000000pt" transform="matrix(1.24933 0 0 1.25 3.90417 124.289)"><tspan x="0"  y="6.09375">role</tspan></text>
   <text id="shape53" fill="#000000" font-family="Bitstream Vera Sans" font-size="6.40000009537pt" x="0.00000000000pt" y="4.75000000000pt" transform="matrix(1.24933 0 0 1.25 95.1056 124.484)"><tspan x="0"  y="5.9375">SMALLINT</tspan></text>
  </g>
  <g id="edge2" transform="translate(1.48176, 204.807)" fill="none">
   <path id="shape54" transform="matrix(1.24933 0 0 1.25 3.89131 4.15834)" fill="none" stroke="#000000" stroke-width="1.25000000000" stroke-linecap="butt" stroke-linejoin="miter" stroke-miterlimit="2.00000000000" d="M46.0967 0C17.1867 64.113 -29.1391 195.374 25.0601 286.828C49.156 327.487 95.3884 353.29 136.213 369.024"/>
   <path id="shape55" transform="matrix(1.24933 0 0 1.25 174.176 463.376)" fill="none" stroke="#000000" stroke-width="1.25000000000" stroke-linecap="butt" stroke-linejoin="miter" stroke-miterlimit="2.00000000000" d="M0 1.682L4.25 7.5076L11.262 5.8252L7.012 0L0 1.682Z"/>
   <text id="shape56" fill="#000000" font-family="Bitstream Vera Sans" font-size="6.40000009537pt" text-anchor="middle" x="10.46875000000pt" y="4.87500000000pt" transform="matrix(1.24933 0 0 1.25 38.0107 259.951)"><tspan x="0"  y="6.09375">user_id</tspan></text>
  </g>
  <g id="node2" transform="translate(264.529, 9.84375)" fill="none">
   <path id="shape57" transform="matrix(1.24933 0 0 1.25 0.780834 0.78125)" fill="#ffffe0" d="M0 239L0 0L112 0L112 239L0 239Z"/>
   <path id="shape58" transform="matrix(1.24933 0 0 1.25 0.780834 1.40625)" fill="#eee8aa" d="M0 18L0 0L112 0L112 18L0 18Z"/>
   <text id="shape59" fill="#000000" font-family="Helvetica Bold" font-size="6.40000009537pt" x="0.00000000000pt" y="3.59375000000pt" transform="matrix(1.24933 0 0 1.25 55.7516 9.41602)"><tspan x="0"  y="4.49219">game</tspan></text>
   <text id="shape60" fill="#000000" font-family="Bitstream Vera Sans" font-size="6.40000009537pt" x="0.00000000000pt" y="4.87500000000pt" transform="matrix(1.24933 0 0 1.25 3.2795 26.7891)"><tspan x="0"  y="6.09375">id</tspan></text>
   <text id="shape61" fill="#000000" font-family="Bitstream Vera Sans" font-size="6.40000009537pt" x="0.00000000000pt" y="4.75000000000pt" transform="matrix(1.24933 0 0 1.25 86.9849 26.9844)"><tspan x="0"  y="5.9375">INTEGER</tspan></text>
   <text id="shape62" fill="#000000" font-family="Bitstream Vera Sans" font-size="6.40000009537pt" x="0.00000000000pt" y="4.87500000000pt" transform="matrix(1.24933 0 0 1.25 3.2795 43.0391)"><tspan x="0"  y="6.09375">survey_id</tspan></text>
   <text id="shape63" fill="#000000" font-family="Bitstream Vera Sans" font-size="6.40000009537pt" x="0.00000000000pt" y="4.75000000000pt" transform="matrix(1.24933 0 0 1.25 86.9849 43.2344)"><tspan x="0"  y="5.9375">INTEGER</tspan></text>
   <text id="shape64" fill="#000000" font-family="Bitstream Vera Sans" font-size="6.40000009537pt" x="0.00000000000pt" y="4.87500000000pt" transform="matrix(1.24933 0 0 1.25 3.2795 59.2891)"><tspan x="0"  y="6.09375">userA_id</tspan></text>
   <text id="shape65" fill="#000000" font-family="Bitstream Vera Sans" font-size="6.40000009537pt" x="0.00000000000pt" y="4.75000000000pt" transform="matrix(1.24933 0 0 1.25 86.9849 59.4844)"><tspan x="0"  y="5.9375">INTEGER</tspan></text>
   <text id="shape66" fill="#000000" font-family="Bitstream Vera Sans" font-size="6.40000009537pt" x="0.00000000000pt" y="4.87500000000pt" transform="matrix(1.24933 0 0 1.25 3.2795 75.5391)"><tspan x="0"  y="6.09375">userB_id</tspan></text>
   <text id="shape67" fill="#000000" font-family="Bitstream Vera Sans" font-size="6.40000009537pt" x="0.00000000000pt" y="4.75000000000pt" transform="matrix(1.24933 0 0 1.25 86.9849 75.7344)"><tspan x="0"  y="5.9375">INTEGER</tspan></text>
   <text id="shape68" fill="#000000" font-family="Bitstream Vera Sans" font-size="6.40000009537pt" x="0.00000000000pt" y="4.87500000000pt" transform="matrix(1.24933 0 0 1.25 3.2795 91.7891)"><tspan x="0"  y="6.09375">answerA_id</tspan></text>
   <text id="shape69" fill="#000000" font-family="Bitstream Vera Sans" font-size="6.40000009537pt" x="0.00000000000pt" y="4.75000000000pt" transform="matrix(1.24933 0 0 1.25 86.9849 91.9844)"><tspan x="0"  y="5.9375">INTEGER</tspan></text>
   <text id="shape70" fill="#000000" font-family="Bitstream Vera Sans" font-size="6.40000009537pt" x="0.00000000000pt" y="4.87500000000pt" transform="matrix(1.24933 0 0 1.25 3.2795 108.039)"><tspan x="0"  y="6.09375">answerB_id</tspan></text>
   <text id="shape71" fill="#000000" font-family="Bitstream Vera Sans" font-size="6.40000009537pt" x="0.00000000000pt" y="4.75000000000pt" transform="matrix(1.24933 0 0 1.25 86.9849 108.234)"><tspan x="0"  y="5.9375">INTEGER</tspan></text>
   <text id="shape72" fill="#000000" font-family="Bitstream Vera Sans" font-size="6.40000009537pt" x="0.00000000000pt" y="4.87500000000pt" transform="matrix(1.24933 0 0 1.25 3.2795 124.289)"><tspan x="0"  y="6.09375">prizeA</tspan></text>
   <text id="shape73" fill="#000000" font-family="Bitstream Vera Sans" font-size="6.40000009537pt" x="0.00000000000pt" y="4.75000000000pt" transform="matrix(1.24933 0 0 1.25 86.9849 124.484)"><tspan x="0"  y="5.9375">BOOLEAN</tspan></text>
   <text id="shape74" fill="#000000" font-family="Bitstream Vera Sans" font-size="6.40000009537pt" x="0.00000000000pt" y="4.87500000000pt" transform="matrix(1.24933 0 0 1.25 3.2795 140.539)"><tspan x="0"  y="6.09375">prizeB</tspan></text>
   <text id="shape75" fill="#000000" font-family="Bitstream Vera Sans" font-size="6.40000009537pt" x="0.00000000000pt" y="4.75000000000pt" transform="matrix(1.24933 0 0 1.25 86.9849 140.734)"><tspan x="0"  y="5.9375">BOOLEAN</tspan></text>
   <text id="shape76" fill="#000000" font-family="Bitstream Vera Sans" font-size="6.40000009537pt" x="0.00000000000pt" y="4.67187500000pt" transform="matrix(1.24933 0 0 1.25 3.2795 157.106)"><tspan x="0"  y="5.83984">repeatA</tspan></text>
   <text id="shape77" fill="#000000" font-family="Bitstream Vera Sans" font-size="6.40000009537pt" x="0.00000000000pt" y="4.75000000000pt" transform="matrix(1.24933 0 0 1.25 86.9849 156.984)"><tspan x="0"  y="5.9375">BOOLEAN</tspan></text>
   <text id="shape78" fill="#000000" font-family="Bitstream Vera Sans" font-size="6.40000009537pt" x="0.00000000000pt" y="4.67187500000pt" transform="matrix(1.24933 0 0 1.25 3.2795 173.356)"><tspan x="0"  y="5.83984">repeatB</tspan></text>
   <text id="shape79" fill="#000000" font-family="Bitstream Vera Sans" font-size="6.40000009537pt" x="0.00000000000pt" y="4.75000000000pt" transform="matrix(1.24933 0 0 1.25 86.9849 173.234)"><tspan x="0"  y="5.9375">BOOLEAN</tspan></text>
   <text id="shape80" fill="#000000" font-family="Bitstream Vera Sans" font-size="6.40000009537pt" x="0.00000000000pt" y="4.67187500000pt" transform="matrix(1.24933 0 0 1.25 3.2795 189.606)"><tspan x="0"  y="5.83984">moneyA</tspan></text>
   <text id="shape81" fill="#000000" font-family="Bitstream Vera Sans" font-size="6.40000009537pt" x="0.00000000000pt" y="4.75000000000pt" transform="matrix(1.24933 0 0 1.25 86.9849 189.484)"><tspan x="0"  y="5.9375">FLOAT</tspan></text>
   <text id="shape82" fill="#000000" font-family="Bitstream Vera Sans" font-size="6.40000009537pt" x="0.00000000000pt" y="4.67187500000pt" transform="matrix(1.24933 0 0 1.25 3.2795 205.856)"><tspan x="0"  y="5.83984">moneyB</tspan></text>
   <text id="shape83" fill="#000000" font-family="Bitstream Vera Sans" font-size="6.40000009537pt" x="0.00000000000pt" y="4.75000000000pt" transform="matrix(1.24933 0 0 1.25 86.9849 205.734)"><tspan x="0"  y="5.9375">FLOAT</tspan></text>
   <text id="shape84" fill="#000000" font-family="Bitstream Vera Sans" font-size="6.40000009537pt" x="0.00000000000pt" y="4.87500000000pt" transform="matrix(1.24933 0 0 1.25 3.2795 221.789)"><tspan x="0"  y="6.09375">is_real_money</tspan></text>
   <text id="shape85" fill="#000000" font-family="Bitstream Vera Sans" font-size="6.40000009537pt" x="0.00000000000pt" y="4.75000000000pt" transform="matrix(1.24933 0 0 1.25 86.9849 221.984)"><tspan x="0"  y="5.9375">BOOLEAN</tspan></text>
   <text id="shape86" fill="#000000" font-family="Bitstream Vera Sans" font-size="6.40000009537pt" x="0.00000000000pt" y="4.50000000000pt" transform="matrix(1.24933 0 0 1.25 3.2795 238.625)"><tspan x="0"  y="5.625">type</tspan></text>
   <text id="shape87" fill="#000000" font-family="Bitstream Vera Sans" font-size="6.40000009537pt" x="0.00000000000pt" y="4.75000000000pt" transform="matrix(1.24933 0 0 1.25 86.9849 238.234)"><tspan x="0"  y="5.9375">VARCHAR</tspan></text>
   <text id="shape88" fill="#000000" font-family="Bitstream Vera Sans" font-size="6.40000009537pt" x="0.00000000000pt" y="4.87500000000pt" transform="matrix(1.24933 0 0 1.25 3.2795 254.289)"><tspan x="0"  y="6.09375">win_id</tspan></text>
   <text id="shape89" fill="#000000" font-family="Bitstream Vera Sans" font-size="6.40000009537pt" x="0.00000000000pt" y="4.75000000000pt" transform="matrix(1.24933 0 0 1.25 86.9849 254.484)"><tspan x="0"  y="5.9375">INTEGER</tspan></text>
   <text id="shape90" fill="#000000" font-family="Bitstream Vera Sans" font-size="6.40000009537pt" x="0.00000000000pt" y="4.87500000000pt" transform="matrix(1.24933 0 0 1.25 3.2795 270.539)"><tspan x="0"  y="6.09375">section</tspan></text>
   <text id="shape91" fill="#000000" font-family="Bitstream Vera Sans" font-size="6.40000009537pt" x="0.00000000000pt" y="4.75000000000pt" transform="matrix(1.24933 0 0 1.25 86.9849 270.734)"><tspan x="0"  y="5.9375">INTEGER</tspan></text>
   <text id="shape92" fill="#000000" font-family="Bitstream Vera Sans" font-size="6.40000009537pt" x="0.00000000000pt" y="4.87500000000pt" transform="matrix(1.24933 0 0 1.25 3.2795 286.789)"><tspan x="0"  y="6.09375">accepted</tspan></text>
   <text id="shape93" fill="#000000" font-family="Bitstream Vera Sans" font-size="6.40000009537pt" x="0.00000000000pt" y="4.75000000000pt" transform="matrix(1.24933 0 0 1.25 86.9849 286.984)"><tspan x="0"  y="5.9375">BOOLEAN</tspan></text>
  </g>
  <g id="edge3" transform="translate(380.27, 310.282)" fill="none">
   <path id="shape94" transform="matrix(1.24933 0 0 1.25 4.11177 4.11396)" fill="none" stroke="#000000" stroke-width="1.25000000000" stroke-linecap="butt" stroke-linejoin="miter" stroke-miterlimit="2.00000000000" d="M0 0C3.234 9.653 6.49 19.238 9.692 28.483C11.143 32.674 12.649 36.962 14.183 41.287"/>
   <path id="shape95" transform="matrix(1.24933 0 0 1.25 19.7397 55.9677)" fill="none" stroke="#000000" stroke-width="1.25000000000" stroke-linecap="butt" stroke-linejoin="miter" stroke-miterlimit="2.00000000000" d="M1.744 0L0 6.997L5.788 11.298L7.532 4.301L1.744 0Z"/>
   <text id="shape96" fill="#000000" font-family="Bitstream Vera Sans" font-size="6.40000009537pt" text-anchor="middle" x="14.57031250000pt" y="4.87500000000pt" transform="matrix(1.24933 0 0 1.25 18.4067 28.2255)"><tspan x="0"  y="6.09375">survey_id</tspan></text>
  </g>
  <g id="edge4" transform="translate(76.7749, 228.64)" fill="none">
   <path id="shape97" transform="matrix(1.24933 0 0 1.25 3.88696 4.22835)" fill="none" stroke="#000000" stroke-width="1.25000000000" stroke-linecap="butt" stroke-linejoin="miter" stroke-miterlimit="2.00000000000" d="M139.712 0C88.6201 46.024 25.0716 104.195 21.7969 111.705C-5.91686 175.259 -8.58386 205.382 21.7969 267.705C33.992 292.722 55.4371 313.488 77.5921 329.715"/>
   <path id="shape98" transform="matrix(1.24933 0 0 1.25 100.859 416.396)" fill="none" stroke="#000000" stroke-width="1.25000000000" stroke-linecap="butt" stroke-linejoin="miter" stroke-miterlimit="2.00000000000" d="M0 0L2.619 6.719L9.828 6.886L7.21 0.167L0 0Z"/>
   <text id="shape99" fill="#000000" font-family="Bitstream Vera Sans" font-size="6.40000009537pt" text-anchor="middle" x="12.46875000000pt" y="4.87500000000pt" transform="matrix(1.24933 0 0 1.25 33.9299 236.117)"><tspan x="0"  y="6.09375">userA_id</tspan></text>
  </g>
  <g id="edge5" transform="translate(177.61, 255.951)" fill="none">
   <path id="shape100" transform="matrix(1.24933 0 0 1.25 3.89725 4.20932)" fill="none" stroke="#000000" stroke-width="1.25000000000" stroke-linecap="butt" stroke-linejoin="miter" stroke-miterlimit="2.00000000000" d="M58.7996 0C40.6906 26.911 23.3986 58.223 14.0776 89.872C-5.51042 156.381 -3.85642 178.898 14.0776 245.872C17.3056 257.927 22.3046 270.031 28.0706 281.502"/>
   <path id="shape101" transform="matrix(1.24933 0 0 1.25 38.1947 356.318)" fill="none" stroke="#000000" stroke-width="1.25000000000" stroke-linecap="butt" stroke-linejoin="miter" stroke-miterlimit="2.00000000000" d="M0.717 0L0 7.176L6.348 10.597L7.065 3.421L0.717 0Z"/>
   <text id="shape102" fill="#000000" font-family="Bitstream Vera Sans" font-size="6.40000009537pt" text-anchor="middle" x="12.46875000000pt" y="4.87500000000pt" transform="matrix(1.24933 0 0 1.25 24.9205 208.807)"><tspan x="0"  y="6.09375">userB_id</tspan></text>
  </g>
  <g id="edge8" transform="translate(261.878, 310.373)" fill="none">
   <path id="shape103" transform="matrix(1.24933 0 0 1.25 8.39897 4.05939)" fill="none" stroke="#000000" stroke-width="1.25000000000" stroke-linecap="butt" stroke-linejoin="miter" stroke-miterlimit="2.00000000000" d="M21.084 0C19.674 6.232 18.312 12.41 17.024 18.454C1.38701 91.815 -0.740985 177.966 0.183015 236.8"/>
   <path id="shape104" transform="matrix(1.24933 0 0 1.25 3.78145 300.219)" fill="none" stroke="#000000" stroke-width="1.25000000000" stroke-linecap="butt" stroke-linejoin="miter" stroke-miterlimit="2.00000000000" d="M3.881 0L0 6.078L4.118 11.997L7.999 5.92L3.881 0Z"/>
   <text id="shape105" fill="#000000" font-family="Bitstream Vera Sans" font-size="6.40000009537pt" text-anchor="middle" x="9.60937500000pt" y="4.87500000000pt" transform="matrix(1.24933 0 0 1.25 24.6703 154.385)"><tspan x="0"  y="6.09375">win_id</tspan></text>
  </g>
  <g id="node5" transform="translate(581.86, 376.719)" fill="none">
   <path id="shape106" transform="matrix(1.24933 0 0 1.25 0.780834 0.78125)" fill="#ffffe0" d="M0 148L0 0L118 0L118 148L0 148Z"/>
   <path id="shape107" transform="matrix(1.24933 0 0 1.25 0.780834 0.78125)" fill="#eee8aa" d="M0 18L0 0L118 0L118 18L0 18Z"/>
   <text id="shape108" fill="#000000" font-family="Helvetica Bold" font-size="6.40000009537pt" x="0.00000000000pt" y="3.59375000000pt" transform="matrix(1.24933 0 0 1.25 54.5022 8.79102)"><tspan x="0"  y="4.49219">answer</tspan></text>
   <text id="shape109" fill="#000000" font-family="Bitstream Vera Sans" font-size="6.40000009537pt" x="0.00000000000pt" y="4.87500000000pt" transform="matrix(1.24933 0 0 1.25 3.2795 26.1641)"><tspan x="0"  y="6.09375">id</tspan></text>
   <text id="shape110" fill="#000000" font-family="Bitstream Vera Sans" font-size="6.40000009537pt" x="0.00000000000pt" y="4.75000000000pt" transform="matrix(1.24933 0 0 1.25 93.2316 26.3594)"><tspan x="0"  y="5.9375">INTEGER</tspan></text>
   <text id="shape111" fill="#000000" font-family="Bitstream Vera Sans" font-size="6.40000009537pt" x="0.00000000000pt" y="4.87500000000pt" transform="matrix(1.24933 0 0 1.25 3.2795 42.4141)"><tspan x="0"  y="6.09375">created</tspan></text>
   <text id="shape112" fill="#000000" font-family="Bitstream Vera Sans" font-size="6.40000009537pt" x="0.00000000000pt" y="4.67187500000pt" transform="matrix(1.24933 0 0 1.25 93.2316 42.7314)"><tspan x="0"  y="5.83984">DATETIME</tspan></text>
   <text id="shape113" fill="#000000" font-family="Bitstream Vera Sans" font-size="6.40000009537pt" x="0.00000000000pt" y="4.87500000000pt" transform="matrix(1.24933 0 0 1.25 3.2795 58.6641)"><tspan x="0"  y="6.09375">answerNumeric</tspan></text>
   <text id="shape114" fill="#000000" font-family="Bitstream Vera Sans" font-size="6.40000009537pt" x="0.00000000000pt" y="4.75000000000pt" transform="matrix(1.24933 0 0 1.25 93.2316 58.8594)"><tspan x="0"  y="5.9375">INTEGER</tspan></text>
   <text id="shape115" fill="#000000" font-family="Bitstream Vera Sans" font-size="6.40000009537pt" x="0.00000000000pt" y="4.67187500000pt" transform="matrix(1.24933 0 0 1.25 3.2795 75.2314)"><tspan x="0"  y="5.83984">answerText</tspan></text>
   <text id="shape116" fill="#000000" font-family="Bitstream Vera Sans" font-size="6.40000009537pt" x="0.00000000000pt" y="4.75000000000pt" transform="matrix(1.24933 0 0 1.25 93.2316 75.1094)"><tspan x="0"  y="5.9375">VARCHAR</tspan></text>
   <text id="shape117" fill="#000000" font-family="Bitstream Vera Sans" font-size="6.40000009537pt" x="0.00000000000pt" y="4.67187500000pt" transform="matrix(1.24933 0 0 1.25 3.2795 91.4814)"><tspan x="0"  y="5.83984">answerYN</tspan></text>
   <text id="shape118" fill="#000000" font-family="Bitstream Vera Sans" font-size="6.40000009537pt" x="0.00000000000pt" y="4.75000000000pt" transform="matrix(1.24933 0 0 1.25 93.2316 91.3594)"><tspan x="0"  y="5.9375">BOOLEAN</tspan></text>
   <text id="shape119" fill="#000000" font-family="Bitstream Vera Sans" font-size="6.40000009537pt" x="0.00000000000pt" y="4.87500000000pt" transform="matrix(1.24933 0 0 1.25 3.2795 107.414)"><tspan x="0"  y="6.09375">numberAttempt</tspan></text>
   <text id="shape120" fill="#000000" font-family="Bitstream Vera Sans" font-size="6.40000009537pt" x="0.00000000000pt" y="4.75000000000pt" transform="matrix(1.24933 0 0 1.25 93.2316 107.609)"><tspan x="0"  y="5.9375">INTEGER</tspan></text>
   <text id="shape121" fill="#000000" font-family="Bitstream Vera Sans" font-size="6.40000009537pt" x="0.00000000000pt" y="4.87500000000pt" transform="matrix(1.24933 0 0 1.25 3.2795 123.664)"><tspan x="0"  y="6.09375">globalTime</tspan></text>
   <text id="shape122" fill="#000000" font-family="Bitstream Vera Sans" font-size="6.40000009537pt" x="0.00000000000pt" y="4.75000000000pt" transform="matrix(1.24933 0 0 1.25 93.2316 123.859)"><tspan x="0"  y="5.9375">INTEGER</tspan></text>
   <text id="shape123" fill="#000000" font-family="Bitstream Vera Sans" font-size="6.40000009537pt" x="0.00000000000pt" y="4.87500000000pt" transform="matrix(1.24933 0 0 1.25 3.2795 139.914)"><tspan x="0"  y="6.09375">differentialTime</tspan></text>
   <text id="shape124" fill="#000000" font-family="Bitstream Vera Sans" font-size="6.40000009537pt" x="0.00000000000pt" y="4.75000000000pt" transform="matrix(1.24933 0 0 1.25 93.2316 140.109)"><tspan x="0"  y="5.9375">INTEGER</tspan></text>
   <text id="shape125" fill="#000000" font-family="Bitstream Vera Sans" font-size="6.40000009537pt" x="0.00000000000pt" y="4.87500000000pt" transform="matrix(1.24933 0 0 1.25 3.2795 156.164)"><tspan x="0"  y="6.09375">user_id</tspan></text>
   <text id="shape126" fill="#000000" font-family="Bitstream Vera Sans" font-size="6.40000009537pt" x="0.00000000000pt" y="4.75000000000pt" transform="matrix(1.24933 0 0 1.25 93.2316 156.359)"><tspan x="0"  y="5.9375">INTEGER</tspan></text>
   <text id="shape127" fill="#000000" font-family="Bitstream Vera Sans" font-size="6.40000009537pt" x="0.00000000000pt" y="4.87500000000pt" transform="matrix(1.24933 0 0 1.25 3.2795 172.414)"><tspan x="0"  y="6.09375">question_id</tspan></text>
   <text id="shape128" fill="#000000" font-family="Bitstream Vera Sans" font-size="6.40000009537pt" x="0.00000000000pt" y="4.75000000000pt" transform="matrix(1.24933 0 0 1.25 93.2316 172.609)"><tspan x="0"  y="5.9375">INTEGER</tspan></text>
  </g>
  <g id="edge6" transform="translate(411.031, 228.538)" fill="none">
   <path id="shape129" transform="matrix(1.24933 0 0 1.25 4.22628 4.22853)" fill="none" stroke="#000000" stroke-width="1.25000000000" stroke-linecap="butt" stroke-linejoin="miter" stroke-miterlimit="2.00000000000" d="M0 0C27.949 25.335 60.91 55.703 89.978 83.787C98.885 92.392 108.113 101.506 117.223 110.626"/>
   <path id="shape130" transform="matrix(1.24933 0 0 1.25 150.952 142.787)" fill="none" stroke="#000000" stroke-width="1.25000000000" stroke-linecap="butt" stroke-linejoin="miter" stroke-miterlimit="2.00000000000" d="M0 0L1.395 7.075L8.462 8.509L7.067 1.434L0 0Z"/>
   <text id="shape131" fill="#000000" font-family="Bitstream Vera Sans" font-size="6.40000009537pt" text-anchor="middle" x="17.04687500000pt" y="4.87500000000pt" transform="matrix(1.24933 0 0 1.25 131.162 109.97)"><tspan x="0"  y="6.09375">answerA_id</tspan></text>
  </g>
  <g id="edge7" transform="translate(411.068, 192.53)" fill="none">
   <path id="shape132" transform="matrix(1.24933 0 0 1.25 4.17183 4.17406)" fill="none" stroke="#000000" stroke-width="1.25000000000" stroke-linecap="butt" stroke-linejoin="miter" stroke-miterlimit="2.00000000000" d="M0 0C47.624 23.966 111.183 62.416 151.992 112.637C156.234 117.858 160.076 123.57 163.55 129.547"/>
   <path id="shape133" transform="matrix(1.24933 0 0 1.25 207.885 166.614)" fill="none" stroke="#000000" stroke-width="1.25000000000" stroke-linecap="butt" stroke-linejoin="miter" stroke-miterlimit="2.00000000000" d="M0.709 0L0 7.177L6.352 10.591L7.061 3.414L0.709 0Z"/>
   <text id="shape134" fill="#000000" font-family="Bitstream Vera Sans" font-size="6.40000009537pt" text-anchor="middle" x="17.04687500000pt" y="4.87500000000pt" transform="matrix(1.24933 0 0 1.25 207.96 145.978)"><tspan x="0"  y="6.09375">answerB_id</tspan></text>
  </g>
  <g id="edge9" transform="translate(323.005, 555.479)" fill="none">
   <path id="shape135" transform="matrix(1.24933 0 0 1.25 13.071 4.21717)" fill="none" stroke="#000000" stroke-width="1.25000000000" stroke-linecap="butt" stroke-linejoin="miter" stroke-miterlimit="2.00000000000" d="M31.364 0C21.046 14.042 10.238 28.751 0 42.683"/>
   <path id="shape136" transform="matrix(1.24933 0 0 1.25 3.90336 57.9672)" fill="none" stroke="#000000" stroke-width="1.25000000000" stroke-linecap="butt" stroke-linejoin="miter" stroke-miterlimit="2.00000000000" d="M7.105 0L0.329 2.467L0 9.67L6.776 7.204L7.105 0Z"/>
   <text id="shape137" fill="#000000" font-family="Bitstream Vera Sans" font-size="6.40000009537pt" text-anchor="middle" x="19.95312500000pt" y="4.87500000000pt" transform="matrix(1.24933 0 0 1.25 35.2242 35.5287)"><tspan x="0"  y="6.09375">researcher_id</tspan></text>
  </g>
  <g id="edge10" transform="translate(354.615, 554.297)" fill="none">
   <path id="shape138" transform="matrix(1.24933 0 0 1.25 18.0192 4.22185)" fill="none" stroke="#000000" stroke-width="1.25000000000" stroke-linecap="butt" stroke-linejoin="miter" stroke-miterlimit="2.00000000000" d="M159.814 0C156.605 2.516 153.358 4.924 150.095 7.185C103.77 39.277 45.95 65.444 0 83.503"/>
   <path id="shape139" transform="matrix(1.24933 0 0 1.25 3.76176 106.751)" fill="none" stroke="#000000" stroke-width="1.25000000000" stroke-linecap="butt" stroke-linejoin="miter" stroke-miterlimit="2.00000000000" d="M11.191 1.566L4.152 0L0 5.896L7.039 7.4613L11.191 1.566Z"/>
   <text id="shape140" fill="#000000" font-family="Bitstream Vera Sans" font-size="6.40000009537pt" text-anchor="middle" x="10.46875000000pt" y="4.87500000000pt" transform="matrix(1.24933 0 0 1.25 173.368 36.7109)"><tspan x="0"  y="6.09375">user_id</tspan></text>
  </g>
  <g id="node6" transform="translate(665.566, 99.2188)" fill="none">
   <path id="shape141" transform="matrix(1.24933 0 0 1.25 0.780834 0.78125)" fill="#ffffe0" d="M0 96L0 0L112 0L112 96L0 96Z"/>
   <path id="shape142" transform="matrix(1.24933 0 0 1.25 0.780834 0.78125)" fill="#eee8aa" d="M0 18L0 0L112 0L112 18L0 18Z"/>
   <text id="shape143" fill="#000000" font-family="Helvetica Bold" font-size="6.40000009537pt" x="0.00000000000pt" y="4.87500000000pt" transform="matrix(1.24933 0 0 1.25 24.5182 6.78906)"><tspan x="0"  y="6.09375">gameImpatience</tspan></text>
   <text id="shape144" fill="#000000" font-family="Bitstream Vera Sans" font-size="6.40000009537pt" x="0.00000000000pt" y="4.87500000000pt" transform="matrix(1.24933 0 0 1.25 3.2795 26.1641)"><tspan x="0"  y="6.09375">id</tspan></text>
   <text id="shape145" fill="#000000" font-family="Bitstream Vera Sans" font-size="6.40000009537pt" x="0.00000000000pt" y="4.75000000000pt" transform="matrix(1.24933 0 0 1.25 86.9849 26.3594)"><tspan x="0"  y="5.9375">INTEGER</tspan></text>
   <text id="shape146" fill="#000000" font-family="Bitstream Vera Sans" font-size="6.40000009537pt" x="0.00000000000pt" y="4.87500000000pt" transform="matrix(1.24933 0 0 1.25 3.2795 42.4141)"><tspan x="0"  y="6.09375">survey_id</tspan></text>
   <text id="shape147" fill="#000000" font-family="Bitstream Vera Sans" font-size="6.40000009537pt" x="0.00000000000pt" y="4.75000000000pt" transform="matrix(1.24933 0 0 1.25 86.9849 42.6094)"><tspan x="0"  y="5.9375">INTEGER</tspan></text>
   <text id="shape148" fill="#000000" font-family="Bitstream Vera Sans" font-size="6.40000009537pt" x="0.00000000000pt" y="4.87500000000pt" transform="matrix(1.24933 0 0 1.25 3.2795 58.6641)"><tspan x="0"  y="6.09375">user_id</tspan></text>
   <text id="shape149" fill="#000000" font-family="Bitstream Vera Sans" font-size="6.40000009537pt" x="0.00000000000pt" y="4.75000000000pt" transform="matrix(1.24933 0 0 1.25 86.9849 58.8594)"><tspan x="0"  y="5.9375">INTEGER</tspan></text>
   <text id="shape150" fill="#000000" font-family="Bitstream Vera Sans" font-size="6.40000009537pt" x="0.00000000000pt" y="4.87500000000pt" transform="matrix(1.24933 0 0 1.25 3.2795 74.9141)"><tspan x="0"  y="6.09375">answer_id</tspan></text>
   <text id="shape151" fill="#000000" font-family="Bitstream Vera Sans" font-size="6.40000009537pt" x="0.00000000000pt" y="4.75000000000pt" transform="matrix(1.24933 0 0 1.25 86.9849 75.1094)"><tspan x="0"  y="5.9375">INTEGER</tspan></text>
   <text id="shape152" fill="#000000" font-family="Bitstream Vera Sans" font-size="6.40000009537pt" x="0.00000000000pt" y="4.87500000000pt" transform="matrix(1.24933 0 0 1.25 3.2795 91.1641)"><tspan x="0"  y="6.09375">is_real_money</tspan></text>
   <text id="shape153" fill="#000000" font-family="Bitstream Vera Sans" font-size="6.40000009537pt" x="0.00000000000pt" y="4.75000000000pt" transform="matrix(1.24933 0 0 1.25 86.9849 91.3594)"><tspan x="0"  y="5.9375">BOOLEAN</tspan></text>
   <text id="shape154" fill="#000000" font-family="Bitstream Vera Sans" font-size="6.40000009537pt" x="0.00000000000pt" y="4.87500000000pt" transform="matrix(1.24933 0 0 1.25 3.2795 107.414)"><tspan x="0"  y="6.09375">prize</tspan></text>
   <text id="shape155" fill="#000000" font-family="Bitstream Vera Sans" font-size="6.40000009537pt" x="0.00000000000pt" y="4.75000000000pt" transform="matrix(1.24933 0 0 1.25 86.9849 107.609)"><tspan x="0"  y="5.9375">BOOLEAN</tspan></text>
  </g>
  <g id="edge11" transform="translate(449.411, 192.432)" fill="none">
   <path id="shape156" transform="matrix(1.24933 0 0 1.25 11.2376 4.17579)" fill="none" stroke="#000000" stroke-width="1.25000000000" stroke-linecap="butt" stroke-linejoin="miter" stroke-miterlimit="2.00000000000" d="M156.585 0C110.074 23.701 49.136 61.845 12.646 112.714C7.606 119.74 3.442 127.605 0 135.785"/>
   <path id="shape157" transform="matrix(1.24933 0 0 1.25 3.88401 173.998)" fill="none" stroke="#000000" stroke-width="1.25000000000" stroke-linecap="butt" stroke-linejoin="miter" stroke-miterlimit="2.00000000000" d="M5.859 0L0 4.204L1.628 11.229L7.486 7.025L5.859 0Z"/>
   <text id="shape158" fill="#000000" font-family="Bitstream Vera Sans" font-size="6.40000009537pt" text-anchor="middle" x="14.57031250000pt" y="4.87500000000pt" transform="matrix(1.24933 0 0 1.25 29.223 146.076)"><tspan x="0"  y="6.09375">survey_id</tspan></text>
  </g>
  <g id="edge12" transform="translate(354.853, 220.925)" fill="none">
   <path id="shape159" transform="matrix(1.24933 0 0 1.25 18.494 4.12247)" fill="none" stroke="#000000" stroke-width="1.25000000000" stroke-linecap="butt" stroke-linejoin="miter" stroke-miterlimit="2.00000000000" d="M311.35 0C336.32 70.4 367.27 197.278 302.524 273.962C263.802 319.823 100.118 351.514 0 367.024"/>
   <path id="shape160" transform="matrix(1.24933 0 0 1.25 3.64941 459.093)" fill="none" stroke="#000000" stroke-width="1.25000000000" stroke-linecap="butt" stroke-linejoin="miter" stroke-miterlimit="2.00000000000" d="M11.863 3.0502L5.329 0L0 4.8585L6.535 7.9087L11.863 3.0502Z"/>
   <text id="shape161" fill="#000000" font-family="Bitstream Vera Sans" font-size="6.40000009537pt" text-anchor="middle" x="10.46875000000pt" y="4.87500000000pt" transform="matrix(1.24933 0 0 1.25 447.983 243.833)"><tspan x="0"  y="6.09375">user_id</tspan></text>
  </g>
  <g id="edge13" transform="translate(695.321, 221.092)" fill="none">
   <path id="shape162" transform="matrix(1.24933 0 0 1.25 11.083 3.98462)" fill="none" stroke="#000000" stroke-width="1.25000000000" stroke-linecap="butt" stroke-linejoin="miter" stroke-miterlimit="2.00000000000" d="M19.977 0C16.823 29.604 11.323 67.354 1.937 99.939C1.327 102.056 0.679 104.188 0 106.328"/>
   <path id="shape163" transform="matrix(1.24933 0 0 1.25 3.87807 137.053)" fill="none" stroke="#000000" stroke-width="1.25000000000" stroke-linecap="butt" stroke-linejoin="miter" stroke-miterlimit="2.00000000000" d="M5.723 0L0 4.388L1.849 11.358L7.572 6.97L5.723 0Z"/>
   <text id="shape164" fill="#000000" font-family="Bitstream Vera Sans" font-size="6.40000009537pt" text-anchor="middle" x="15.04687500000pt" y="4.87500000000pt" transform="matrix(1.24933 0 0 1.25 20.5304 117.416)"><tspan x="0"  y="6.09375">answer_id</tspan></text>
  </g>
 </g>
</svg>
